M48
; DRILL file {KiCad (5.1.6-0-10_14)} date Tuesday, July 21, 2020 at 12:28:28 PM
; FORMAT={-:-/ absolute / inch / decimal}
; #@! TF.CreationDate,2020-07-21T12:28:28+02:00
; #@! TF.GenerationSoftware,Kicad,Pcbnew,(5.1.6-0-10_14)
; #@! TF.FileFunction,Plated,1,2,PTH
FMAT,2
INCH
T1C0.0150
T2C0.0315
T3C0.0394
%
G90
G05
T1
X2.914Y-2.519
X2.981Y-4.988
X3.008Y-2.522
X3.054Y-5.559
X3.1063Y-5.7953
X3.109Y-3.167
X3.128Y-2.962
X3.1864Y-5.6264
X3.205Y-3.261
X3.233Y-4.331
X3.2598Y-5.9567
X3.262Y-5.913
X3.2756Y-1.8031
X3.287Y-3.358
X3.2894Y-6.0571
X3.3425Y-6.0394
X3.3701Y-1.7165
X3.3875Y-1.5967
X3.4016Y-1.685
X3.4156Y-6.1243
X3.47Y-1.535
X3.599Y-6.133
X3.6729Y-1.3809
X3.73Y-3.594
X3.743Y-3.975
X3.825Y-6.33
X3.982Y-1.339
X4.196Y-1.229
X4.394Y-6.341
X4.5039Y-3.6457
X4.5157Y-3.7874
X4.5231Y-4.0201
X4.556Y-1.375
X4.563Y-3.8937
X4.591Y-3.555
X4.6531Y-3.8335
X4.6535Y-3.6102
X4.6535Y-3.6417
X4.685Y-4.0197
X4.688Y-3.852
X4.6969Y-4.063
X4.7165Y-3.7559
X4.7362Y-3.9173
X4.752Y-3.8898
X4.7677Y-3.9449
X4.778Y-3.739
X4.7835Y-3.6811
X4.7873Y-4.1693
X4.795Y-1.465
X4.815Y-3.6339
X4.827Y-3.954
X4.83Y-6.167
X4.8539Y-4.1304
X4.866Y-3.511
X4.9055Y-3.622
X4.912Y-3.982
X4.9311Y-3.7697
X4.9331Y-3.9488
X4.9409Y-3.7402
X4.9557Y-3.3455
X4.9592Y-3.8242
X4.9843Y-3.8504
X4.9961Y-3.9409
X5.012Y-3.732
X5.016Y-3.509
X5.039Y-3.38
X5.0394Y-3.8976
X5.0654Y-3.8677
X5.0906Y-3.8465
X5.118Y-5.955
X5.1299Y-3.9724
X5.1299Y-4.0039
X5.14Y-4.07
X5.1575Y-3.315
X5.165Y-4.438
X5.1693Y-3.5236
X5.185Y-3.9055
X5.1887Y-4.0903
X5.195Y-1.803
X5.1969Y-3.4488
X5.2087Y-3.7244
X5.2146Y-3.5886
X5.2205Y-3.9882
X5.2205Y-4.0276
X5.24Y-5.609
X5.244Y-4.486
X5.2441Y-3.0315
X5.265Y-3.1705
X5.2874Y-3.0512
X5.301Y-3.48
X5.3189Y-2.9094
X5.3228Y-3.2362
X5.3228Y-3.311
X5.3228Y-2.8583
X5.3229Y-3.0433
X5.3386Y-3.1969
X5.339Y-2.203
X5.3661Y-3.1772
X5.3721Y-5.4641
X5.383Y-3.985
X5.3885Y-2.9685
X5.3898Y-3.311
X5.4213Y-3.1142
X5.4252Y-2.8583
X5.431Y-3.57
X5.44Y-5.49
X5.444Y-5.548
X5.448Y-4.1
X5.451Y-3.138
X5.4724Y-2.126
X5.4724Y-2.1732
X5.4724Y-4.752
X5.4764Y-2.9409
X5.4803Y-3.311
X5.4812Y-4.4204
X5.4921Y-1.9882
X5.495Y-2.872
X5.5139Y-5.4428
X5.5164Y-5.6264
X5.5354Y-3.0748
X5.5354Y-5.3228
X5.5551Y-2.8661
X5.562Y-4.845
X5.5669Y-4.8031
X5.5709Y-3.6693
X5.575Y-2.372
X5.5945Y-2.1299
X5.5945Y-2.8701
X5.6102Y-3.0315
X5.62Y-3.615
X5.622Y-2.9213
X5.626Y-2.1693
X5.626Y-2.8701
X5.643Y-3.192
X5.6525Y-5.4184
X5.6575Y-3.0709
X5.6811Y-2.9252
X5.6811Y-3.0315
X5.682Y-2.107
X5.6969Y-3.0827
X5.727Y-5.548
X5.732Y-3.533
X5.771Y-3.659
X5.773Y-5.906
X5.7815Y-3.9941
X5.795Y-3.575
X5.798Y-3.308
X5.7992Y-4.0276
X5.8049Y-3.6251
X5.808Y-3.029
X5.811Y-4.0669
X5.885Y-3.505
X5.8898Y-3.7362
X5.9016Y-3.8622
X5.9134Y-3.7677
X5.9213Y-3.6142
X5.96Y-3.575
X5.963Y-4.265
X5.9724Y-3.6063
X5.979Y-3.37
X5.979Y-4.149
X6.0246Y-3.9872
X6.0709Y-3.6496
X6.0807Y-6.128
X6.1024Y-6.0669
X6.156Y-1.408
X6.2795Y-6.2008
X6.297Y-4.063
X6.32Y-3.554
X6.3425Y-6.2126
X6.378Y-6.2717
X6.388Y-1.346
X6.4692Y-6.2946
X6.537Y-6.3542
X6.585Y-1.288
X6.6166Y-6.2994
X6.9252Y-3.8386
X6.9449Y-3.7087
X7.0433Y-3.9173
X7.0905Y-4.0
X7.092Y-6.28
X7.1671Y-3.8819
X7.2284Y-4.0
X7.255Y-3.88
X7.3115Y-3.6561
X7.34Y-4.071
X7.4448Y-1.634
X7.5332Y-6.1203
X7.5394Y-5.9606
X7.563Y-1.6535
X7.5708Y-1.6182
X7.5751Y-6.0745
X7.6Y-1.575
X7.6431Y-1.7295
X7.673Y-4.269
X7.6732Y-5.9409
X7.7165Y-5.9094
X7.718Y-4.49
X7.7278Y-1.7278
X7.735Y-4.295
X7.7638Y-5.8661
X7.7697Y-1.7737
X7.785Y-1.919
X7.8425Y-4.4921
X7.865Y-5.576
X7.8898Y-4.6181
X7.905Y-3.055
X7.9312Y-4.7617
X7.9448Y-4.9189
X7.967Y-5.137
X7.986Y-2.737
X8.0276Y-4.9528
X8.029Y-2.449
T2
X5.1181Y-3.3858
X5.1969Y-3.3858
X5.2756Y-3.3858
X5.3543Y-3.3858
X5.4331Y-3.3858
X5.5118Y-3.3858
X5.5906Y-3.3858
X5.6693Y-3.3858
X5.748Y-3.3858
X5.8268Y-3.3858
X5.1181Y-4.252
X5.1969Y-4.252
X5.2756Y-4.252
X5.3543Y-4.252
X5.4331Y-4.252
X5.5118Y-4.252
X5.5906Y-4.252
X5.6693Y-4.252
X5.748Y-4.252
X5.8268Y-4.252
T3
X5.7717Y-4.5984
X6.5118Y-3.748
X6.3504Y-3.9055
X6.5118Y-3.9055
X4.3071Y-3.748
X5.3701Y-2.4646
X5.378Y-5.2047
X5.5512Y-5.0472
X5.4646Y-4.9055
X5.189Y-4.5591
X5.7717Y-4.4409
X6.3504Y-3.748
X4.3071Y-3.9094
X5.4606Y-2.5906
X6.6693Y-3.9055
X4.126Y-3.748
X5.378Y-5.0472
X5.5472Y-2.4646
X6.6693Y-3.748
X5.5472Y-2.7205
X4.126Y-3.9094
X5.5512Y-5.2047
X5.3701Y-2.7205
T0
M30
