%TF.GenerationSoftware,KiCad,Pcbnew,(5.1.6-0-10_14)*%
%TF.CreationDate,2020-07-21T12:28:25+02:00*%
%TF.ProjectId,audio_shield,61756469-6f5f-4736-9869-656c642e6b69,A*%
%TF.SameCoordinates,Original*%
%TF.FileFunction,Legend,Bot*%
%TF.FilePolarity,Positive*%
%FSLAX46Y46*%
G04 Gerber Fmt 4.6, Leading zero omitted, Abs format (unit mm)*
G04 Created by KiCad (PCBNEW (5.1.6-0-10_14)) date 2020-07-21 12:28:25*
%MOMM*%
%LPD*%
G01*
G04 APERTURE LIST*
%ADD10C,0.150000*%
%ADD11C,0.300000*%
%ADD12C,0.400000*%
%ADD13C,0.120000*%
%ADD14C,0.127000*%
%ADD15C,0.100000*%
%ADD16C,0.015000*%
G04 APERTURE END LIST*
D10*
X177002200Y-166007200D02*
X177002200Y-198007200D01*
X285002200Y-198007200D01*
X285002200Y-166007200D01*
X177002200Y-166007200D01*
X10000000Y-10000000D02*
X10000000Y-200007200D01*
X287002200Y-200007200D01*
X287002200Y-10000000D01*
X10000000Y-10000000D01*
X12000000Y-12000000D02*
X12000000Y-198007200D01*
X285002200Y-198007200D01*
X285002200Y-12000000D01*
X12000000Y-12000000D01*
X60000000Y-12000000D02*
X60000000Y-10000000D01*
X110000000Y-12000000D02*
X110000000Y-10000000D01*
X160000000Y-12000000D02*
X160000000Y-10000000D01*
X210000000Y-12000000D02*
X210000000Y-10000000D01*
X260000000Y-12000000D02*
X260000000Y-10000000D01*
X36065476Y-11588095D02*
X35322619Y-11588095D01*
X35694047Y-11588095D02*
X35694047Y-10288095D01*
X35570238Y-10473809D01*
X35446428Y-10597619D01*
X35322619Y-10659523D01*
X85322619Y-10411904D02*
X85384523Y-10350000D01*
X85508333Y-10288095D01*
X85817857Y-10288095D01*
X85941666Y-10350000D01*
X86003571Y-10411904D01*
X86065476Y-10535714D01*
X86065476Y-10659523D01*
X86003571Y-10845238D01*
X85260714Y-11588095D01*
X86065476Y-11588095D01*
X135260714Y-10288095D02*
X136065476Y-10288095D01*
X135632142Y-10783333D01*
X135817857Y-10783333D01*
X135941666Y-10845238D01*
X136003571Y-10907142D01*
X136065476Y-11030952D01*
X136065476Y-11340476D01*
X136003571Y-11464285D01*
X135941666Y-11526190D01*
X135817857Y-11588095D01*
X135446428Y-11588095D01*
X135322619Y-11526190D01*
X135260714Y-11464285D01*
X185941666Y-10721428D02*
X185941666Y-11588095D01*
X185632142Y-10226190D02*
X185322619Y-11154761D01*
X186127380Y-11154761D01*
X236003571Y-10288095D02*
X235384523Y-10288095D01*
X235322619Y-10907142D01*
X235384523Y-10845238D01*
X235508333Y-10783333D01*
X235817857Y-10783333D01*
X235941666Y-10845238D01*
X236003571Y-10907142D01*
X236065476Y-11030952D01*
X236065476Y-11340476D01*
X236003571Y-11464285D01*
X235941666Y-11526190D01*
X235817857Y-11588095D01*
X235508333Y-11588095D01*
X235384523Y-11526190D01*
X235322619Y-11464285D01*
X285941666Y-10288095D02*
X285694047Y-10288095D01*
X285570238Y-10350000D01*
X285508333Y-10411904D01*
X285384523Y-10597619D01*
X285322619Y-10845238D01*
X285322619Y-11340476D01*
X285384523Y-11464285D01*
X285446428Y-11526190D01*
X285570238Y-11588095D01*
X285817857Y-11588095D01*
X285941666Y-11526190D01*
X286003571Y-11464285D01*
X286065476Y-11340476D01*
X286065476Y-11030952D01*
X286003571Y-10907142D01*
X285941666Y-10845238D01*
X285817857Y-10783333D01*
X285570238Y-10783333D01*
X285446428Y-10845238D01*
X285384523Y-10907142D01*
X285322619Y-11030952D01*
X60000000Y-198007200D02*
X60000000Y-200007200D01*
X110000000Y-198007200D02*
X110000000Y-200007200D01*
X160000000Y-198007200D02*
X160000000Y-200007200D01*
X210000000Y-198007200D02*
X210000000Y-200007200D01*
X260000000Y-198007200D02*
X260000000Y-200007200D01*
X36065476Y-199595295D02*
X35322619Y-199595295D01*
X35694047Y-199595295D02*
X35694047Y-198295295D01*
X35570238Y-198481009D01*
X35446428Y-198604819D01*
X35322619Y-198666723D01*
X85322619Y-198419104D02*
X85384523Y-198357200D01*
X85508333Y-198295295D01*
X85817857Y-198295295D01*
X85941666Y-198357200D01*
X86003571Y-198419104D01*
X86065476Y-198542914D01*
X86065476Y-198666723D01*
X86003571Y-198852438D01*
X85260714Y-199595295D01*
X86065476Y-199595295D01*
X135260714Y-198295295D02*
X136065476Y-198295295D01*
X135632142Y-198790533D01*
X135817857Y-198790533D01*
X135941666Y-198852438D01*
X136003571Y-198914342D01*
X136065476Y-199038152D01*
X136065476Y-199347676D01*
X136003571Y-199471485D01*
X135941666Y-199533390D01*
X135817857Y-199595295D01*
X135446428Y-199595295D01*
X135322619Y-199533390D01*
X135260714Y-199471485D01*
X185941666Y-198728628D02*
X185941666Y-199595295D01*
X185632142Y-198233390D02*
X185322619Y-199161961D01*
X186127380Y-199161961D01*
X236003571Y-198295295D02*
X235384523Y-198295295D01*
X235322619Y-198914342D01*
X235384523Y-198852438D01*
X235508333Y-198790533D01*
X235817857Y-198790533D01*
X235941666Y-198852438D01*
X236003571Y-198914342D01*
X236065476Y-199038152D01*
X236065476Y-199347676D01*
X236003571Y-199471485D01*
X235941666Y-199533390D01*
X235817857Y-199595295D01*
X235508333Y-199595295D01*
X235384523Y-199533390D01*
X235322619Y-199471485D01*
X285941666Y-198295295D02*
X285694047Y-198295295D01*
X285570238Y-198357200D01*
X285508333Y-198419104D01*
X285384523Y-198604819D01*
X285322619Y-198852438D01*
X285322619Y-199347676D01*
X285384523Y-199471485D01*
X285446428Y-199533390D01*
X285570238Y-199595295D01*
X285817857Y-199595295D01*
X285941666Y-199533390D01*
X286003571Y-199471485D01*
X286065476Y-199347676D01*
X286065476Y-199038152D01*
X286003571Y-198914342D01*
X285941666Y-198852438D01*
X285817857Y-198790533D01*
X285570238Y-198790533D01*
X285446428Y-198852438D01*
X285384523Y-198914342D01*
X285322619Y-199038152D01*
X10000000Y-60000000D02*
X12000000Y-60000000D01*
X10000000Y-110000000D02*
X12000000Y-110000000D01*
X10000000Y-160000000D02*
X12000000Y-160000000D01*
X10690476Y-35216666D02*
X11309523Y-35216666D01*
X10566666Y-35588095D02*
X11000000Y-34288095D01*
X11433333Y-35588095D01*
X11092857Y-84907142D02*
X11278571Y-84969047D01*
X11340476Y-85030952D01*
X11402380Y-85154761D01*
X11402380Y-85340476D01*
X11340476Y-85464285D01*
X11278571Y-85526190D01*
X11154761Y-85588095D01*
X10659523Y-85588095D01*
X10659523Y-84288095D01*
X11092857Y-84288095D01*
X11216666Y-84350000D01*
X11278571Y-84411904D01*
X11340476Y-84535714D01*
X11340476Y-84659523D01*
X11278571Y-84783333D01*
X11216666Y-84845238D01*
X11092857Y-84907142D01*
X10659523Y-84907142D01*
X11402380Y-135464285D02*
X11340476Y-135526190D01*
X11154761Y-135588095D01*
X11030952Y-135588095D01*
X10845238Y-135526190D01*
X10721428Y-135402380D01*
X10659523Y-135278571D01*
X10597619Y-135030952D01*
X10597619Y-134845238D01*
X10659523Y-134597619D01*
X10721428Y-134473809D01*
X10845238Y-134350000D01*
X11030952Y-134288095D01*
X11154761Y-134288095D01*
X11340476Y-134350000D01*
X11402380Y-134411904D01*
X10659523Y-185588095D02*
X10659523Y-184288095D01*
X10969047Y-184288095D01*
X11154761Y-184350000D01*
X11278571Y-184473809D01*
X11340476Y-184597619D01*
X11402380Y-184845238D01*
X11402380Y-185030952D01*
X11340476Y-185278571D01*
X11278571Y-185402380D01*
X11154761Y-185526190D01*
X10969047Y-185588095D01*
X10659523Y-185588095D01*
X287002200Y-60000000D02*
X285002200Y-60000000D01*
X287002200Y-110000000D02*
X285002200Y-110000000D01*
X287002200Y-160000000D02*
X285002200Y-160000000D01*
X285692676Y-35216666D02*
X286311723Y-35216666D01*
X285568866Y-35588095D02*
X286002200Y-34288095D01*
X286435533Y-35588095D01*
X286095057Y-84907142D02*
X286280771Y-84969047D01*
X286342676Y-85030952D01*
X286404580Y-85154761D01*
X286404580Y-85340476D01*
X286342676Y-85464285D01*
X286280771Y-85526190D01*
X286156961Y-85588095D01*
X285661723Y-85588095D01*
X285661723Y-84288095D01*
X286095057Y-84288095D01*
X286218866Y-84350000D01*
X286280771Y-84411904D01*
X286342676Y-84535714D01*
X286342676Y-84659523D01*
X286280771Y-84783333D01*
X286218866Y-84845238D01*
X286095057Y-84907142D01*
X285661723Y-84907142D01*
X286404580Y-135464285D02*
X286342676Y-135526190D01*
X286156961Y-135588095D01*
X286033152Y-135588095D01*
X285847438Y-135526190D01*
X285723628Y-135402380D01*
X285661723Y-135278571D01*
X285599819Y-135030952D01*
X285599819Y-134845238D01*
X285661723Y-134597619D01*
X285723628Y-134473809D01*
X285847438Y-134350000D01*
X286033152Y-134288095D01*
X286156961Y-134288095D01*
X286342676Y-134350000D01*
X286404580Y-134411904D01*
X285661723Y-185588095D02*
X285661723Y-184288095D01*
X285971247Y-184288095D01*
X286156961Y-184350000D01*
X286280771Y-184473809D01*
X286342676Y-184597619D01*
X286404580Y-184845238D01*
X286404580Y-185030952D01*
X286342676Y-185278571D01*
X286280771Y-185402380D01*
X286156961Y-185526190D01*
X285971247Y-185588095D01*
X285661723Y-185588095D01*
X200434342Y-193785771D02*
X200434342Y-192285771D01*
X200791485Y-192285771D01*
X201005771Y-192357200D01*
X201148628Y-192500057D01*
X201220057Y-192642914D01*
X201291485Y-192928628D01*
X201291485Y-193142914D01*
X201220057Y-193428628D01*
X201148628Y-193571485D01*
X201005771Y-193714342D01*
X200791485Y-193785771D01*
X200434342Y-193785771D01*
X202577200Y-193785771D02*
X202577200Y-193000057D01*
X202505771Y-192857200D01*
X202362914Y-192785771D01*
X202077200Y-192785771D01*
X201934342Y-192857200D01*
X202577200Y-193714342D02*
X202434342Y-193785771D01*
X202077200Y-193785771D01*
X201934342Y-193714342D01*
X201862914Y-193571485D01*
X201862914Y-193428628D01*
X201934342Y-193285771D01*
X202077200Y-193214342D01*
X202434342Y-193214342D01*
X202577200Y-193142914D01*
X203077200Y-192785771D02*
X203648628Y-192785771D01*
X203291485Y-192285771D02*
X203291485Y-193571485D01*
X203362914Y-193714342D01*
X203505771Y-193785771D01*
X203648628Y-193785771D01*
X204720057Y-193714342D02*
X204577200Y-193785771D01*
X204291485Y-193785771D01*
X204148628Y-193714342D01*
X204077200Y-193571485D01*
X204077200Y-193000057D01*
X204148628Y-192857200D01*
X204291485Y-192785771D01*
X204577200Y-192785771D01*
X204720057Y-192857200D01*
X204791485Y-193000057D01*
X204791485Y-193142914D01*
X204077200Y-193285771D01*
X205434342Y-193642914D02*
X205505771Y-193714342D01*
X205434342Y-193785771D01*
X205362914Y-193714342D01*
X205434342Y-193642914D01*
X205434342Y-193785771D01*
X205434342Y-192857200D02*
X205505771Y-192928628D01*
X205434342Y-193000057D01*
X205362914Y-192928628D01*
X205434342Y-192857200D01*
X205434342Y-193000057D01*
X207220057Y-192428628D02*
X207291485Y-192357200D01*
X207434342Y-192285771D01*
X207791485Y-192285771D01*
X207934342Y-192357200D01*
X208005771Y-192428628D01*
X208077200Y-192571485D01*
X208077200Y-192714342D01*
X208005771Y-192928628D01*
X207148628Y-193785771D01*
X208077200Y-193785771D01*
X209005771Y-192285771D02*
X209148628Y-192285771D01*
X209291485Y-192357200D01*
X209362914Y-192428628D01*
X209434342Y-192571485D01*
X209505771Y-192857200D01*
X209505771Y-193214342D01*
X209434342Y-193500057D01*
X209362914Y-193642914D01*
X209291485Y-193714342D01*
X209148628Y-193785771D01*
X209005771Y-193785771D01*
X208862914Y-193714342D01*
X208791485Y-193642914D01*
X208720057Y-193500057D01*
X208648628Y-193214342D01*
X208648628Y-192857200D01*
X208720057Y-192571485D01*
X208791485Y-192428628D01*
X208862914Y-192357200D01*
X209005771Y-192285771D01*
X211505771Y-193785771D02*
X211362914Y-193714342D01*
X211291485Y-193642914D01*
X211220057Y-193500057D01*
X211220057Y-193071485D01*
X211291485Y-192928628D01*
X211362914Y-192857200D01*
X211505771Y-192785771D01*
X211720057Y-192785771D01*
X211862914Y-192857200D01*
X211934342Y-192928628D01*
X212005771Y-193071485D01*
X212005771Y-193500057D01*
X211934342Y-193642914D01*
X211862914Y-193714342D01*
X211720057Y-193785771D01*
X211505771Y-193785771D01*
X212648628Y-193785771D02*
X212648628Y-192285771D01*
X212791485Y-193214342D02*
X213220057Y-193785771D01*
X213220057Y-192785771D02*
X212648628Y-193357200D01*
X213648628Y-192785771D02*
X214220057Y-192785771D01*
X213862914Y-192285771D02*
X213862914Y-193571485D01*
X213934342Y-193714342D01*
X214077200Y-193785771D01*
X214220057Y-193785771D01*
X215791485Y-192428628D02*
X215862914Y-192357200D01*
X216005771Y-192285771D01*
X216362914Y-192285771D01*
X216505771Y-192357200D01*
X216577200Y-192428628D01*
X216648628Y-192571485D01*
X216648628Y-192714342D01*
X216577200Y-192928628D01*
X215720057Y-193785771D01*
X216648628Y-193785771D01*
X217577200Y-192285771D02*
X217720057Y-192285771D01*
X217862914Y-192357200D01*
X217934342Y-192428628D01*
X218005771Y-192571485D01*
X218077200Y-192857200D01*
X218077200Y-193214342D01*
X218005771Y-193500057D01*
X217934342Y-193642914D01*
X217862914Y-193714342D01*
X217720057Y-193785771D01*
X217577200Y-193785771D01*
X217434342Y-193714342D01*
X217362914Y-193642914D01*
X217291485Y-193500057D01*
X217220057Y-193214342D01*
X217220057Y-192857200D01*
X217291485Y-192571485D01*
X217362914Y-192428628D01*
X217434342Y-192357200D01*
X217577200Y-192285771D01*
X219505771Y-193785771D02*
X218648628Y-193785771D01*
X219077200Y-193785771D02*
X219077200Y-192285771D01*
X218934342Y-192500057D01*
X218791485Y-192642914D01*
X218648628Y-192714342D01*
X220791485Y-192785771D02*
X220791485Y-193785771D01*
X220434342Y-192214342D02*
X220077200Y-193285771D01*
X221005771Y-193285771D01*
X177002200Y-194507200D02*
X285002200Y-194507200D01*
X178434342Y-196585771D02*
X178434342Y-195085771D01*
X179291485Y-196585771D02*
X178648628Y-195728628D01*
X179291485Y-195085771D02*
X178434342Y-195942914D01*
X179934342Y-196585771D02*
X179934342Y-195585771D01*
X179934342Y-195085771D02*
X179862914Y-195157200D01*
X179934342Y-195228628D01*
X180005771Y-195157200D01*
X179934342Y-195085771D01*
X179934342Y-195228628D01*
X181505771Y-196442914D02*
X181434342Y-196514342D01*
X181220057Y-196585771D01*
X181077200Y-196585771D01*
X180862914Y-196514342D01*
X180720057Y-196371485D01*
X180648628Y-196228628D01*
X180577200Y-195942914D01*
X180577200Y-195728628D01*
X180648628Y-195442914D01*
X180720057Y-195300057D01*
X180862914Y-195157200D01*
X181077200Y-195085771D01*
X181220057Y-195085771D01*
X181434342Y-195157200D01*
X181505771Y-195228628D01*
X182791485Y-196585771D02*
X182791485Y-195800057D01*
X182720057Y-195657200D01*
X182577200Y-195585771D01*
X182291485Y-195585771D01*
X182148628Y-195657200D01*
X182791485Y-196514342D02*
X182648628Y-196585771D01*
X182291485Y-196585771D01*
X182148628Y-196514342D01*
X182077200Y-196371485D01*
X182077200Y-196228628D01*
X182148628Y-196085771D01*
X182291485Y-196014342D01*
X182648628Y-196014342D01*
X182791485Y-195942914D01*
X184148628Y-196585771D02*
X184148628Y-195085771D01*
X184148628Y-196514342D02*
X184005771Y-196585771D01*
X183720057Y-196585771D01*
X183577200Y-196514342D01*
X183505771Y-196442914D01*
X183434342Y-196300057D01*
X183434342Y-195871485D01*
X183505771Y-195728628D01*
X183577200Y-195657200D01*
X183720057Y-195585771D01*
X184005771Y-195585771D01*
X184148628Y-195657200D01*
X186005771Y-195800057D02*
X186505771Y-195800057D01*
X186720057Y-196585771D02*
X186005771Y-196585771D01*
X186005771Y-195085771D01*
X186720057Y-195085771D01*
X187362914Y-196442914D02*
X187434342Y-196514342D01*
X187362914Y-196585771D01*
X187291485Y-196514342D01*
X187362914Y-196442914D01*
X187362914Y-196585771D01*
X188077200Y-196585771D02*
X188077200Y-195085771D01*
X188434342Y-195085771D01*
X188648628Y-195157200D01*
X188791485Y-195300057D01*
X188862914Y-195442914D01*
X188934342Y-195728628D01*
X188934342Y-195942914D01*
X188862914Y-196228628D01*
X188791485Y-196371485D01*
X188648628Y-196514342D01*
X188434342Y-196585771D01*
X188077200Y-196585771D01*
X189577200Y-196442914D02*
X189648628Y-196514342D01*
X189577200Y-196585771D01*
X189505771Y-196514342D01*
X189577200Y-196442914D01*
X189577200Y-196585771D01*
X190220057Y-196157200D02*
X190934342Y-196157200D01*
X190077200Y-196585771D02*
X190577200Y-195085771D01*
X191077200Y-196585771D01*
X191577200Y-196442914D02*
X191648628Y-196514342D01*
X191577200Y-196585771D01*
X191505771Y-196514342D01*
X191577200Y-196442914D01*
X191577200Y-196585771D01*
X194577200Y-196585771D02*
X194577200Y-195085771D01*
X194720057Y-196014342D02*
X195148628Y-196585771D01*
X195148628Y-195585771D02*
X194577200Y-196157200D01*
X195791485Y-196585771D02*
X195791485Y-195585771D01*
X195791485Y-195085771D02*
X195720057Y-195157200D01*
X195791485Y-195228628D01*
X195862914Y-195157200D01*
X195791485Y-195085771D01*
X195791485Y-195228628D01*
X197148628Y-196514342D02*
X197005771Y-196585771D01*
X196720057Y-196585771D01*
X196577200Y-196514342D01*
X196505771Y-196442914D01*
X196434342Y-196300057D01*
X196434342Y-195871485D01*
X196505771Y-195728628D01*
X196577200Y-195657200D01*
X196720057Y-195585771D01*
X197005771Y-195585771D01*
X197148628Y-195657200D01*
X198434342Y-196585771D02*
X198434342Y-195800057D01*
X198362914Y-195657200D01*
X198220057Y-195585771D01*
X197934342Y-195585771D01*
X197791485Y-195657200D01*
X198434342Y-196514342D02*
X198291485Y-196585771D01*
X197934342Y-196585771D01*
X197791485Y-196514342D01*
X197720057Y-196371485D01*
X197720057Y-196228628D01*
X197791485Y-196085771D01*
X197934342Y-196014342D01*
X198291485Y-196014342D01*
X198434342Y-195942914D01*
X199791485Y-196585771D02*
X199791485Y-195085771D01*
X199791485Y-196514342D02*
X199648628Y-196585771D01*
X199362914Y-196585771D01*
X199220057Y-196514342D01*
X199148628Y-196442914D01*
X199077200Y-196300057D01*
X199077200Y-195871485D01*
X199148628Y-195728628D01*
X199220057Y-195657200D01*
X199362914Y-195585771D01*
X199648628Y-195585771D01*
X199791485Y-195657200D01*
X202077200Y-197157200D02*
X202005771Y-197085771D01*
X201862914Y-196871485D01*
X201791485Y-196728628D01*
X201720057Y-196514342D01*
X201648628Y-196157200D01*
X201648628Y-195871485D01*
X201720057Y-195514342D01*
X201791485Y-195300057D01*
X201862914Y-195157200D01*
X202005771Y-194942914D01*
X202077200Y-194871485D01*
X203362914Y-195085771D02*
X202648628Y-195085771D01*
X202577200Y-195800057D01*
X202648628Y-195728628D01*
X202791485Y-195657200D01*
X203148628Y-195657200D01*
X203291485Y-195728628D01*
X203362914Y-195800057D01*
X203434342Y-195942914D01*
X203434342Y-196300057D01*
X203362914Y-196442914D01*
X203291485Y-196514342D01*
X203148628Y-196585771D01*
X202791485Y-196585771D01*
X202648628Y-196514342D01*
X202577200Y-196442914D01*
X204077200Y-196442914D02*
X204148628Y-196514342D01*
X204077200Y-196585771D01*
X204005771Y-196514342D01*
X204077200Y-196442914D01*
X204077200Y-196585771D01*
X205577200Y-196585771D02*
X204720057Y-196585771D01*
X205148628Y-196585771D02*
X205148628Y-195085771D01*
X205005771Y-195300057D01*
X204862914Y-195442914D01*
X204720057Y-195514342D01*
X206220057Y-196442914D02*
X206291485Y-196514342D01*
X206220057Y-196585771D01*
X206148628Y-196514342D01*
X206220057Y-196442914D01*
X206220057Y-196585771D01*
X207577200Y-195085771D02*
X207291485Y-195085771D01*
X207148628Y-195157200D01*
X207077200Y-195228628D01*
X206934342Y-195442914D01*
X206862914Y-195728628D01*
X206862914Y-196300057D01*
X206934342Y-196442914D01*
X207005771Y-196514342D01*
X207148628Y-196585771D01*
X207434342Y-196585771D01*
X207577200Y-196514342D01*
X207648628Y-196442914D01*
X207720057Y-196300057D01*
X207720057Y-195942914D01*
X207648628Y-195800057D01*
X207577200Y-195728628D01*
X207434342Y-195657200D01*
X207148628Y-195657200D01*
X207005771Y-195728628D01*
X206934342Y-195800057D01*
X206862914Y-195942914D01*
X208362914Y-196014342D02*
X209505771Y-196014342D01*
X210505771Y-195085771D02*
X210648628Y-195085771D01*
X210791485Y-195157200D01*
X210862914Y-195228628D01*
X210934342Y-195371485D01*
X211005771Y-195657200D01*
X211005771Y-196014342D01*
X210934342Y-196300057D01*
X210862914Y-196442914D01*
X210791485Y-196514342D01*
X210648628Y-196585771D01*
X210505771Y-196585771D01*
X210362914Y-196514342D01*
X210291485Y-196442914D01*
X210220057Y-196300057D01*
X210148628Y-196014342D01*
X210148628Y-195657200D01*
X210220057Y-195371485D01*
X210291485Y-195228628D01*
X210362914Y-195157200D01*
X210505771Y-195085771D01*
X211648628Y-196014342D02*
X212791485Y-196014342D01*
X214291485Y-196585771D02*
X213434342Y-196585771D01*
X213862914Y-196585771D02*
X213862914Y-195085771D01*
X213720057Y-195300057D01*
X213577200Y-195442914D01*
X213434342Y-195514342D01*
X215220057Y-195085771D02*
X215362914Y-195085771D01*
X215505771Y-195157200D01*
X215577200Y-195228628D01*
X215648628Y-195371485D01*
X215720057Y-195657200D01*
X215720057Y-196014342D01*
X215648628Y-196300057D01*
X215577200Y-196442914D01*
X215505771Y-196514342D01*
X215362914Y-196585771D01*
X215220057Y-196585771D01*
X215077200Y-196514342D01*
X215005771Y-196442914D01*
X214934342Y-196300057D01*
X214862914Y-196014342D01*
X214862914Y-195657200D01*
X214934342Y-195371485D01*
X215005771Y-195228628D01*
X215077200Y-195157200D01*
X215220057Y-195085771D01*
X216005771Y-196728628D02*
X217148628Y-196728628D01*
X218291485Y-196585771D02*
X217434342Y-196585771D01*
X217862914Y-196585771D02*
X217862914Y-195085771D01*
X217720057Y-195300057D01*
X217577200Y-195442914D01*
X217434342Y-195514342D01*
X219577200Y-195585771D02*
X219577200Y-196585771D01*
X219220057Y-195014342D02*
X218862914Y-196085771D01*
X219791485Y-196085771D01*
X220220057Y-197157200D02*
X220291485Y-197085771D01*
X220434342Y-196871485D01*
X220505771Y-196728628D01*
X220577200Y-196514342D01*
X220648628Y-196157200D01*
X220648628Y-195871485D01*
X220577200Y-195514342D01*
X220505771Y-195300057D01*
X220434342Y-195157200D01*
X220291485Y-194942914D01*
X220220057Y-194871485D01*
X177002200Y-191507200D02*
X285002200Y-191507200D01*
D11*
X264411485Y-193785771D02*
X263911485Y-193071485D01*
X263554342Y-193785771D02*
X263554342Y-192285771D01*
X264125771Y-192285771D01*
X264268628Y-192357200D01*
X264340057Y-192428628D01*
X264411485Y-192571485D01*
X264411485Y-192785771D01*
X264340057Y-192928628D01*
X264268628Y-193000057D01*
X264125771Y-193071485D01*
X263554342Y-193071485D01*
X265625771Y-193714342D02*
X265482914Y-193785771D01*
X265197200Y-193785771D01*
X265054342Y-193714342D01*
X264982914Y-193571485D01*
X264982914Y-193000057D01*
X265054342Y-192857200D01*
X265197200Y-192785771D01*
X265482914Y-192785771D01*
X265625771Y-192857200D01*
X265697200Y-193000057D01*
X265697200Y-193142914D01*
X264982914Y-193285771D01*
X266197200Y-192785771D02*
X266554342Y-193785771D01*
X266911485Y-192785771D01*
X267482914Y-193642914D02*
X267554342Y-193714342D01*
X267482914Y-193785771D01*
X267411485Y-193714342D01*
X267482914Y-193642914D01*
X267482914Y-193785771D01*
X267482914Y-192857200D02*
X267554342Y-192928628D01*
X267482914Y-193000057D01*
X267411485Y-192928628D01*
X267482914Y-192857200D01*
X267482914Y-193000057D01*
X269268628Y-193357200D02*
X269982914Y-193357200D01*
X269125771Y-193785771D02*
X269625771Y-192285771D01*
X270125771Y-193785771D01*
D10*
X178362914Y-193714342D02*
X178577200Y-193785771D01*
X178934342Y-193785771D01*
X179077200Y-193714342D01*
X179148628Y-193642914D01*
X179220057Y-193500057D01*
X179220057Y-193357200D01*
X179148628Y-193214342D01*
X179077200Y-193142914D01*
X178934342Y-193071485D01*
X178648628Y-193000057D01*
X178505771Y-192928628D01*
X178434342Y-192857200D01*
X178362914Y-192714342D01*
X178362914Y-192571485D01*
X178434342Y-192428628D01*
X178505771Y-192357200D01*
X178648628Y-192285771D01*
X179005771Y-192285771D01*
X179220057Y-192357200D01*
X179862914Y-193785771D02*
X179862914Y-192785771D01*
X179862914Y-192285771D02*
X179791485Y-192357200D01*
X179862914Y-192428628D01*
X179934342Y-192357200D01*
X179862914Y-192285771D01*
X179862914Y-192428628D01*
X180434342Y-192785771D02*
X181220057Y-192785771D01*
X180434342Y-193785771D01*
X181220057Y-193785771D01*
X182362914Y-193714342D02*
X182220057Y-193785771D01*
X181934342Y-193785771D01*
X181791485Y-193714342D01*
X181720057Y-193571485D01*
X181720057Y-193000057D01*
X181791485Y-192857200D01*
X181934342Y-192785771D01*
X182220057Y-192785771D01*
X182362914Y-192857200D01*
X182434342Y-193000057D01*
X182434342Y-193142914D01*
X181720057Y-193285771D01*
X183077200Y-193642914D02*
X183148628Y-193714342D01*
X183077200Y-193785771D01*
X183005771Y-193714342D01*
X183077200Y-193642914D01*
X183077200Y-193785771D01*
X183077200Y-192857200D02*
X183148628Y-192928628D01*
X183077200Y-193000057D01*
X183005771Y-192928628D01*
X183077200Y-192857200D01*
X183077200Y-193000057D01*
X184862914Y-193357200D02*
X185577200Y-193357200D01*
X184720057Y-193785771D02*
X185220057Y-192285771D01*
X185720057Y-193785771D01*
X186862914Y-192785771D02*
X186862914Y-193785771D01*
X186505771Y-192214342D02*
X186148628Y-193285771D01*
X187077200Y-193285771D01*
X263434342Y-196585771D02*
X263434342Y-195085771D01*
X264791485Y-196585771D02*
X264791485Y-195085771D01*
X264791485Y-196514342D02*
X264648628Y-196585771D01*
X264362914Y-196585771D01*
X264220057Y-196514342D01*
X264148628Y-196442914D01*
X264077200Y-196300057D01*
X264077200Y-195871485D01*
X264148628Y-195728628D01*
X264220057Y-195657200D01*
X264362914Y-195585771D01*
X264648628Y-195585771D01*
X264791485Y-195657200D01*
X265505771Y-196442914D02*
X265577200Y-196514342D01*
X265505771Y-196585771D01*
X265434342Y-196514342D01*
X265505771Y-196442914D01*
X265505771Y-196585771D01*
X265505771Y-195657200D02*
X265577200Y-195728628D01*
X265505771Y-195800057D01*
X265434342Y-195728628D01*
X265505771Y-195657200D01*
X265505771Y-195800057D01*
X268148628Y-196585771D02*
X267291485Y-196585771D01*
X267720057Y-196585771D02*
X267720057Y-195085771D01*
X267577200Y-195300057D01*
X267434342Y-195442914D01*
X267291485Y-195514342D01*
X269862914Y-195014342D02*
X268577200Y-196942914D01*
X271148628Y-196585771D02*
X270291485Y-196585771D01*
X270720057Y-196585771D02*
X270720057Y-195085771D01*
X270577200Y-195300057D01*
X270434342Y-195442914D01*
X270291485Y-195514342D01*
X177002200Y-187507200D02*
X285002200Y-187507200D01*
D12*
X178714580Y-188211961D02*
X179857438Y-188211961D01*
X179036009Y-190211961D02*
X179286009Y-188211961D01*
X180274104Y-190211961D02*
X180440771Y-188878628D01*
X180524104Y-188211961D02*
X180416961Y-188307200D01*
X180500295Y-188402438D01*
X180607438Y-188307200D01*
X180524104Y-188211961D01*
X180500295Y-188402438D01*
X181107438Y-188878628D02*
X181869342Y-188878628D01*
X181476485Y-188211961D02*
X181262200Y-189926247D01*
X181333628Y-190116723D01*
X181512200Y-190211961D01*
X181702676Y-190211961D01*
X182655057Y-190211961D02*
X182476485Y-190116723D01*
X182405057Y-189926247D01*
X182619342Y-188211961D01*
X184190771Y-190116723D02*
X183988390Y-190211961D01*
X183607438Y-190211961D01*
X183428866Y-190116723D01*
X183357438Y-189926247D01*
X183452676Y-189164342D01*
X183571723Y-188973866D01*
X183774104Y-188878628D01*
X184155057Y-188878628D01*
X184333628Y-188973866D01*
X184405057Y-189164342D01*
X184381247Y-189354819D01*
X183405057Y-189545295D01*
X185155057Y-190021485D02*
X185238390Y-190116723D01*
X185131247Y-190211961D01*
X185047914Y-190116723D01*
X185155057Y-190021485D01*
X185131247Y-190211961D01*
X185286009Y-188973866D02*
X185369342Y-189069104D01*
X185262200Y-189164342D01*
X185178866Y-189069104D01*
X185286009Y-188973866D01*
X185262200Y-189164342D01*
X188774104Y-190021485D02*
X188666961Y-190116723D01*
X188369342Y-190211961D01*
X188178866Y-190211961D01*
X187905057Y-190116723D01*
X187738390Y-189926247D01*
X187666961Y-189735771D01*
X187619342Y-189354819D01*
X187655057Y-189069104D01*
X187797914Y-188688152D01*
X187916961Y-188497676D01*
X188131247Y-188307200D01*
X188428866Y-188211961D01*
X188619342Y-188211961D01*
X188893152Y-188307200D01*
X188976485Y-188402438D01*
X189607438Y-190211961D02*
X189774104Y-188878628D01*
X189726485Y-189259580D02*
X189845533Y-189069104D01*
X189952676Y-188973866D01*
X190155057Y-188878628D01*
X190345533Y-188878628D01*
X191702676Y-190211961D02*
X191833628Y-189164342D01*
X191762200Y-188973866D01*
X191583628Y-188878628D01*
X191202676Y-188878628D01*
X191000295Y-188973866D01*
X191714580Y-190116723D02*
X191512200Y-190211961D01*
X191036009Y-190211961D01*
X190857438Y-190116723D01*
X190786009Y-189926247D01*
X190809819Y-189735771D01*
X190928866Y-189545295D01*
X191131247Y-189450057D01*
X191607438Y-189450057D01*
X191809819Y-189354819D01*
X192631247Y-188878628D02*
X193678866Y-188878628D01*
X192464580Y-190211961D01*
X193512200Y-190211961D01*
X194250295Y-188878628D02*
X194559819Y-190211961D01*
X195202676Y-188878628D02*
X194559819Y-190211961D01*
X194309819Y-190688152D01*
X194202676Y-190783390D01*
X194000295Y-190878628D01*
X195678866Y-188878628D02*
X196440771Y-188878628D01*
X195797914Y-190211961D02*
X196012200Y-188497676D01*
X196131247Y-188307200D01*
X196333628Y-188211961D01*
X196524104Y-188211961D01*
X197226485Y-190211961D02*
X197047914Y-190116723D01*
X196976485Y-189926247D01*
X197190771Y-188211961D01*
X197988390Y-190211961D02*
X198155057Y-188878628D01*
X198238390Y-188211961D02*
X198131247Y-188307200D01*
X198214580Y-188402438D01*
X198321723Y-188307200D01*
X198238390Y-188211961D01*
X198214580Y-188402438D01*
X199714580Y-190116723D02*
X199512200Y-190211961D01*
X199131247Y-190211961D01*
X198952676Y-190116723D01*
X198881247Y-189926247D01*
X198976485Y-189164342D01*
X199095533Y-188973866D01*
X199297914Y-188878628D01*
X199678866Y-188878628D01*
X199857438Y-188973866D01*
X199928866Y-189164342D01*
X199905057Y-189354819D01*
X198928866Y-189545295D01*
X202309819Y-188402438D02*
X202416961Y-188307200D01*
X202619342Y-188211961D01*
X203095533Y-188211961D01*
X203274104Y-188307200D01*
X203357438Y-188402438D01*
X203428866Y-188592914D01*
X203405057Y-188783390D01*
X203274104Y-189069104D01*
X201988390Y-190211961D01*
X203226485Y-190211961D01*
X204107438Y-190021485D02*
X204190771Y-190116723D01*
X204083628Y-190211961D01*
X204000295Y-190116723D01*
X204107438Y-190021485D01*
X204083628Y-190211961D01*
X205666961Y-188211961D02*
X205857438Y-188211961D01*
X206036009Y-188307200D01*
X206119342Y-188402438D01*
X206190771Y-188592914D01*
X206238390Y-188973866D01*
X206178866Y-189450057D01*
X206036009Y-189831009D01*
X205916961Y-190021485D01*
X205809819Y-190116723D01*
X205607438Y-190211961D01*
X205416961Y-190211961D01*
X205238390Y-190116723D01*
X205155057Y-190021485D01*
X205083628Y-189831009D01*
X205036009Y-189450057D01*
X205095533Y-188973866D01*
X205238390Y-188592914D01*
X205357438Y-188402438D01*
X205464580Y-188307200D01*
X205666961Y-188211961D01*
X209238390Y-190116723D02*
X209036009Y-190211961D01*
X208655057Y-190211961D01*
X208476485Y-190116723D01*
X208405057Y-189926247D01*
X208500295Y-189164342D01*
X208619342Y-188973866D01*
X208821723Y-188878628D01*
X209202676Y-188878628D01*
X209381247Y-188973866D01*
X209452676Y-189164342D01*
X209428866Y-189354819D01*
X208452676Y-189545295D01*
X209988390Y-190211961D02*
X211202676Y-188878628D01*
X210155057Y-188878628D02*
X211036009Y-190211961D01*
X211964580Y-188878628D02*
X211714580Y-190878628D01*
X211952676Y-188973866D02*
X212155057Y-188878628D01*
X212536009Y-188878628D01*
X212714580Y-188973866D01*
X212797914Y-189069104D01*
X212869342Y-189259580D01*
X212797914Y-189831009D01*
X212678866Y-190021485D01*
X212571723Y-190116723D01*
X212369342Y-190211961D01*
X211988390Y-190211961D01*
X211809819Y-190116723D01*
X214464580Y-190211961D02*
X214595533Y-189164342D01*
X214524104Y-188973866D01*
X214345533Y-188878628D01*
X213964580Y-188878628D01*
X213762200Y-188973866D01*
X214476485Y-190116723D02*
X214274104Y-190211961D01*
X213797914Y-190211961D01*
X213619342Y-190116723D01*
X213547914Y-189926247D01*
X213571723Y-189735771D01*
X213690771Y-189545295D01*
X213893152Y-189450057D01*
X214369342Y-189450057D01*
X214571723Y-189354819D01*
X215583628Y-188878628D02*
X215416961Y-190211961D01*
X215559819Y-189069104D02*
X215666961Y-188973866D01*
X215869342Y-188878628D01*
X216155057Y-188878628D01*
X216333628Y-188973866D01*
X216405057Y-189164342D01*
X216274104Y-190211961D01*
X217143152Y-190116723D02*
X217321723Y-190211961D01*
X217702676Y-190211961D01*
X217905057Y-190116723D01*
X218024104Y-189926247D01*
X218036009Y-189831009D01*
X217964580Y-189640533D01*
X217786009Y-189545295D01*
X217500295Y-189545295D01*
X217321723Y-189450057D01*
X217250295Y-189259580D01*
X217262199Y-189164342D01*
X217381247Y-188973866D01*
X217583628Y-188878628D01*
X217869342Y-188878628D01*
X218047914Y-188973866D01*
X218845533Y-190211961D02*
X219012199Y-188878628D01*
X219095533Y-188211961D02*
X218988390Y-188307200D01*
X219071723Y-188402438D01*
X219178866Y-188307200D01*
X219095533Y-188211961D01*
X219071723Y-188402438D01*
X220083628Y-190211961D02*
X219905057Y-190116723D01*
X219821723Y-190021485D01*
X219750295Y-189831009D01*
X219821723Y-189259580D01*
X219940771Y-189069104D01*
X220047914Y-188973866D01*
X220250295Y-188878628D01*
X220536009Y-188878628D01*
X220714580Y-188973866D01*
X220797914Y-189069104D01*
X220869342Y-189259580D01*
X220797914Y-189831009D01*
X220678866Y-190021485D01*
X220571723Y-190116723D01*
X220369342Y-190211961D01*
X220083628Y-190211961D01*
X221774104Y-188878628D02*
X221607438Y-190211961D01*
X221750295Y-189069104D02*
X221857438Y-188973866D01*
X222059819Y-188878628D01*
X222345533Y-188878628D01*
X222524104Y-188973866D01*
X222595533Y-189164342D01*
X222464580Y-190211961D01*
X224821723Y-188878628D02*
X225583628Y-188878628D01*
X225190771Y-188211961D02*
X224976485Y-189926247D01*
X225047914Y-190116723D01*
X225226485Y-190211961D01*
X225416961Y-190211961D01*
X226857438Y-190116723D02*
X226655057Y-190211961D01*
X226274104Y-190211961D01*
X226095533Y-190116723D01*
X226024104Y-189926247D01*
X226119342Y-189164342D01*
X226238390Y-188973866D01*
X226440771Y-188878628D01*
X226821723Y-188878628D01*
X227000295Y-188973866D01*
X227071723Y-189164342D01*
X227047914Y-189354819D01*
X226071723Y-189545295D01*
X227797914Y-190211961D02*
X227964580Y-188878628D01*
X227940771Y-189069104D02*
X228047914Y-188973866D01*
X228250295Y-188878628D01*
X228536009Y-188878628D01*
X228714580Y-188973866D01*
X228786009Y-189164342D01*
X228655057Y-190211961D01*
X228786009Y-189164342D02*
X228905057Y-188973866D01*
X229107438Y-188878628D01*
X229393152Y-188878628D01*
X229571723Y-188973866D01*
X229643152Y-189164342D01*
X229512199Y-190211961D01*
X230631247Y-188878628D02*
X230381247Y-190878628D01*
X230619342Y-188973866D02*
X230821723Y-188878628D01*
X231202676Y-188878628D01*
X231381247Y-188973866D01*
X231464580Y-189069104D01*
X231536009Y-189259580D01*
X231464580Y-189831009D01*
X231345533Y-190021485D01*
X231238390Y-190116723D01*
X231036009Y-190211961D01*
X230655057Y-190211961D01*
X230476485Y-190116723D01*
X232559819Y-190211961D02*
X232381247Y-190116723D01*
X232309819Y-189926247D01*
X232524104Y-188211961D01*
X234178866Y-190211961D02*
X234309819Y-189164342D01*
X234238390Y-188973866D01*
X234059819Y-188878628D01*
X233678866Y-188878628D01*
X233476485Y-188973866D01*
X234190771Y-190116723D02*
X233988390Y-190211961D01*
X233512199Y-190211961D01*
X233333628Y-190116723D01*
X233262199Y-189926247D01*
X233286009Y-189735771D01*
X233405057Y-189545295D01*
X233607438Y-189450057D01*
X234083628Y-189450057D01*
X234286009Y-189354819D01*
X235012199Y-188878628D02*
X235774104Y-188878628D01*
X235381247Y-188211961D02*
X235166961Y-189926247D01*
X235238390Y-190116723D01*
X235416961Y-190211961D01*
X235607438Y-190211961D01*
X237047914Y-190116723D02*
X236845533Y-190211961D01*
X236464580Y-190211961D01*
X236286009Y-190116723D01*
X236214580Y-189926247D01*
X236309819Y-189164342D01*
X236428866Y-188973866D01*
X236631247Y-188878628D01*
X237012199Y-188878628D01*
X237190771Y-188973866D01*
X237262199Y-189164342D01*
X237238390Y-189354819D01*
X236262199Y-189545295D01*
D10*
X178934342Y-185600057D02*
X178434342Y-185600057D01*
X178434342Y-186385771D02*
X178434342Y-184885771D01*
X179148628Y-184885771D01*
X179720057Y-186385771D02*
X179720057Y-185385771D01*
X179720057Y-184885771D02*
X179648628Y-184957200D01*
X179720057Y-185028628D01*
X179791485Y-184957200D01*
X179720057Y-184885771D01*
X179720057Y-185028628D01*
X180648628Y-186385771D02*
X180505771Y-186314342D01*
X180434342Y-186171485D01*
X180434342Y-184885771D01*
X181791485Y-186314342D02*
X181648628Y-186385771D01*
X181362914Y-186385771D01*
X181220057Y-186314342D01*
X181148628Y-186171485D01*
X181148628Y-185600057D01*
X181220057Y-185457200D01*
X181362914Y-185385771D01*
X181648628Y-185385771D01*
X181791485Y-185457200D01*
X181862914Y-185600057D01*
X181862914Y-185742914D01*
X181148628Y-185885771D01*
X182505771Y-186242914D02*
X182577200Y-186314342D01*
X182505771Y-186385771D01*
X182434342Y-186314342D01*
X182505771Y-186242914D01*
X182505771Y-186385771D01*
X182505771Y-185457200D02*
X182577200Y-185528628D01*
X182505771Y-185600057D01*
X182434342Y-185528628D01*
X182505771Y-185457200D01*
X182505771Y-185600057D01*
X185005771Y-186385771D02*
X185005771Y-185600057D01*
X184934342Y-185457200D01*
X184791485Y-185385771D01*
X184505771Y-185385771D01*
X184362914Y-185457200D01*
X185005771Y-186314342D02*
X184862914Y-186385771D01*
X184505771Y-186385771D01*
X184362914Y-186314342D01*
X184291485Y-186171485D01*
X184291485Y-186028628D01*
X184362914Y-185885771D01*
X184505771Y-185814342D01*
X184862914Y-185814342D01*
X185005771Y-185742914D01*
X186362914Y-185385771D02*
X186362914Y-186385771D01*
X185720057Y-185385771D02*
X185720057Y-186171485D01*
X185791485Y-186314342D01*
X185934342Y-186385771D01*
X186148628Y-186385771D01*
X186291485Y-186314342D01*
X186362914Y-186242914D01*
X187720057Y-186385771D02*
X187720057Y-184885771D01*
X187720057Y-186314342D02*
X187577200Y-186385771D01*
X187291485Y-186385771D01*
X187148628Y-186314342D01*
X187077200Y-186242914D01*
X187005771Y-186100057D01*
X187005771Y-185671485D01*
X187077200Y-185528628D01*
X187148628Y-185457200D01*
X187291485Y-185385771D01*
X187577200Y-185385771D01*
X187720057Y-185457200D01*
X188434342Y-186385771D02*
X188434342Y-185385771D01*
X188434342Y-184885771D02*
X188362914Y-184957200D01*
X188434342Y-185028628D01*
X188505771Y-184957200D01*
X188434342Y-184885771D01*
X188434342Y-185028628D01*
X189362914Y-186385771D02*
X189220057Y-186314342D01*
X189148628Y-186242914D01*
X189077200Y-186100057D01*
X189077200Y-185671485D01*
X189148628Y-185528628D01*
X189220057Y-185457200D01*
X189362914Y-185385771D01*
X189577200Y-185385771D01*
X189720057Y-185457200D01*
X189791485Y-185528628D01*
X189862914Y-185671485D01*
X189862914Y-186100057D01*
X189791485Y-186242914D01*
X189720057Y-186314342D01*
X189577200Y-186385771D01*
X189362914Y-186385771D01*
X190148628Y-186528628D02*
X191291485Y-186528628D01*
X191577200Y-186314342D02*
X191720057Y-186385771D01*
X192005771Y-186385771D01*
X192148628Y-186314342D01*
X192220057Y-186171485D01*
X192220057Y-186100057D01*
X192148628Y-185957200D01*
X192005771Y-185885771D01*
X191791485Y-185885771D01*
X191648628Y-185814342D01*
X191577200Y-185671485D01*
X191577200Y-185600057D01*
X191648628Y-185457200D01*
X191791485Y-185385771D01*
X192005771Y-185385771D01*
X192148628Y-185457200D01*
X192862914Y-186385771D02*
X192862914Y-184885771D01*
X193505771Y-186385771D02*
X193505771Y-185600057D01*
X193434342Y-185457200D01*
X193291485Y-185385771D01*
X193077200Y-185385771D01*
X192934342Y-185457200D01*
X192862914Y-185528628D01*
X194220057Y-186385771D02*
X194220057Y-185385771D01*
X194220057Y-184885771D02*
X194148628Y-184957200D01*
X194220057Y-185028628D01*
X194291485Y-184957200D01*
X194220057Y-184885771D01*
X194220057Y-185028628D01*
X195505771Y-186314342D02*
X195362914Y-186385771D01*
X195077200Y-186385771D01*
X194934342Y-186314342D01*
X194862914Y-186171485D01*
X194862914Y-185600057D01*
X194934342Y-185457200D01*
X195077200Y-185385771D01*
X195362914Y-185385771D01*
X195505771Y-185457200D01*
X195577200Y-185600057D01*
X195577200Y-185742914D01*
X194862914Y-185885771D01*
X196434342Y-186385771D02*
X196291485Y-186314342D01*
X196220057Y-186171485D01*
X196220057Y-184885771D01*
X197648628Y-186385771D02*
X197648628Y-184885771D01*
X197648628Y-186314342D02*
X197505771Y-186385771D01*
X197220057Y-186385771D01*
X197077200Y-186314342D01*
X197005771Y-186242914D01*
X196934342Y-186100057D01*
X196934342Y-185671485D01*
X197005771Y-185528628D01*
X197077200Y-185457200D01*
X197220057Y-185385771D01*
X197505771Y-185385771D01*
X197648628Y-185457200D01*
X198362914Y-186242914D02*
X198434342Y-186314342D01*
X198362914Y-186385771D01*
X198291485Y-186314342D01*
X198362914Y-186242914D01*
X198362914Y-186385771D01*
X199077200Y-186385771D02*
X199077200Y-184885771D01*
X199220057Y-185814342D02*
X199648628Y-186385771D01*
X199648628Y-185385771D02*
X199077200Y-185957200D01*
X200291485Y-186385771D02*
X200291485Y-185385771D01*
X200291485Y-184885771D02*
X200220057Y-184957200D01*
X200291485Y-185028628D01*
X200362914Y-184957200D01*
X200291485Y-184885771D01*
X200291485Y-185028628D01*
X201648628Y-186314342D02*
X201505771Y-186385771D01*
X201220057Y-186385771D01*
X201077200Y-186314342D01*
X201005771Y-186242914D01*
X200934342Y-186100057D01*
X200934342Y-185671485D01*
X201005771Y-185528628D01*
X201077200Y-185457200D01*
X201220057Y-185385771D01*
X201505771Y-185385771D01*
X201648628Y-185457200D01*
X202934342Y-186385771D02*
X202934342Y-185600057D01*
X202862914Y-185457200D01*
X202720057Y-185385771D01*
X202434342Y-185385771D01*
X202291485Y-185457200D01*
X202934342Y-186314342D02*
X202791485Y-186385771D01*
X202434342Y-186385771D01*
X202291485Y-186314342D01*
X202220057Y-186171485D01*
X202220057Y-186028628D01*
X202291485Y-185885771D01*
X202434342Y-185814342D01*
X202791485Y-185814342D01*
X202934342Y-185742914D01*
X204291485Y-186385771D02*
X204291485Y-184885771D01*
X204291485Y-186314342D02*
X204148628Y-186385771D01*
X203862914Y-186385771D01*
X203720057Y-186314342D01*
X203648628Y-186242914D01*
X203577200Y-186100057D01*
X203577200Y-185671485D01*
X203648628Y-185528628D01*
X203720057Y-185457200D01*
X203862914Y-185385771D01*
X204148628Y-185385771D01*
X204291485Y-185457200D01*
X204648628Y-186528628D02*
X205791485Y-186528628D01*
X206148628Y-185385771D02*
X206148628Y-186885771D01*
X206148628Y-185457200D02*
X206291485Y-185385771D01*
X206577200Y-185385771D01*
X206720057Y-185457200D01*
X206791485Y-185528628D01*
X206862914Y-185671485D01*
X206862914Y-186100057D01*
X206791485Y-186242914D01*
X206720057Y-186314342D01*
X206577200Y-186385771D01*
X206291485Y-186385771D01*
X206148628Y-186314342D01*
X208148628Y-186314342D02*
X208005771Y-186385771D01*
X207720057Y-186385771D01*
X207577200Y-186314342D01*
X207505771Y-186242914D01*
X207434342Y-186100057D01*
X207434342Y-185671485D01*
X207505771Y-185528628D01*
X207577200Y-185457200D01*
X207720057Y-185385771D01*
X208005771Y-185385771D01*
X208148628Y-185457200D01*
X208791485Y-186385771D02*
X208791485Y-184885771D01*
X208791485Y-185457200D02*
X208934342Y-185385771D01*
X209220057Y-185385771D01*
X209362914Y-185457200D01*
X209434342Y-185528628D01*
X209505771Y-185671485D01*
X209505771Y-186100057D01*
X209434342Y-186242914D01*
X209362914Y-186314342D01*
X209220057Y-186385771D01*
X208934342Y-186385771D01*
X208791485Y-186314342D01*
X177002200Y-181507200D02*
X285002200Y-181507200D01*
X178362914Y-183614342D02*
X178577200Y-183685771D01*
X178934342Y-183685771D01*
X179077200Y-183614342D01*
X179148628Y-183542914D01*
X179220057Y-183400057D01*
X179220057Y-183257200D01*
X179148628Y-183114342D01*
X179077200Y-183042914D01*
X178934342Y-182971485D01*
X178648628Y-182900057D01*
X178505771Y-182828628D01*
X178434342Y-182757200D01*
X178362914Y-182614342D01*
X178362914Y-182471485D01*
X178434342Y-182328628D01*
X178505771Y-182257200D01*
X178648628Y-182185771D01*
X179005771Y-182185771D01*
X179220057Y-182257200D01*
X179862914Y-183685771D02*
X179862914Y-182185771D01*
X180505771Y-183685771D02*
X180505771Y-182900057D01*
X180434342Y-182757200D01*
X180291485Y-182685771D01*
X180077200Y-182685771D01*
X179934342Y-182757200D01*
X179862914Y-182828628D01*
X181791485Y-183614342D02*
X181648628Y-183685771D01*
X181362914Y-183685771D01*
X181220057Y-183614342D01*
X181148628Y-183471485D01*
X181148628Y-182900057D01*
X181220057Y-182757200D01*
X181362914Y-182685771D01*
X181648628Y-182685771D01*
X181791485Y-182757200D01*
X181862914Y-182900057D01*
X181862914Y-183042914D01*
X181148628Y-183185771D01*
X183077200Y-183614342D02*
X182934342Y-183685771D01*
X182648628Y-183685771D01*
X182505771Y-183614342D01*
X182434342Y-183471485D01*
X182434342Y-182900057D01*
X182505771Y-182757200D01*
X182648628Y-182685771D01*
X182934342Y-182685771D01*
X183077200Y-182757200D01*
X183148628Y-182900057D01*
X183148628Y-183042914D01*
X182434342Y-183185771D01*
X183577200Y-182685771D02*
X184148628Y-182685771D01*
X183791485Y-182185771D02*
X183791485Y-183471485D01*
X183862914Y-183614342D01*
X184005771Y-183685771D01*
X184148628Y-183685771D01*
X184648628Y-183542914D02*
X184720057Y-183614342D01*
X184648628Y-183685771D01*
X184577200Y-183614342D01*
X184648628Y-183542914D01*
X184648628Y-183685771D01*
X184648628Y-182757200D02*
X184720057Y-182828628D01*
X184648628Y-182900057D01*
X184577200Y-182828628D01*
X184648628Y-182757200D01*
X184648628Y-182900057D01*
D11*
X179054342Y-179900057D02*
X179268628Y-179971485D01*
X179340057Y-180042914D01*
X179411485Y-180185771D01*
X179411485Y-180400057D01*
X179340057Y-180542914D01*
X179268628Y-180614342D01*
X179125771Y-180685771D01*
X178554342Y-180685771D01*
X178554342Y-179185771D01*
X179054342Y-179185771D01*
X179197200Y-179257200D01*
X179268628Y-179328628D01*
X179340057Y-179471485D01*
X179340057Y-179614342D01*
X179268628Y-179757200D01*
X179197200Y-179828628D01*
X179054342Y-179900057D01*
X178554342Y-179900057D01*
X180054342Y-180685771D02*
X180054342Y-179685771D01*
X180054342Y-179185771D02*
X179982914Y-179257200D01*
X180054342Y-179328628D01*
X180125771Y-179257200D01*
X180054342Y-179185771D01*
X180054342Y-179328628D01*
X180554342Y-179685771D02*
X181125771Y-179685771D01*
X180768628Y-179185771D02*
X180768628Y-180471485D01*
X180840057Y-180614342D01*
X180982914Y-180685771D01*
X181125771Y-180685771D01*
X182268628Y-180614342D02*
X182125771Y-180685771D01*
X181840057Y-180685771D01*
X181697200Y-180614342D01*
X181625771Y-180542914D01*
X181554342Y-180400057D01*
X181554342Y-179971485D01*
X181625771Y-179828628D01*
X181697200Y-179757200D01*
X181840057Y-179685771D01*
X182125771Y-179685771D01*
X182268628Y-179757200D01*
X182911485Y-180685771D02*
X182911485Y-179685771D01*
X182911485Y-179971485D02*
X182982914Y-179828628D01*
X183054342Y-179757200D01*
X183197200Y-179685771D01*
X183340057Y-179685771D01*
X184482914Y-180685771D02*
X184482914Y-179900057D01*
X184411485Y-179757200D01*
X184268628Y-179685771D01*
X183982914Y-179685771D01*
X183840057Y-179757200D01*
X184482914Y-180614342D02*
X184340057Y-180685771D01*
X183982914Y-180685771D01*
X183840057Y-180614342D01*
X183768628Y-180471485D01*
X183768628Y-180328628D01*
X183840057Y-180185771D01*
X183982914Y-180114342D01*
X184340057Y-180114342D01*
X184482914Y-180042914D01*
X185054342Y-179685771D02*
X185840057Y-179685771D01*
X185054342Y-180685771D01*
X185840057Y-180685771D01*
X186982914Y-180614342D02*
X186840057Y-180685771D01*
X186554342Y-180685771D01*
X186411485Y-180614342D01*
X186340057Y-180471485D01*
X186340057Y-179900057D01*
X186411485Y-179757200D01*
X186554342Y-179685771D01*
X186840057Y-179685771D01*
X186982914Y-179757200D01*
X187054342Y-179900057D01*
X187054342Y-180042914D01*
X186340057Y-180185771D01*
X188768628Y-180257200D02*
X189482914Y-180257200D01*
X188625771Y-180685771D02*
X189125771Y-179185771D01*
X189625771Y-180685771D01*
X190625771Y-179900057D02*
X190840057Y-179971485D01*
X190911485Y-180042914D01*
X190982914Y-180185771D01*
X190982914Y-180400057D01*
X190911485Y-180542914D01*
X190840057Y-180614342D01*
X190697200Y-180685771D01*
X190125771Y-180685771D01*
X190125771Y-179185771D01*
X190625771Y-179185771D01*
X190768628Y-179257200D01*
X190840057Y-179328628D01*
X190911485Y-179471485D01*
X190911485Y-179614342D01*
X190840057Y-179757200D01*
X190768628Y-179828628D01*
X190625771Y-179900057D01*
X190125771Y-179900057D01*
D10*
X179148628Y-177685771D02*
X178434342Y-177685771D01*
X178434342Y-176185771D01*
X179648628Y-177685771D02*
X179648628Y-176685771D01*
X179648628Y-176185771D02*
X179577200Y-176257200D01*
X179648628Y-176328628D01*
X179720057Y-176257200D01*
X179648628Y-176185771D01*
X179648628Y-176328628D01*
X181005771Y-177614342D02*
X180862914Y-177685771D01*
X180577200Y-177685771D01*
X180434342Y-177614342D01*
X180362914Y-177542914D01*
X180291485Y-177400057D01*
X180291485Y-176971485D01*
X180362914Y-176828628D01*
X180434342Y-176757200D01*
X180577200Y-176685771D01*
X180862914Y-176685771D01*
X181005771Y-176757200D01*
X182220057Y-177614342D02*
X182077200Y-177685771D01*
X181791485Y-177685771D01*
X181648628Y-177614342D01*
X181577200Y-177471485D01*
X181577200Y-176900057D01*
X181648628Y-176757200D01*
X181791485Y-176685771D01*
X182077200Y-176685771D01*
X182220057Y-176757200D01*
X182291485Y-176900057D01*
X182291485Y-177042914D01*
X181577200Y-177185771D01*
X182934342Y-176685771D02*
X182934342Y-177685771D01*
X182934342Y-176828628D02*
X183005771Y-176757200D01*
X183148628Y-176685771D01*
X183362914Y-176685771D01*
X183505771Y-176757200D01*
X183577200Y-176900057D01*
X183577200Y-177685771D01*
X184220057Y-177614342D02*
X184362914Y-177685771D01*
X184648628Y-177685771D01*
X184791485Y-177614342D01*
X184862914Y-177471485D01*
X184862914Y-177400057D01*
X184791485Y-177257200D01*
X184648628Y-177185771D01*
X184434342Y-177185771D01*
X184291485Y-177114342D01*
X184220057Y-176971485D01*
X184220057Y-176900057D01*
X184291485Y-176757200D01*
X184434342Y-176685771D01*
X184648628Y-176685771D01*
X184791485Y-176757200D01*
X186077200Y-177614342D02*
X185934342Y-177685771D01*
X185648628Y-177685771D01*
X185505771Y-177614342D01*
X185434342Y-177471485D01*
X185434342Y-176900057D01*
X185505771Y-176757200D01*
X185648628Y-176685771D01*
X185934342Y-176685771D01*
X186077200Y-176757200D01*
X186148628Y-176900057D01*
X186148628Y-177042914D01*
X185434342Y-177185771D01*
X187434342Y-177685771D02*
X187434342Y-176185771D01*
X187434342Y-177614342D02*
X187291485Y-177685771D01*
X187005771Y-177685771D01*
X186862914Y-177614342D01*
X186791485Y-177542914D01*
X186720057Y-177400057D01*
X186720057Y-176971485D01*
X186791485Y-176828628D01*
X186862914Y-176757200D01*
X187005771Y-176685771D01*
X187291485Y-176685771D01*
X187434342Y-176757200D01*
X189934342Y-176685771D02*
X189934342Y-177685771D01*
X189291485Y-176685771D02*
X189291485Y-177471485D01*
X189362914Y-177614342D01*
X189505771Y-177685771D01*
X189720057Y-177685771D01*
X189862914Y-177614342D01*
X189934342Y-177542914D01*
X190648628Y-176685771D02*
X190648628Y-177685771D01*
X190648628Y-176828628D02*
X190720057Y-176757200D01*
X190862914Y-176685771D01*
X191077200Y-176685771D01*
X191220057Y-176757200D01*
X191291485Y-176900057D01*
X191291485Y-177685771D01*
X192648628Y-177685771D02*
X192648628Y-176185771D01*
X192648628Y-177614342D02*
X192505771Y-177685771D01*
X192220057Y-177685771D01*
X192077200Y-177614342D01*
X192005771Y-177542914D01*
X191934342Y-177400057D01*
X191934342Y-176971485D01*
X192005771Y-176828628D01*
X192077200Y-176757200D01*
X192220057Y-176685771D01*
X192505771Y-176685771D01*
X192648628Y-176757200D01*
X193934342Y-177614342D02*
X193791485Y-177685771D01*
X193505771Y-177685771D01*
X193362914Y-177614342D01*
X193291485Y-177471485D01*
X193291485Y-176900057D01*
X193362914Y-176757200D01*
X193505771Y-176685771D01*
X193791485Y-176685771D01*
X193934342Y-176757200D01*
X194005771Y-176900057D01*
X194005771Y-177042914D01*
X193291485Y-177185771D01*
X194648628Y-177685771D02*
X194648628Y-176685771D01*
X194648628Y-176971485D02*
X194720057Y-176828628D01*
X194791485Y-176757200D01*
X194934342Y-176685771D01*
X195077200Y-176685771D01*
X197577200Y-177542914D02*
X197505771Y-177614342D01*
X197291485Y-177685771D01*
X197148628Y-177685771D01*
X196934342Y-177614342D01*
X196791485Y-177471485D01*
X196720057Y-177328628D01*
X196648628Y-177042914D01*
X196648628Y-176828628D01*
X196720057Y-176542914D01*
X196791485Y-176400057D01*
X196934342Y-176257200D01*
X197148628Y-176185771D01*
X197291485Y-176185771D01*
X197505771Y-176257200D01*
X197577200Y-176328628D01*
X199077200Y-177542914D02*
X199005771Y-177614342D01*
X198791485Y-177685771D01*
X198648628Y-177685771D01*
X198434342Y-177614342D01*
X198291485Y-177471485D01*
X198220057Y-177328628D01*
X198148628Y-177042914D01*
X198148628Y-176828628D01*
X198220057Y-176542914D01*
X198291485Y-176400057D01*
X198434342Y-176257200D01*
X198648628Y-176185771D01*
X198791485Y-176185771D01*
X199005771Y-176257200D01*
X199077200Y-176328628D01*
X199720057Y-177114342D02*
X200862914Y-177114342D01*
X202077200Y-176900057D02*
X202291485Y-176971485D01*
X202362914Y-177042914D01*
X202434342Y-177185771D01*
X202434342Y-177400057D01*
X202362914Y-177542914D01*
X202291485Y-177614342D01*
X202148628Y-177685771D01*
X201577200Y-177685771D01*
X201577200Y-176185771D01*
X202077200Y-176185771D01*
X202220057Y-176257200D01*
X202291485Y-176328628D01*
X202362914Y-176471485D01*
X202362914Y-176614342D01*
X202291485Y-176757200D01*
X202220057Y-176828628D01*
X202077200Y-176900057D01*
X201577200Y-176900057D01*
X203362914Y-176971485D02*
X203362914Y-177685771D01*
X202862914Y-176185771D02*
X203362914Y-176971485D01*
X203862914Y-176185771D01*
X206148628Y-176685771D02*
X206148628Y-177685771D01*
X205791485Y-176114342D02*
X205434342Y-177185771D01*
X206362914Y-177185771D01*
X206934342Y-177542914D02*
X207005771Y-177614342D01*
X206934342Y-177685771D01*
X206862914Y-177614342D01*
X206934342Y-177542914D01*
X206934342Y-177685771D01*
X207934342Y-176185771D02*
X208077200Y-176185771D01*
X208220057Y-176257200D01*
X208291485Y-176328628D01*
X208362914Y-176471485D01*
X208434342Y-176757200D01*
X208434342Y-177114342D01*
X208362914Y-177400057D01*
X208291485Y-177542914D01*
X208220057Y-177614342D01*
X208077200Y-177685771D01*
X207934342Y-177685771D01*
X207791485Y-177614342D01*
X207720057Y-177542914D01*
X207648628Y-177400057D01*
X207577200Y-177114342D01*
X207577200Y-176757200D01*
X207648628Y-176471485D01*
X207720057Y-176328628D01*
X207791485Y-176257200D01*
X207934342Y-176185771D01*
X197002200Y-191507200D02*
X197002200Y-194507200D01*
X261002200Y-191507200D02*
X261002200Y-198007200D01*
%TO.C,EXP_ORIENTATION*%
X159500000Y-97000000D02*
X159100000Y-97350000D01*
X159500000Y-97000000D02*
X159100000Y-96650000D01*
X158400000Y-97000000D02*
X159500000Y-97000000D01*
X158400446Y-97000000D02*
G75*
G03*
X158400446Y-97000000I-700446J0D01*
G01*
X157700000Y-97000000D02*
X157225000Y-96525000D01*
X157700000Y-97000000D02*
X158175000Y-96525000D01*
X157700000Y-97000000D02*
X158175000Y-97475000D01*
X157700000Y-97000000D02*
X157225000Y-97475000D01*
D13*
%TO.C,JP8*%
X174094477Y-99829192D02*
X174612115Y-97897341D01*
X171389885Y-99104499D02*
X174094477Y-99829192D01*
X171907523Y-97172648D02*
X171389885Y-99104499D01*
X174612115Y-97897341D02*
X171907523Y-97172648D01*
%TO.C,R15*%
X176729563Y-99146608D02*
X176415098Y-99062348D01*
X176465568Y-100131852D02*
X176151103Y-100047592D01*
D14*
%TO.C,MK3*%
X194942942Y-42932811D02*
X196173308Y-41702445D01*
X196173308Y-41702445D02*
X194299475Y-39828612D01*
X194299475Y-39828612D02*
X193069109Y-41058978D01*
D15*
X191856923Y-41963368D02*
G75*
G03*
X191856923Y-41963368I-50000J0D01*
G01*
D13*
%TO.C,U1*%
X123129249Y-90446040D02*
X123801000Y-89774289D01*
X123801000Y-89774289D02*
X124472751Y-90446040D01*
X117246120Y-96329169D02*
X116574369Y-97000920D01*
X116574369Y-97000920D02*
X117246120Y-97672671D01*
X130355880Y-97672671D02*
X131027631Y-97000920D01*
X131027631Y-97000920D02*
X130355880Y-96329169D01*
X124472751Y-103555800D02*
X123801000Y-104227551D01*
X123801000Y-104227551D02*
X123129249Y-103555800D01*
X123129249Y-103555800D02*
X122181725Y-104503323D01*
%TO.C,JP13*%
X198182843Y-148197056D02*
X199597056Y-146782843D01*
X196202944Y-146217157D02*
X198182843Y-148197056D01*
X197617157Y-144802944D02*
X196202944Y-146217157D01*
X199597056Y-146782843D02*
X197617157Y-144802944D01*
%TO.C,JP12*%
X81397056Y-146117157D02*
X79982843Y-144702944D01*
X79417157Y-148097056D02*
X81397056Y-146117157D01*
X78002944Y-146682843D02*
X79417157Y-148097056D01*
X79982843Y-144702944D02*
X78002944Y-146682843D01*
%TO.C,JP11*%
X187823224Y-39637437D02*
X189237437Y-38223224D01*
X185843325Y-37657538D02*
X187823224Y-39637437D01*
X187257538Y-36243325D02*
X185843325Y-37657538D01*
X189237437Y-38223224D02*
X187257538Y-36243325D01*
%TO.C,JP10*%
X81097056Y-46717157D02*
X79682843Y-45302944D01*
X79117157Y-48697056D02*
X81097056Y-46717157D01*
X77702944Y-47282843D02*
X79117157Y-48697056D01*
X79682843Y-45302944D02*
X77702944Y-47282843D01*
%TO.C,JP9*%
X198564653Y-116412035D02*
X200496504Y-115894397D01*
X197839960Y-113707443D02*
X198564653Y-116412035D01*
X199771811Y-113189805D02*
X197839960Y-113707443D01*
X200496504Y-115894397D02*
X199771811Y-113189805D01*
%TO.C,JP7*%
X157794477Y-157729192D02*
X158312115Y-155797341D01*
X155089885Y-157004499D02*
X157794477Y-157729192D01*
X155607523Y-155072648D02*
X155089885Y-157004499D01*
X158312115Y-155797341D02*
X155607523Y-155072648D01*
%TO.C,R17*%
X198469068Y-118435432D02*
X198553328Y-118749897D01*
X199454312Y-118171437D02*
X199538572Y-118485902D01*
%TO.C,R16*%
X200061428Y-118014098D02*
X200145688Y-118328563D01*
X201046672Y-117750103D02*
X201130932Y-118064568D01*
%TO.C,R14*%
X176672437Y-97955232D02*
X176986902Y-98039492D01*
X176936432Y-96969988D02*
X177250897Y-97054248D01*
%TO.C,R13*%
X160089230Y-159049508D02*
X159774765Y-158965248D01*
X159825235Y-160034752D02*
X159510770Y-159950492D01*
%TO.C,R12*%
X160589230Y-157149508D02*
X160274765Y-157065248D01*
X160325235Y-158134752D02*
X160010770Y-158050492D01*
D14*
%TO.C,MK8*%
X202493568Y-122885273D02*
X204174279Y-122434928D01*
X204174279Y-122434928D02*
X203488409Y-119875224D01*
X203488409Y-119875224D02*
X201807698Y-120325570D01*
D15*
X200312418Y-120477701D02*
G75*
G03*
X200312418Y-120477701I-50000J0D01*
G01*
D14*
%TO.C,MK7*%
X181176459Y-99694251D02*
X181626805Y-98013540D01*
X181626805Y-98013540D02*
X179067101Y-97327670D01*
X179067101Y-97327670D02*
X178616756Y-99008381D01*
D15*
X178025866Y-100422698D02*
G75*
G03*
X178025866Y-100422698I-50000J0D01*
G01*
D14*
%TO.C,MK6*%
X162325541Y-159807589D02*
X161875195Y-161488300D01*
X161875195Y-161488300D02*
X164434899Y-162174170D01*
X164434899Y-162174170D02*
X164885244Y-160493459D01*
D15*
X165576134Y-159079142D02*
G75*
G03*
X165576134Y-159079142I-50000J0D01*
G01*
D13*
%TO.C,C25*%
X201466248Y-125675685D02*
X201550508Y-125990150D01*
X202451492Y-125411690D02*
X202535752Y-125726155D01*
%TO.C,C24*%
X203566248Y-125075685D02*
X203650508Y-125390150D01*
X204551492Y-124811690D02*
X204635752Y-125126155D01*
%TO.C,C23*%
X182551103Y-101847592D02*
X182865568Y-101931852D01*
X182815098Y-100862348D02*
X183129563Y-100946608D01*
%TO.C,C22*%
X183111770Y-99851412D02*
X183426235Y-99935672D01*
X183375765Y-98866168D02*
X183690230Y-98950428D01*
%TO.C,C21*%
X167089230Y-161149508D02*
X166774765Y-161065248D01*
X166825235Y-162134752D02*
X166510770Y-162050492D01*
%TO.C,C20*%
X167589230Y-159349508D02*
X167274765Y-159265248D01*
X167325235Y-160334752D02*
X167010770Y-160250492D01*
%TO.C,R9*%
X82754478Y-45524273D02*
X82524273Y-45754478D01*
X83475727Y-46245522D02*
X83245522Y-46475727D01*
%TO.C,R8*%
X81288675Y-44232574D02*
X81518880Y-44002369D01*
X80567426Y-43511325D02*
X80797631Y-43281120D01*
%TO.C,R7*%
X190419880Y-40098551D02*
X190189675Y-39868346D01*
X189698631Y-40819800D02*
X189468426Y-40589595D01*
%TO.C,R6*%
X190882120Y-38903289D02*
X191112325Y-39133494D01*
X191603369Y-38182040D02*
X191833574Y-38412245D01*
%TO.C,R5*%
X81924273Y-148545522D02*
X82154478Y-148775727D01*
X82645522Y-147824273D02*
X82875727Y-148054478D01*
%TO.C,R4*%
X80624273Y-149745522D02*
X80854478Y-149975727D01*
X81345522Y-149024273D02*
X81575727Y-149254478D01*
%TO.C,R3*%
X195645522Y-148875727D02*
X195875727Y-148645522D01*
X194924273Y-148154478D02*
X195154478Y-147924273D01*
%TO.C,R2*%
X196354478Y-149124273D02*
X196124273Y-149354478D01*
X197075727Y-149845522D02*
X196845522Y-150075727D01*
D14*
%TO.C,MK4*%
X84932891Y-41058978D02*
X83702525Y-39828612D01*
X83702525Y-39828612D02*
X81828692Y-41702445D01*
X81828692Y-41702445D02*
X83059058Y-42932811D01*
D15*
X84013448Y-44194997D02*
G75*
G03*
X84013448Y-44194997I-50000J0D01*
G01*
D14*
%TO.C,MK2*%
X83059058Y-151069029D02*
X81828692Y-152299395D01*
X81828692Y-152299395D02*
X83702525Y-154173228D01*
X83702525Y-154173228D02*
X84932891Y-152942862D01*
D15*
X86245077Y-152038472D02*
G75*
G03*
X86245077Y-152038472I-50000J0D01*
G01*
D14*
%TO.C,MK1*%
X193068109Y-152941942D02*
X194298475Y-154172308D01*
X194298475Y-154172308D02*
X196172308Y-152298475D01*
X196172308Y-152298475D02*
X194941942Y-151068109D01*
D15*
X194087552Y-149805923D02*
G75*
G03*
X194087552Y-149805923I-50000J0D01*
G01*
D13*
%TO.C,JP3*%
X145700000Y-79300000D02*
X145700000Y-77300000D01*
X142900000Y-79300000D02*
X145700000Y-79300000D01*
X142900000Y-77300000D02*
X142900000Y-79300000D01*
X145700000Y-77300000D02*
X142900000Y-77300000D01*
%TO.C,JP2*%
X131301000Y-77300000D02*
X131301000Y-79300000D01*
X134101000Y-77300000D02*
X131301000Y-77300000D01*
X134101000Y-79300000D02*
X134101000Y-77300000D01*
X131301000Y-79300000D02*
X134101000Y-79300000D01*
%TO.C,JP1*%
X137401000Y-76700920D02*
X137401000Y-78700920D01*
X140201000Y-76700920D02*
X137401000Y-76700920D01*
X140201000Y-78700920D02*
X140201000Y-76700920D01*
X137401000Y-78700920D02*
X140201000Y-78700920D01*
%TO.C,C17*%
X87145522Y-40775727D02*
X87375727Y-40545522D01*
X86424273Y-40054478D02*
X86654478Y-39824273D01*
%TO.C,C16*%
X86045522Y-39675727D02*
X86275727Y-39445522D01*
X85324273Y-38954478D02*
X85554478Y-38724273D01*
%TO.C,C15*%
X194925273Y-46246442D02*
X195155478Y-46476647D01*
X195646522Y-45525193D02*
X195876727Y-45755398D01*
%TO.C,C14*%
X196368426Y-44689595D02*
X196598631Y-44919800D01*
X197089675Y-43968346D02*
X197319880Y-44198551D01*
%TO.C,C13*%
X86824273Y-154145522D02*
X87054478Y-154375727D01*
X87545522Y-153424273D02*
X87775727Y-153654478D01*
%TO.C,C12*%
X85724273Y-155245522D02*
X85954478Y-155475727D01*
X86445522Y-154524273D02*
X86675727Y-154754478D01*
%TO.C,C11*%
X191654478Y-154424273D02*
X191424273Y-154654478D01*
X192375727Y-155145522D02*
X192145522Y-155375727D01*
%TO.C,C10*%
X190411325Y-153167426D02*
X190181120Y-153397631D01*
X191132574Y-153888675D02*
X190902369Y-154118880D01*
%TO.C,C1*%
X120045522Y-90675727D02*
X120275727Y-90445522D01*
X119324273Y-89954478D02*
X119554478Y-89724273D01*
%TO.C,C2*%
X118844602Y-104176727D02*
X119074807Y-103946522D01*
X118123353Y-103455478D02*
X118353558Y-103225273D01*
%TO.C,C3*%
X126746522Y-106076647D02*
X126976727Y-105846442D01*
X126025273Y-105355398D02*
X126255478Y-105125193D01*
%TO.C,C4*%
X116254478Y-92824273D02*
X116024273Y-93054478D01*
X116975727Y-93545522D02*
X116745522Y-93775727D01*
%TO.C,C5*%
X122338221Y-106410920D02*
X122663779Y-106410920D01*
X122338221Y-105390920D02*
X122663779Y-105390920D01*
%TO.C,C6*%
X121854478Y-87424273D02*
X121624273Y-87654478D01*
X122575727Y-88145522D02*
X122345522Y-88375727D01*
%TO.C,C7*%
X131790000Y-96337221D02*
X131790000Y-96662779D01*
X132810000Y-96337221D02*
X132810000Y-96662779D01*
%TO.C,C8*%
X117644602Y-102976727D02*
X117874807Y-102746522D01*
X116923353Y-102255478D02*
X117153558Y-102025273D01*
%TO.C,C9*%
X114346522Y-97276647D02*
X114576727Y-97046442D01*
X113625273Y-96555398D02*
X113855478Y-96325193D01*
%TO.C,L1*%
X115919880Y-100598551D02*
X115689675Y-100368346D01*
X115198631Y-101319800D02*
X114968426Y-101089595D01*
%TO.C,R1*%
X128788675Y-103932574D02*
X129018880Y-103702369D01*
X128067426Y-103211325D02*
X128297631Y-102981120D01*
%TO.C,JP4*%
X125351000Y-88700920D02*
X128151000Y-88700920D01*
X128151000Y-88700920D02*
X128151000Y-86700920D01*
X128151000Y-86700920D02*
X125351000Y-86700920D01*
X125351000Y-86700920D02*
X125351000Y-88700920D01*
%TO.C,JP5*%
X143200000Y-102250000D02*
X143200000Y-105050000D01*
X143200000Y-105050000D02*
X145200000Y-105050000D01*
X145200000Y-105050000D02*
X145200000Y-102250000D01*
X145200000Y-102250000D02*
X143200000Y-102250000D01*
%TO.C,JP6*%
X141000000Y-102300000D02*
X139000000Y-102300000D01*
X141000000Y-105100000D02*
X141000000Y-102300000D01*
X139000000Y-105100000D02*
X141000000Y-105100000D01*
X139000000Y-102300000D02*
X139000000Y-105100000D01*
%TO.C,JP8*%
D10*
X174546672Y-96286723D02*
X174361801Y-96976670D01*
X174370823Y-97126984D01*
X174438167Y-97243626D01*
X174563832Y-97326597D01*
X174655825Y-97351246D01*
X173827888Y-97129401D02*
X174086707Y-96163475D01*
X173718736Y-96064878D01*
X173614418Y-96086225D01*
X173556097Y-96119897D01*
X173485451Y-96199565D01*
X173448477Y-96337554D01*
X173469824Y-96441872D01*
X173503495Y-96500193D01*
X173583164Y-96570839D01*
X173951135Y-96669437D01*
X172871870Y-96281651D02*
X172976187Y-96260303D01*
X173034508Y-96226632D01*
X173105154Y-96146964D01*
X173117479Y-96100967D01*
X173096132Y-95996649D01*
X173062460Y-95938328D01*
X172982792Y-95867682D01*
X172798806Y-95818383D01*
X172694488Y-95839730D01*
X172636167Y-95873402D01*
X172565521Y-95953070D01*
X172553197Y-95999067D01*
X172574544Y-96103385D01*
X172608215Y-96161706D01*
X172687884Y-96232352D01*
X172871870Y-96281651D01*
X172951538Y-96352296D01*
X172985210Y-96410618D01*
X173006557Y-96514935D01*
X172957258Y-96698921D01*
X172886612Y-96778589D01*
X172828291Y-96812261D01*
X172723973Y-96833608D01*
X172539987Y-96784309D01*
X172460319Y-96713663D01*
X172426647Y-96655342D01*
X172405300Y-96551025D01*
X172454599Y-96367039D01*
X172525245Y-96287370D01*
X172583566Y-96253699D01*
X172687884Y-96232352D01*
%TO.C,R15*%
X176503867Y-101803350D02*
X176949089Y-101429658D01*
X177055825Y-101951246D02*
X177314644Y-100985320D01*
X176946672Y-100886723D01*
X176842354Y-100908070D01*
X176784033Y-100941741D01*
X176713387Y-101021410D01*
X176676413Y-101159399D01*
X176697760Y-101263717D01*
X176731432Y-101322038D01*
X176811100Y-101392684D01*
X177179072Y-101491282D01*
X175583938Y-101556855D02*
X176135895Y-101704752D01*
X175859916Y-101630804D02*
X176118736Y-100664878D01*
X176173754Y-100827517D01*
X176241098Y-100944159D01*
X176320766Y-101014805D01*
X174968824Y-100356760D02*
X175428788Y-100480007D01*
X175351538Y-100952296D01*
X175317866Y-100893975D01*
X175238198Y-100823329D01*
X175008215Y-100761706D01*
X174903898Y-100783053D01*
X174845577Y-100816725D01*
X174774931Y-100896393D01*
X174713307Y-101126375D01*
X174734654Y-101230693D01*
X174768326Y-101289014D01*
X174847994Y-101359660D01*
X175077977Y-101421283D01*
X175182294Y-101399936D01*
X175240615Y-101366265D01*
%TO.C,MK3*%
X192606091Y-45245853D02*
X193313198Y-44538747D01*
X192572419Y-44808121D01*
X192841793Y-44067342D01*
X192134687Y-44774449D01*
X191797969Y-44437731D02*
X192505076Y-43730624D01*
X191393908Y-44033670D02*
X192101015Y-43932655D01*
X192101015Y-43326563D02*
X192101015Y-44134686D01*
X191865312Y-43090861D02*
X191427580Y-42653128D01*
X191393908Y-43158205D01*
X191292893Y-43057189D01*
X191191877Y-43023518D01*
X191124534Y-43023518D01*
X191023519Y-43057189D01*
X190855160Y-43225548D01*
X190821488Y-43326563D01*
X190821488Y-43393907D01*
X190855160Y-43494922D01*
X191057190Y-43696953D01*
X191158206Y-43730624D01*
X191225549Y-43730624D01*
%TO.C,U1*%
X123551522Y-96074026D02*
X124123942Y-96646446D01*
X124157614Y-96747461D01*
X124157614Y-96814805D01*
X124123942Y-96915820D01*
X123989255Y-97050507D01*
X123888240Y-97084179D01*
X123820896Y-97084179D01*
X123719881Y-97050507D01*
X123147461Y-96478087D01*
X123147461Y-97892301D02*
X123551522Y-97488240D01*
X123349492Y-97690270D02*
X122642385Y-96983164D01*
X122810744Y-97016835D01*
X122945431Y-97016835D01*
X123046446Y-96983164D01*
%TO.C,JP13*%
X200538748Y-142686801D02*
X201043824Y-143191877D01*
X201178511Y-143259221D01*
X201313198Y-143259221D01*
X201447885Y-143191877D01*
X201515228Y-143124534D01*
X200909137Y-143730625D02*
X200202030Y-143023519D01*
X199932656Y-143292893D01*
X199898984Y-143393908D01*
X199898984Y-143461251D01*
X199932656Y-143562267D01*
X200033671Y-143663282D01*
X200134687Y-143696954D01*
X200202030Y-143696954D01*
X200303045Y-143663282D01*
X200572419Y-143393908D01*
X199831641Y-144808122D02*
X200235702Y-144404061D01*
X200033671Y-144606091D02*
X199326564Y-143898984D01*
X199494923Y-143932656D01*
X199629610Y-143932656D01*
X199730625Y-143898984D01*
X198888832Y-144336717D02*
X198451099Y-144774450D01*
X198956175Y-144808122D01*
X198855160Y-144909137D01*
X198821488Y-145010152D01*
X198821488Y-145077496D01*
X198855160Y-145178511D01*
X199023519Y-145346870D01*
X199124534Y-145380541D01*
X199191877Y-145380541D01*
X199292893Y-145346870D01*
X199494923Y-145144839D01*
X199528595Y-145043824D01*
X199528595Y-144976480D01*
%TO.C,JP12*%
X82313198Y-144938748D02*
X81808122Y-145443824D01*
X81740778Y-145578511D01*
X81740778Y-145713198D01*
X81808122Y-145847885D01*
X81875465Y-145915228D01*
X81269374Y-145309137D02*
X81976480Y-144602030D01*
X81707106Y-144332656D01*
X81606091Y-144298984D01*
X81538748Y-144298984D01*
X81437732Y-144332656D01*
X81336717Y-144433671D01*
X81303045Y-144534687D01*
X81303045Y-144602030D01*
X81336717Y-144703045D01*
X81606091Y-144972419D01*
X80191877Y-144231641D02*
X80595938Y-144635702D01*
X80393908Y-144433671D02*
X81101015Y-143726564D01*
X81067343Y-143894923D01*
X81067343Y-144029610D01*
X81101015Y-144130625D01*
X80562267Y-143322503D02*
X80562267Y-143255160D01*
X80528595Y-143154145D01*
X80360236Y-142985786D01*
X80259221Y-142952114D01*
X80191877Y-142952114D01*
X80090862Y-142985786D01*
X80023519Y-143053129D01*
X79956175Y-143187816D01*
X79956175Y-143995938D01*
X79518442Y-143558206D01*
%TO.C,JP11*%
X186313198Y-36138748D02*
X185808122Y-36643824D01*
X185740778Y-36778511D01*
X185740778Y-36913198D01*
X185808122Y-37047885D01*
X185875465Y-37115228D01*
X185269374Y-36509137D02*
X185976480Y-35802030D01*
X185707106Y-35532656D01*
X185606091Y-35498984D01*
X185538748Y-35498984D01*
X185437732Y-35532656D01*
X185336717Y-35633671D01*
X185303045Y-35734687D01*
X185303045Y-35802030D01*
X185336717Y-35903045D01*
X185606091Y-36172419D01*
X184191877Y-35431641D02*
X184595938Y-35835702D01*
X184393908Y-35633671D02*
X185101015Y-34926564D01*
X185067343Y-35094923D01*
X185067343Y-35229610D01*
X185101015Y-35330625D01*
X183518442Y-34758206D02*
X183922503Y-35162267D01*
X183720473Y-34960236D02*
X184427580Y-34253129D01*
X184393908Y-34421488D01*
X184393908Y-34556175D01*
X184427580Y-34657190D01*
%TO.C,JP10*%
X77738748Y-48486801D02*
X78243824Y-48991877D01*
X78378511Y-49059221D01*
X78513198Y-49059221D01*
X78647885Y-48991877D01*
X78715228Y-48924534D01*
X78109137Y-49530625D02*
X77402030Y-48823519D01*
X77132656Y-49092893D01*
X77098984Y-49193908D01*
X77098984Y-49261251D01*
X77132656Y-49362267D01*
X77233671Y-49463282D01*
X77334687Y-49496954D01*
X77402030Y-49496954D01*
X77503045Y-49463282D01*
X77772419Y-49193908D01*
X77031641Y-50608122D02*
X77435702Y-50204061D01*
X77233671Y-50406091D02*
X76526564Y-49698984D01*
X76694923Y-49732656D01*
X76829610Y-49732656D01*
X76930625Y-49698984D01*
X75886801Y-50338748D02*
X75819458Y-50406091D01*
X75785786Y-50507106D01*
X75785786Y-50574450D01*
X75819458Y-50675465D01*
X75920473Y-50843824D01*
X76088832Y-51012183D01*
X76257190Y-51113198D01*
X76358206Y-51146870D01*
X76425549Y-51146870D01*
X76526564Y-51113198D01*
X76593908Y-51045854D01*
X76627580Y-50944839D01*
X76627580Y-50877496D01*
X76593908Y-50776480D01*
X76492893Y-50608122D01*
X76324534Y-50439763D01*
X76156175Y-50338748D01*
X76055160Y-50305076D01*
X75987816Y-50305076D01*
X75886801Y-50338748D01*
%TO.C,JP9*%
X198894641Y-112433203D02*
X198204694Y-112618074D01*
X198079030Y-112701045D01*
X198011686Y-112817687D01*
X198002664Y-112968001D01*
X198027313Y-113059994D01*
X197805468Y-112232058D02*
X198771394Y-111973239D01*
X198672797Y-111605267D01*
X198602151Y-111525599D01*
X198543829Y-111491927D01*
X198439512Y-111470580D01*
X198301522Y-111507554D01*
X198221854Y-111578200D01*
X198188182Y-111636521D01*
X198166835Y-111740839D01*
X198265433Y-112108811D01*
X197534325Y-111220136D02*
X197485026Y-111036150D01*
X197506373Y-110931832D01*
X197540045Y-110873511D01*
X197653385Y-110744544D01*
X197825046Y-110649248D01*
X198193017Y-110550651D01*
X198297335Y-110571998D01*
X198355656Y-110605669D01*
X198426302Y-110685338D01*
X198475601Y-110869324D01*
X198454254Y-110973641D01*
X198420582Y-111031962D01*
X198340914Y-111102608D01*
X198110932Y-111164232D01*
X198006614Y-111142885D01*
X197948293Y-111109213D01*
X197877647Y-111029545D01*
X197828348Y-110845559D01*
X197849695Y-110741241D01*
X197883367Y-110682920D01*
X197963035Y-110612274D01*
%TO.C,JP7*%
X157546672Y-154086723D02*
X157361801Y-154776670D01*
X157370823Y-154926984D01*
X157438167Y-155043626D01*
X157563832Y-155126597D01*
X157655825Y-155151246D01*
X156827888Y-154929401D02*
X157086707Y-153963475D01*
X156718736Y-153864878D01*
X156614418Y-153886225D01*
X156556097Y-153919897D01*
X156485451Y-153999565D01*
X156448477Y-154137554D01*
X156469824Y-154241872D01*
X156503495Y-154300193D01*
X156583164Y-154370839D01*
X156951135Y-154469437D01*
X156212774Y-153729306D02*
X155568824Y-153556760D01*
X155723973Y-154633608D01*
%TO.C,R17*%
X196789417Y-116298037D02*
X197335654Y-116496765D01*
X196937313Y-116849994D02*
X197903239Y-116591175D01*
X197804641Y-116223203D01*
X197733996Y-116143535D01*
X197675674Y-116109863D01*
X197571357Y-116088516D01*
X197433367Y-116125491D01*
X197353699Y-116196136D01*
X197320027Y-116254458D01*
X197298680Y-116358775D01*
X197397278Y-116726747D01*
X196542922Y-115378107D02*
X196690819Y-115930065D01*
X196616871Y-115654086D02*
X197582797Y-115395267D01*
X197469457Y-115524234D01*
X197402113Y-115640876D01*
X197380766Y-115745194D01*
X197422575Y-114797313D02*
X197250029Y-114153362D01*
X196395026Y-114826150D01*
%TO.C,R16*%
X201799417Y-118228037D02*
X202345654Y-118426765D01*
X201947313Y-118779994D02*
X202913239Y-118521175D01*
X202814641Y-118153203D01*
X202743996Y-118073535D01*
X202685674Y-118039863D01*
X202581357Y-118018516D01*
X202443367Y-118055491D01*
X202363699Y-118126136D01*
X202330027Y-118184458D01*
X202308680Y-118288775D01*
X202407278Y-118656747D01*
X201552922Y-117308107D02*
X201700819Y-117860065D01*
X201626871Y-117584086D02*
X202592797Y-117325267D01*
X202479457Y-117454234D01*
X202412113Y-117570876D01*
X202390766Y-117675194D01*
X202297003Y-116221352D02*
X202346302Y-116405338D01*
X202324955Y-116509655D01*
X202291283Y-116567977D01*
X202177943Y-116696944D01*
X202006282Y-116792239D01*
X201638311Y-116890837D01*
X201533993Y-116869490D01*
X201475672Y-116835818D01*
X201405026Y-116756150D01*
X201355727Y-116572164D01*
X201377074Y-116467846D01*
X201410746Y-116409525D01*
X201490414Y-116338879D01*
X201720396Y-116277255D01*
X201824714Y-116298602D01*
X201883035Y-116332274D01*
X201953681Y-116411942D01*
X202002980Y-116595928D01*
X201981633Y-116700246D01*
X201947961Y-116758567D01*
X201868293Y-116829213D01*
%TO.C,R14*%
X177903867Y-96603350D02*
X178349089Y-96229658D01*
X178455825Y-96751246D02*
X178714644Y-95785320D01*
X178346672Y-95686723D01*
X178242354Y-95708070D01*
X178184033Y-95741741D01*
X178113387Y-95821410D01*
X178076413Y-95959399D01*
X178097760Y-96063717D01*
X178131432Y-96122038D01*
X178211100Y-96192684D01*
X178579072Y-96291282D01*
X176983938Y-96356855D02*
X177535895Y-96504752D01*
X177259916Y-96430804D02*
X177518736Y-95464878D01*
X177573754Y-95627517D01*
X177641098Y-95744159D01*
X177720766Y-95814805D01*
X176328547Y-95491060D02*
X176156001Y-96135010D01*
X176657127Y-95184712D02*
X176702239Y-95936282D01*
X176104285Y-95776061D01*
%TO.C,R13*%
X157303867Y-159403350D02*
X157749089Y-159029658D01*
X157855825Y-159551246D02*
X158114644Y-158585320D01*
X157746672Y-158486723D01*
X157642354Y-158508070D01*
X157584033Y-158541741D01*
X157513387Y-158621410D01*
X157476413Y-158759399D01*
X157497760Y-158863717D01*
X157531432Y-158922038D01*
X157611100Y-158992684D01*
X157979072Y-159091282D01*
X156383938Y-159156855D02*
X156935895Y-159304752D01*
X156659916Y-159230804D02*
X156918736Y-158264878D01*
X156973754Y-158427517D01*
X157041098Y-158544159D01*
X157120766Y-158614805D01*
X156320781Y-158104656D02*
X155722827Y-157944435D01*
X155946205Y-158398680D01*
X155808215Y-158361706D01*
X155703898Y-158383053D01*
X155645577Y-158416725D01*
X155574931Y-158496393D01*
X155513307Y-158726375D01*
X155534654Y-158830693D01*
X155568326Y-158889014D01*
X155647994Y-158959660D01*
X155923973Y-159033608D01*
X156028291Y-159012261D01*
X156086612Y-158978589D01*
%TO.C,R12*%
X160703867Y-156803350D02*
X161149089Y-156429658D01*
X161255825Y-156951246D02*
X161514644Y-155985320D01*
X161146672Y-155886723D01*
X161042354Y-155908070D01*
X160984033Y-155941741D01*
X160913387Y-156021410D01*
X160876413Y-156159399D01*
X160897760Y-156263717D01*
X160931432Y-156322038D01*
X161011100Y-156392684D01*
X161379072Y-156491282D01*
X159783938Y-156556855D02*
X160335895Y-156704752D01*
X160059916Y-156630804D02*
X160318736Y-155664878D01*
X160373754Y-155827517D01*
X160441098Y-155944159D01*
X160520766Y-156014805D01*
X159650136Y-155584325D02*
X159616464Y-155526003D01*
X159536796Y-155455358D01*
X159306813Y-155393734D01*
X159202496Y-155415081D01*
X159144174Y-155448753D01*
X159073528Y-155528421D01*
X159048879Y-155620414D01*
X159057901Y-155770728D01*
X159461962Y-156470582D01*
X158864008Y-156310361D01*
%TO.C,MK8*%
X199311963Y-123501987D02*
X200277889Y-123243168D01*
X199501669Y-123106064D01*
X200105343Y-122599218D01*
X199139417Y-122858037D01*
X199016170Y-122398072D02*
X199982095Y-122139253D01*
X198868273Y-121846114D02*
X199531153Y-122112186D01*
X199834199Y-121587295D02*
X199430138Y-122287149D01*
X199272334Y-121146260D02*
X199342980Y-121225928D01*
X199401301Y-121259600D01*
X199505619Y-121280947D01*
X199551615Y-121268622D01*
X199631283Y-121197977D01*
X199664955Y-121139655D01*
X199686302Y-121035338D01*
X199637003Y-120851352D01*
X199566357Y-120771684D01*
X199508036Y-120738012D01*
X199403719Y-120716665D01*
X199357722Y-120728990D01*
X199278054Y-120799635D01*
X199244382Y-120857957D01*
X199223035Y-120962274D01*
X199272334Y-121146260D01*
X199250987Y-121250578D01*
X199217315Y-121308899D01*
X199137647Y-121379545D01*
X198953661Y-121428844D01*
X198849343Y-121407497D01*
X198791022Y-121373825D01*
X198720376Y-121294157D01*
X198671078Y-121110171D01*
X198692425Y-121005853D01*
X198726096Y-120947532D01*
X198805765Y-120876886D01*
X198989750Y-120827587D01*
X199094068Y-120848934D01*
X199152389Y-120882606D01*
X199223035Y-120962274D01*
%TO.C,MK7*%
X181747818Y-97375896D02*
X182006637Y-96409970D01*
X181499791Y-97013644D01*
X181362686Y-96237424D01*
X181103867Y-97203350D01*
X180643902Y-97080102D02*
X180902721Y-96114177D01*
X180091945Y-96932206D02*
X180653810Y-96491171D01*
X180350764Y-95966280D02*
X180754825Y-96666134D01*
X180028788Y-95880007D02*
X179384838Y-95707461D01*
X179539987Y-96784309D01*
%TO.C,MK6*%
X165547818Y-158375896D02*
X165806637Y-157409970D01*
X165299791Y-158013644D01*
X165162686Y-157237424D01*
X164903867Y-158203350D01*
X164443902Y-158080102D02*
X164702721Y-157114177D01*
X163891945Y-157932206D02*
X164453810Y-157491171D01*
X164150764Y-156966280D02*
X164554825Y-157666134D01*
X163322827Y-156744435D02*
X163506813Y-156793734D01*
X163586481Y-156864380D01*
X163620153Y-156922701D01*
X163675172Y-157085340D01*
X163671870Y-157281651D01*
X163573272Y-157649622D01*
X163502626Y-157729290D01*
X163444305Y-157762962D01*
X163339987Y-157784309D01*
X163156001Y-157735010D01*
X163076333Y-157664364D01*
X163042661Y-157606043D01*
X163021314Y-157501726D01*
X163082938Y-157271743D01*
X163153584Y-157192075D01*
X163211905Y-157158403D01*
X163316223Y-157137056D01*
X163500208Y-157186355D01*
X163579877Y-157257001D01*
X163613548Y-157315322D01*
X163634895Y-157419640D01*
%TO.C,C25*%
X202421410Y-129313387D02*
X202387738Y-129371708D01*
X202378716Y-129522022D01*
X202403365Y-129614015D01*
X202486336Y-129739680D01*
X202602978Y-129807024D01*
X202707296Y-129828371D01*
X202903606Y-129825068D01*
X203041596Y-129788094D01*
X203213257Y-129692799D01*
X203292925Y-129622153D01*
X203360269Y-129505511D01*
X203369291Y-129355196D01*
X203344641Y-129263203D01*
X203261671Y-129137539D01*
X203203350Y-129103867D01*
X203104752Y-128735895D02*
X203138424Y-128677574D01*
X203159771Y-128573256D01*
X203098147Y-128343274D01*
X203027501Y-128263606D01*
X202969180Y-128229934D01*
X202864862Y-128208587D01*
X202772869Y-128233237D01*
X202647205Y-128316207D01*
X202243144Y-129016061D01*
X202082922Y-128418107D01*
X202814679Y-127285355D02*
X202937926Y-127745320D01*
X202490286Y-127914564D01*
X202523958Y-127856242D01*
X202545305Y-127751925D01*
X202483681Y-127521942D01*
X202413035Y-127442274D01*
X202354714Y-127408602D01*
X202250396Y-127387255D01*
X202020414Y-127448879D01*
X201940746Y-127519525D01*
X201907074Y-127577846D01*
X201885727Y-127682164D01*
X201947351Y-127912146D01*
X202017996Y-127991814D01*
X202076318Y-128025486D01*
%TO.C,C24*%
X204221410Y-128913387D02*
X204187738Y-128971708D01*
X204178716Y-129122022D01*
X204203365Y-129214015D01*
X204286336Y-129339680D01*
X204402978Y-129407024D01*
X204507296Y-129428371D01*
X204703606Y-129425068D01*
X204841596Y-129388094D01*
X205013257Y-129292799D01*
X205092925Y-129222153D01*
X205160269Y-129105511D01*
X205169291Y-128955196D01*
X205144641Y-128863203D01*
X205061671Y-128737539D01*
X205003350Y-128703867D01*
X204904752Y-128335895D02*
X204938424Y-128277574D01*
X204959771Y-128173256D01*
X204898147Y-127943274D01*
X204827501Y-127863606D01*
X204769180Y-127829934D01*
X204664862Y-127808587D01*
X204572869Y-127833237D01*
X204447205Y-127916207D01*
X204043144Y-128616061D01*
X203882922Y-128018107D01*
X204305028Y-127017625D02*
X203661078Y-127190171D01*
X204734623Y-127149009D02*
X204106300Y-127563863D01*
X203946079Y-126965908D01*
%TO.C,C23*%
X186528516Y-102911357D02*
X186562188Y-102969678D01*
X186687853Y-103052648D01*
X186779846Y-103077298D01*
X186930160Y-103068276D01*
X187046802Y-103000932D01*
X187117448Y-102921264D01*
X187212744Y-102749603D01*
X187249718Y-102611613D01*
X187253020Y-102415303D01*
X187231673Y-102310985D01*
X187164330Y-102194343D01*
X187038665Y-102111372D01*
X186946672Y-102086723D01*
X186796358Y-102095745D01*
X186738037Y-102129417D01*
X186370065Y-102030819D02*
X186336393Y-101972498D01*
X186256725Y-101901852D01*
X186026743Y-101840228D01*
X185922425Y-101861575D01*
X185864104Y-101895247D01*
X185793458Y-101974915D01*
X185768808Y-102066908D01*
X185777831Y-102217222D01*
X186181892Y-102917077D01*
X185583938Y-102756855D01*
X185520781Y-101704656D02*
X184922827Y-101544435D01*
X185146205Y-101998680D01*
X185008215Y-101961706D01*
X184903898Y-101983053D01*
X184845577Y-102016725D01*
X184774931Y-102096393D01*
X184713307Y-102326375D01*
X184734654Y-102430693D01*
X184768326Y-102489014D01*
X184847994Y-102559660D01*
X185123973Y-102633608D01*
X185228291Y-102612261D01*
X185286612Y-102578589D01*
%TO.C,C22*%
X186928515Y-100911357D02*
X186962187Y-100969678D01*
X187087852Y-101052648D01*
X187179845Y-101077298D01*
X187330159Y-101068276D01*
X187446801Y-101000932D01*
X187517447Y-100921264D01*
X187612743Y-100749603D01*
X187649717Y-100611613D01*
X187653019Y-100415303D01*
X187631672Y-100310985D01*
X187564329Y-100194343D01*
X187438664Y-100111372D01*
X187346671Y-100086723D01*
X187196357Y-100095745D01*
X187138036Y-100129417D01*
X186770064Y-100030819D02*
X186736392Y-99972498D01*
X186656724Y-99901852D01*
X186426742Y-99840228D01*
X186322424Y-99861575D01*
X186264103Y-99895247D01*
X186193457Y-99974915D01*
X186168807Y-100066908D01*
X186177830Y-100217222D01*
X186581891Y-100917077D01*
X185983937Y-100756855D01*
X185850135Y-99784325D02*
X185816463Y-99726003D01*
X185736795Y-99655358D01*
X185506812Y-99593734D01*
X185402495Y-99615081D01*
X185344173Y-99648753D01*
X185273527Y-99728421D01*
X185248878Y-99820414D01*
X185257900Y-99970728D01*
X185661961Y-100670582D01*
X185064007Y-100510361D01*
%TO.C,C21*%
X170128517Y-162911357D02*
X170162189Y-162969678D01*
X170287854Y-163052648D01*
X170379847Y-163077298D01*
X170530161Y-163068276D01*
X170646803Y-163000932D01*
X170717449Y-162921264D01*
X170812745Y-162749603D01*
X170849719Y-162611613D01*
X170853021Y-162415303D01*
X170831674Y-162310985D01*
X170764331Y-162194343D01*
X170638666Y-162111372D01*
X170546673Y-162086723D01*
X170396359Y-162095745D01*
X170338038Y-162129417D01*
X169970066Y-162030819D02*
X169936394Y-161972498D01*
X169856726Y-161901852D01*
X169626744Y-161840228D01*
X169522426Y-161861575D01*
X169464105Y-161895247D01*
X169393459Y-161974915D01*
X169368809Y-162066908D01*
X169377832Y-162217222D01*
X169781893Y-162917077D01*
X169183939Y-162756855D01*
X168264009Y-162510361D02*
X168815967Y-162658258D01*
X168539988Y-162584309D02*
X168798807Y-161618383D01*
X168853826Y-161781022D01*
X168921169Y-161897665D01*
X169000838Y-161968311D01*
%TO.C,C20*%
X170728516Y-161111357D02*
X170762188Y-161169678D01*
X170887853Y-161252648D01*
X170979846Y-161277298D01*
X171130160Y-161268276D01*
X171246802Y-161200932D01*
X171317448Y-161121264D01*
X171412744Y-160949603D01*
X171449718Y-160811613D01*
X171453020Y-160615303D01*
X171431673Y-160510985D01*
X171364330Y-160394343D01*
X171238665Y-160311372D01*
X171146672Y-160286723D01*
X170996358Y-160295745D01*
X170938037Y-160329417D01*
X170570065Y-160230819D02*
X170536393Y-160172498D01*
X170456725Y-160101852D01*
X170226743Y-160040228D01*
X170122425Y-160061575D01*
X170064104Y-160095247D01*
X169993458Y-160174915D01*
X169968808Y-160266908D01*
X169977831Y-160417222D01*
X170381892Y-161117077D01*
X169783938Y-160956855D01*
X169444803Y-159830708D02*
X169352810Y-159806059D01*
X169248492Y-159827406D01*
X169190171Y-159861078D01*
X169119525Y-159940746D01*
X169024230Y-160112407D01*
X168962606Y-160342389D01*
X168959304Y-160538700D01*
X168980651Y-160643017D01*
X169014322Y-160701339D01*
X169093991Y-160771985D01*
X169185984Y-160796634D01*
X169290301Y-160775287D01*
X169348622Y-160741615D01*
X169419268Y-160661947D01*
X169514564Y-160490286D01*
X169576187Y-160260303D01*
X169579490Y-160063993D01*
X169558143Y-159959675D01*
X169524471Y-159901354D01*
X169444803Y-159830708D01*
%TO.C,R9*%
X81837732Y-48402030D02*
X81736717Y-47829610D01*
X82241793Y-47997969D02*
X81534687Y-47290862D01*
X81265312Y-47560236D01*
X81231641Y-47661251D01*
X81231641Y-47728595D01*
X81265312Y-47829610D01*
X81366328Y-47930625D01*
X81467343Y-47964297D01*
X81534687Y-47964297D01*
X81635702Y-47930625D01*
X81905076Y-47661251D01*
X81501015Y-48738748D02*
X81366328Y-48873435D01*
X81265312Y-48907106D01*
X81197969Y-48907106D01*
X81029610Y-48873435D01*
X80861251Y-48772419D01*
X80591877Y-48503045D01*
X80558206Y-48402030D01*
X80558206Y-48334687D01*
X80591877Y-48233671D01*
X80726564Y-48098984D01*
X80827580Y-48065312D01*
X80894923Y-48065312D01*
X80995938Y-48098984D01*
X81164297Y-48267343D01*
X81197969Y-48368358D01*
X81197969Y-48435702D01*
X81164297Y-48536717D01*
X81029610Y-48671404D01*
X80928595Y-48705076D01*
X80861251Y-48705076D01*
X80760236Y-48671404D01*
%TO.C,R8*%
X82437732Y-45002031D02*
X82336717Y-44429611D01*
X82841793Y-44597970D02*
X82134687Y-43890863D01*
X81865312Y-44160237D01*
X81831641Y-44261252D01*
X81831641Y-44328596D01*
X81865312Y-44429611D01*
X81966328Y-44530626D01*
X82067343Y-44564298D01*
X82134687Y-44564298D01*
X82235702Y-44530626D01*
X82505076Y-44261252D01*
X81629610Y-45002031D02*
X81663282Y-44901016D01*
X81663282Y-44833672D01*
X81629610Y-44732657D01*
X81595938Y-44698985D01*
X81494923Y-44665313D01*
X81427580Y-44665313D01*
X81326564Y-44698985D01*
X81191877Y-44833672D01*
X81158206Y-44934688D01*
X81158206Y-45002031D01*
X81191877Y-45103046D01*
X81225549Y-45136718D01*
X81326564Y-45170390D01*
X81393908Y-45170390D01*
X81494923Y-45136718D01*
X81629610Y-45002031D01*
X81730625Y-44968359D01*
X81797969Y-44968359D01*
X81898984Y-45002031D01*
X82033671Y-45136718D01*
X82067343Y-45237733D01*
X82067343Y-45305077D01*
X82033671Y-45406092D01*
X81898984Y-45540779D01*
X81797969Y-45574451D01*
X81730625Y-45574451D01*
X81629610Y-45540779D01*
X81494923Y-45406092D01*
X81461251Y-45305077D01*
X81461251Y-45237733D01*
X81494923Y-45136718D01*
%TO.C,R7*%
X188197969Y-41237732D02*
X188770389Y-41136717D01*
X188602030Y-41641793D02*
X189309137Y-40934687D01*
X189039763Y-40665312D01*
X188938748Y-40631641D01*
X188871404Y-40631641D01*
X188770389Y-40665312D01*
X188669374Y-40766328D01*
X188635702Y-40867343D01*
X188635702Y-40934687D01*
X188669374Y-41035702D01*
X188938748Y-41305076D01*
X188669374Y-40294923D02*
X188197969Y-39823519D01*
X187793908Y-40833671D01*
%TO.C,R6*%
X189197969Y-37237731D02*
X189770389Y-37136716D01*
X189602030Y-37641792D02*
X190309137Y-36934686D01*
X190039763Y-36665311D01*
X189938748Y-36631640D01*
X189871404Y-36631640D01*
X189770389Y-36665311D01*
X189669374Y-36766327D01*
X189635702Y-36867342D01*
X189635702Y-36934686D01*
X189669374Y-37035701D01*
X189938748Y-37305075D01*
X189298984Y-35924533D02*
X189433671Y-36059220D01*
X189467343Y-36160235D01*
X189467343Y-36227579D01*
X189433671Y-36395937D01*
X189332656Y-36564296D01*
X189063282Y-36833670D01*
X188962267Y-36867342D01*
X188894923Y-36867342D01*
X188793908Y-36833670D01*
X188659221Y-36698983D01*
X188625549Y-36597968D01*
X188625549Y-36530624D01*
X188659221Y-36429609D01*
X188827580Y-36261250D01*
X188928595Y-36227579D01*
X188995938Y-36227579D01*
X189096954Y-36261250D01*
X189231641Y-36395937D01*
X189265312Y-36496953D01*
X189265312Y-36564296D01*
X189231641Y-36665311D01*
%TO.C,R5*%
X83197969Y-147837732D02*
X83770389Y-147736717D01*
X83602030Y-148241793D02*
X84309137Y-147534687D01*
X84039763Y-147265312D01*
X83938748Y-147231641D01*
X83871404Y-147231641D01*
X83770389Y-147265312D01*
X83669374Y-147366328D01*
X83635702Y-147467343D01*
X83635702Y-147534687D01*
X83669374Y-147635702D01*
X83938748Y-147905076D01*
X83265312Y-146490862D02*
X83602030Y-146827580D01*
X83298984Y-147197969D01*
X83298984Y-147130625D01*
X83265312Y-147029610D01*
X83096954Y-146861251D01*
X82995938Y-146827580D01*
X82928595Y-146827580D01*
X82827580Y-146861251D01*
X82659221Y-147029610D01*
X82625549Y-147130625D01*
X82625549Y-147197969D01*
X82659221Y-147298984D01*
X82827580Y-147467343D01*
X82928595Y-147501015D01*
X82995938Y-147501015D01*
%TO.C,R4*%
X81707969Y-150797732D02*
X82280389Y-150696717D01*
X82112030Y-151201793D02*
X82819137Y-150494687D01*
X82549763Y-150225312D01*
X82448748Y-150191641D01*
X82381404Y-150191641D01*
X82280389Y-150225312D01*
X82179374Y-150326328D01*
X82145702Y-150427343D01*
X82145702Y-150494687D01*
X82179374Y-150595702D01*
X82448748Y-150865076D01*
X81573282Y-149720236D02*
X81101877Y-150191641D01*
X82011015Y-149619221D02*
X81674297Y-150292656D01*
X81236564Y-149854923D01*
%TO.C,R3*%
X194837732Y-147802030D02*
X194736717Y-147229610D01*
X195241793Y-147397969D02*
X194534687Y-146690862D01*
X194265312Y-146960236D01*
X194231641Y-147061251D01*
X194231641Y-147128595D01*
X194265312Y-147229610D01*
X194366328Y-147330625D01*
X194467343Y-147364297D01*
X194534687Y-147364297D01*
X194635702Y-147330625D01*
X194905076Y-147061251D01*
X193894923Y-147330625D02*
X193457190Y-147768358D01*
X193962267Y-147802030D01*
X193861251Y-147903045D01*
X193827580Y-148004061D01*
X193827580Y-148071404D01*
X193861251Y-148172419D01*
X194029610Y-148340778D01*
X194130625Y-148374450D01*
X194197969Y-148374450D01*
X194298984Y-148340778D01*
X194501015Y-148138748D01*
X194534687Y-148037732D01*
X194534687Y-147970389D01*
%TO.C,R2*%
X197637732Y-151002030D02*
X197536717Y-150429610D01*
X198041793Y-150597969D02*
X197334687Y-149890862D01*
X197065312Y-150160236D01*
X197031641Y-150261251D01*
X197031641Y-150328595D01*
X197065312Y-150429610D01*
X197166328Y-150530625D01*
X197267343Y-150564297D01*
X197334687Y-150564297D01*
X197435702Y-150530625D01*
X197705076Y-150261251D01*
X196728595Y-150631641D02*
X196661251Y-150631641D01*
X196560236Y-150665312D01*
X196391877Y-150833671D01*
X196358206Y-150934687D01*
X196358206Y-151002030D01*
X196391877Y-151103045D01*
X196459221Y-151170389D01*
X196593908Y-151237732D01*
X197402030Y-151237732D01*
X196964297Y-151675465D01*
%TO.C,MK4*%
D16*
X86162174Y-43525932D02*
X85821045Y-43184804D01*
X85950999Y-43542177D01*
X85593626Y-43412223D01*
X85934755Y-43753352D01*
X85772312Y-43915794D02*
X85431184Y-43574665D01*
X85577382Y-44110725D02*
X85528649Y-43769596D01*
X85236253Y-43769596D02*
X85626114Y-43769596D01*
X85057566Y-44175702D02*
X85284986Y-44403121D01*
X85008834Y-43964527D02*
X85333718Y-44126969D01*
X85122543Y-44338144D01*
%TO.C,MK2*%
D10*
X86424500Y-151245854D02*
X87131607Y-150538748D01*
X86390828Y-150808122D01*
X86660202Y-150067343D01*
X85953096Y-150774450D01*
X85616378Y-150437732D02*
X86323485Y-149730625D01*
X85212317Y-150033671D02*
X85919424Y-149932656D01*
X85919424Y-149326564D02*
X85919424Y-150134687D01*
X85582706Y-149124534D02*
X85582706Y-149057190D01*
X85549034Y-148956175D01*
X85380676Y-148787816D01*
X85279660Y-148754145D01*
X85212317Y-148754145D01*
X85111302Y-148787816D01*
X85043958Y-148855160D01*
X84976615Y-148989847D01*
X84976615Y-149797969D01*
X84538882Y-149360236D01*
%TO.C,MK1*%
X193445853Y-149393908D02*
X192738747Y-148686801D01*
X193008121Y-149427580D01*
X192267342Y-149158206D01*
X192974449Y-149865312D01*
X192637731Y-150202030D02*
X191930624Y-149494923D01*
X192233670Y-150606091D02*
X192132655Y-149898984D01*
X191526563Y-149898984D02*
X192334686Y-149898984D01*
X191560235Y-151279526D02*
X191964296Y-150875465D01*
X191762266Y-151077496D02*
X191055159Y-150370389D01*
X191223518Y-150404061D01*
X191358205Y-150404061D01*
X191459220Y-150370389D01*
%TO.C,JP3*%
X145233333Y-79852380D02*
X145233333Y-80566666D01*
X145280952Y-80709523D01*
X145376190Y-80804761D01*
X145519047Y-80852380D01*
X145614285Y-80852380D01*
X144757142Y-80852380D02*
X144757142Y-79852380D01*
X144376190Y-79852380D01*
X144280952Y-79900000D01*
X144233333Y-79947619D01*
X144185714Y-80042857D01*
X144185714Y-80185714D01*
X144233333Y-80280952D01*
X144280952Y-80328571D01*
X144376190Y-80376190D01*
X144757142Y-80376190D01*
X143852380Y-79852380D02*
X143233333Y-79852380D01*
X143566666Y-80233333D01*
X143423809Y-80233333D01*
X143328571Y-80280952D01*
X143280952Y-80328571D01*
X143233333Y-80423809D01*
X143233333Y-80661904D01*
X143280952Y-80757142D01*
X143328571Y-80804761D01*
X143423809Y-80852380D01*
X143709523Y-80852380D01*
X143804761Y-80804761D01*
X143852380Y-80757142D01*
%TO.C,JP2*%
X133633333Y-79852380D02*
X133633333Y-80566666D01*
X133680952Y-80709523D01*
X133776190Y-80804761D01*
X133919047Y-80852380D01*
X134014285Y-80852380D01*
X133157142Y-80852380D02*
X133157142Y-79852380D01*
X132776190Y-79852380D01*
X132680952Y-79900000D01*
X132633333Y-79947619D01*
X132585714Y-80042857D01*
X132585714Y-80185714D01*
X132633333Y-80280952D01*
X132680952Y-80328571D01*
X132776190Y-80376190D01*
X133157142Y-80376190D01*
X132204761Y-79947619D02*
X132157142Y-79900000D01*
X132061904Y-79852380D01*
X131823809Y-79852380D01*
X131728571Y-79900000D01*
X131680952Y-79947619D01*
X131633333Y-80042857D01*
X131633333Y-80138095D01*
X131680952Y-80280952D01*
X132252380Y-80852380D01*
X131633333Y-80852380D01*
%TO.C,JP1*%
X139634333Y-79452380D02*
X139634333Y-80166666D01*
X139681952Y-80309523D01*
X139777190Y-80404761D01*
X139920047Y-80452380D01*
X140015285Y-80452380D01*
X139158142Y-80452380D02*
X139158142Y-79452380D01*
X138777190Y-79452380D01*
X138681952Y-79500000D01*
X138634333Y-79547619D01*
X138586714Y-79642857D01*
X138586714Y-79785714D01*
X138634333Y-79880952D01*
X138681952Y-79928571D01*
X138777190Y-79976190D01*
X139158142Y-79976190D01*
X137634333Y-80452380D02*
X138205761Y-80452380D01*
X137920047Y-80452380D02*
X137920047Y-79452380D01*
X138015285Y-79595238D01*
X138110523Y-79690476D01*
X138205761Y-79738095D01*
%TO.C,C17*%
X89907106Y-37997969D02*
X89974450Y-37997969D01*
X90109137Y-37930625D01*
X90176480Y-37863282D01*
X90243824Y-37728595D01*
X90243824Y-37593908D01*
X90210152Y-37492893D01*
X90109137Y-37324534D01*
X90008122Y-37223519D01*
X89839763Y-37122503D01*
X89738748Y-37088832D01*
X89604061Y-37088832D01*
X89469374Y-37156175D01*
X89402030Y-37223519D01*
X89334687Y-37358206D01*
X89334687Y-37425549D01*
X89301015Y-38738748D02*
X89705076Y-38334687D01*
X89503045Y-38536717D02*
X88795938Y-37829610D01*
X88964297Y-37863282D01*
X89098984Y-37863282D01*
X89200000Y-37829610D01*
X88358206Y-38267343D02*
X87886801Y-38738748D01*
X88896954Y-39142809D01*
%TO.C,C16*%
X88907106Y-36997969D02*
X88974450Y-36997969D01*
X89109137Y-36930625D01*
X89176480Y-36863282D01*
X89243824Y-36728595D01*
X89243824Y-36593908D01*
X89210152Y-36492893D01*
X89109137Y-36324534D01*
X89008122Y-36223519D01*
X88839763Y-36122503D01*
X88738748Y-36088832D01*
X88604061Y-36088832D01*
X88469374Y-36156175D01*
X88402030Y-36223519D01*
X88334687Y-36358206D01*
X88334687Y-36425549D01*
X88301015Y-37738748D02*
X88705076Y-37334687D01*
X88503045Y-37536717D02*
X87795938Y-36829610D01*
X87964297Y-36863282D01*
X88098984Y-36863282D01*
X88200000Y-36829610D01*
X86987816Y-37637732D02*
X87122503Y-37503045D01*
X87223519Y-37469374D01*
X87290862Y-37469374D01*
X87459221Y-37503045D01*
X87627580Y-37604061D01*
X87896954Y-37873435D01*
X87930625Y-37974450D01*
X87930625Y-38041793D01*
X87896954Y-38142809D01*
X87762267Y-38277496D01*
X87661251Y-38311167D01*
X87593908Y-38311167D01*
X87492893Y-38277496D01*
X87324534Y-38109137D01*
X87290862Y-38008122D01*
X87290862Y-37940778D01*
X87324534Y-37839763D01*
X87459221Y-37705076D01*
X87560236Y-37671404D01*
X87627580Y-37671404D01*
X87728595Y-37705076D01*
%TO.C,C15*%
X197802030Y-48707106D02*
X197802030Y-48774450D01*
X197869374Y-48909137D01*
X197936717Y-48976480D01*
X198071404Y-49043824D01*
X198206091Y-49043824D01*
X198307106Y-49010152D01*
X198475465Y-48909137D01*
X198576480Y-48808122D01*
X198677496Y-48639763D01*
X198711167Y-48538748D01*
X198711167Y-48404061D01*
X198643824Y-48269374D01*
X198576480Y-48202030D01*
X198441793Y-48134687D01*
X198374450Y-48134687D01*
X197061251Y-48101015D02*
X197465312Y-48505076D01*
X197263282Y-48303045D02*
X197970389Y-47595938D01*
X197936717Y-47764297D01*
X197936717Y-47898984D01*
X197970389Y-47999999D01*
X197128595Y-46754145D02*
X197465312Y-47090862D01*
X197162267Y-47461251D01*
X197162267Y-47393908D01*
X197128595Y-47292893D01*
X196960236Y-47124534D01*
X196859221Y-47090862D01*
X196791877Y-47090862D01*
X196690862Y-47124534D01*
X196522503Y-47292893D01*
X196488832Y-47393908D01*
X196488832Y-47461251D01*
X196522503Y-47562267D01*
X196690862Y-47730625D01*
X196791877Y-47764297D01*
X196859221Y-47764297D01*
%TO.C,C14*%
X199202030Y-47307107D02*
X199202030Y-47374451D01*
X199269374Y-47509138D01*
X199336717Y-47576481D01*
X199471404Y-47643825D01*
X199606091Y-47643825D01*
X199707106Y-47610153D01*
X199875465Y-47509138D01*
X199976480Y-47408123D01*
X200077496Y-47239764D01*
X200111167Y-47138749D01*
X200111167Y-47004062D01*
X200043824Y-46869375D01*
X199976480Y-46802031D01*
X199841793Y-46734688D01*
X199774450Y-46734688D01*
X198461251Y-46701016D02*
X198865312Y-47105077D01*
X198663282Y-46903046D02*
X199370389Y-46195939D01*
X199336717Y-46364298D01*
X199336717Y-46498985D01*
X199370389Y-46600000D01*
X198326564Y-45623520D02*
X197855160Y-46094924D01*
X198764297Y-45522504D02*
X198427580Y-46195939D01*
X197989847Y-45758207D01*
%TO.C,C13*%
X89802030Y-156707106D02*
X89802030Y-156774450D01*
X89869374Y-156909137D01*
X89936717Y-156976480D01*
X90071404Y-157043824D01*
X90206091Y-157043824D01*
X90307106Y-157010152D01*
X90475465Y-156909137D01*
X90576480Y-156808122D01*
X90677496Y-156639763D01*
X90711167Y-156538748D01*
X90711167Y-156404061D01*
X90643824Y-156269374D01*
X90576480Y-156202030D01*
X90441793Y-156134687D01*
X90374450Y-156134687D01*
X89061251Y-156101015D02*
X89465312Y-156505076D01*
X89263282Y-156303045D02*
X89970389Y-155595938D01*
X89936717Y-155764297D01*
X89936717Y-155898984D01*
X89970389Y-156000000D01*
X89532656Y-155158206D02*
X89094923Y-154720473D01*
X89061251Y-155225549D01*
X88960236Y-155124534D01*
X88859221Y-155090862D01*
X88791877Y-155090862D01*
X88690862Y-155124534D01*
X88522503Y-155292893D01*
X88488832Y-155393908D01*
X88488832Y-155461251D01*
X88522503Y-155562267D01*
X88724534Y-155764297D01*
X88825549Y-155797969D01*
X88892893Y-155797969D01*
%TO.C,C12*%
X88802030Y-157707106D02*
X88802030Y-157774450D01*
X88869374Y-157909137D01*
X88936717Y-157976480D01*
X89071404Y-158043824D01*
X89206091Y-158043824D01*
X89307106Y-158010152D01*
X89475465Y-157909137D01*
X89576480Y-157808122D01*
X89677496Y-157639763D01*
X89711167Y-157538748D01*
X89711167Y-157404061D01*
X89643824Y-157269374D01*
X89576480Y-157202030D01*
X89441793Y-157134687D01*
X89374450Y-157134687D01*
X88061251Y-157101015D02*
X88465312Y-157505076D01*
X88263282Y-157303045D02*
X88970389Y-156595938D01*
X88936717Y-156764297D01*
X88936717Y-156898984D01*
X88970389Y-157000000D01*
X88431641Y-156191877D02*
X88431641Y-156124534D01*
X88397969Y-156023519D01*
X88229610Y-155855160D01*
X88128595Y-155821488D01*
X88061251Y-155821488D01*
X87960236Y-155855160D01*
X87892893Y-155922503D01*
X87825549Y-156057190D01*
X87825549Y-156865312D01*
X87387816Y-156427580D01*
%TO.C,C11*%
X190307106Y-156597968D02*
X190374450Y-156597968D01*
X190509137Y-156530624D01*
X190576480Y-156463281D01*
X190643824Y-156328594D01*
X190643824Y-156193907D01*
X190610152Y-156092892D01*
X190509137Y-155924533D01*
X190408122Y-155823518D01*
X190239763Y-155722502D01*
X190138748Y-155688831D01*
X190004061Y-155688831D01*
X189869374Y-155756174D01*
X189802030Y-155823518D01*
X189734687Y-155958205D01*
X189734687Y-156025548D01*
X189701015Y-157338747D02*
X190105076Y-156934686D01*
X189903045Y-157136716D02*
X189195938Y-156429609D01*
X189364297Y-156463281D01*
X189498984Y-156463281D01*
X189599999Y-156429609D01*
X189027580Y-158012182D02*
X189431641Y-157608121D01*
X189229610Y-157810151D02*
X188522503Y-157103044D01*
X188690862Y-157136716D01*
X188825549Y-157136716D01*
X188926564Y-157103044D01*
%TO.C,C10*%
X189107106Y-155597969D02*
X189174450Y-155597969D01*
X189309137Y-155530625D01*
X189376480Y-155463282D01*
X189443824Y-155328595D01*
X189443824Y-155193908D01*
X189410152Y-155092893D01*
X189309137Y-154924534D01*
X189208122Y-154823519D01*
X189039763Y-154722503D01*
X188938748Y-154688832D01*
X188804061Y-154688832D01*
X188669374Y-154756175D01*
X188602030Y-154823519D01*
X188534687Y-154958206D01*
X188534687Y-155025549D01*
X188501015Y-156338748D02*
X188905076Y-155934687D01*
X188703045Y-156136717D02*
X187995938Y-155429610D01*
X188164297Y-155463282D01*
X188298984Y-155463282D01*
X188399999Y-155429610D01*
X187356175Y-156069374D02*
X187288832Y-156136717D01*
X187255160Y-156237732D01*
X187255160Y-156305076D01*
X187288832Y-156406091D01*
X187389847Y-156574450D01*
X187558206Y-156742809D01*
X187726564Y-156843824D01*
X187827580Y-156877496D01*
X187894923Y-156877496D01*
X187995938Y-156843824D01*
X188063282Y-156776480D01*
X188096954Y-156675465D01*
X188096954Y-156608122D01*
X188063282Y-156507106D01*
X187962267Y-156338748D01*
X187793908Y-156170389D01*
X187625549Y-156069374D01*
X187524534Y-156035702D01*
X187457190Y-156035702D01*
X187356175Y-156069374D01*
%TO.C,C1*%
X118970389Y-89334687D02*
X119037732Y-89334687D01*
X119172419Y-89267343D01*
X119239763Y-89200000D01*
X119307106Y-89065312D01*
X119307106Y-88930625D01*
X119273435Y-88829610D01*
X119172419Y-88661251D01*
X119071404Y-88560236D01*
X118903045Y-88459221D01*
X118802030Y-88425549D01*
X118667343Y-88425549D01*
X118532656Y-88492893D01*
X118465312Y-88560236D01*
X118397969Y-88694923D01*
X118397969Y-88762267D01*
X118364297Y-90075465D02*
X118768358Y-89671404D01*
X118566328Y-89873435D02*
X117859221Y-89166328D01*
X118027580Y-89200000D01*
X118162267Y-89200000D01*
X118263282Y-89166328D01*
%TO.C,C2*%
X119980632Y-104846850D02*
X120047975Y-104846850D01*
X120182662Y-104779506D01*
X120250006Y-104712163D01*
X120317349Y-104577475D01*
X120317349Y-104442788D01*
X120283678Y-104341773D01*
X120182662Y-104173414D01*
X120081647Y-104072399D01*
X119913288Y-103971384D01*
X119812273Y-103937712D01*
X119677586Y-103937712D01*
X119542899Y-104005056D01*
X119475555Y-104072399D01*
X119408212Y-104207086D01*
X119408212Y-104274430D01*
X119138838Y-104543804D02*
X119071494Y-104543804D01*
X118970479Y-104577475D01*
X118802120Y-104745834D01*
X118768449Y-104846850D01*
X118768449Y-104914193D01*
X118802120Y-105015208D01*
X118869464Y-105082552D01*
X119004151Y-105149895D01*
X119812273Y-105149895D01*
X119374540Y-105587628D01*
%TO.C,C3*%
X127882552Y-106746770D02*
X127949895Y-106746770D01*
X128084582Y-106679426D01*
X128151926Y-106612083D01*
X128219269Y-106477395D01*
X128219269Y-106342708D01*
X128185598Y-106241693D01*
X128084582Y-106073334D01*
X127983567Y-105972319D01*
X127815208Y-105871304D01*
X127714193Y-105837632D01*
X127579506Y-105837632D01*
X127444819Y-105904976D01*
X127377475Y-105972319D01*
X127310132Y-106107006D01*
X127310132Y-106174350D01*
X127007086Y-106342708D02*
X126569353Y-106780441D01*
X127074430Y-106814113D01*
X126973414Y-106915128D01*
X126939743Y-107016144D01*
X126939743Y-107083487D01*
X126973414Y-107184502D01*
X127141773Y-107352861D01*
X127242788Y-107386533D01*
X127310132Y-107386533D01*
X127411147Y-107352861D01*
X127613178Y-107150831D01*
X127646850Y-107049815D01*
X127646850Y-106982472D01*
%TO.C,C4*%
X115859226Y-92423524D02*
X115926569Y-92423524D01*
X116061256Y-92356180D01*
X116128600Y-92288837D01*
X116195943Y-92154149D01*
X116195943Y-92019462D01*
X116162272Y-91918447D01*
X116061256Y-91750088D01*
X115960241Y-91649073D01*
X115791882Y-91548058D01*
X115690867Y-91514386D01*
X115556180Y-91514386D01*
X115421493Y-91581730D01*
X115354149Y-91649073D01*
X115286806Y-91783760D01*
X115286806Y-91851104D01*
X114849073Y-92625554D02*
X115320478Y-93096959D01*
X114748058Y-92187821D02*
X115421493Y-92524539D01*
X114983760Y-92962272D01*
%TO.C,C5*%
X122667666Y-107688062D02*
X122715285Y-107735681D01*
X122858142Y-107783300D01*
X122953380Y-107783300D01*
X123096238Y-107735681D01*
X123191476Y-107640443D01*
X123239095Y-107545205D01*
X123286714Y-107354729D01*
X123286714Y-107211872D01*
X123239095Y-107021396D01*
X123191476Y-106926158D01*
X123096238Y-106830920D01*
X122953380Y-106783300D01*
X122858142Y-106783300D01*
X122715285Y-106830920D01*
X122667666Y-106878539D01*
X121762904Y-106783300D02*
X122239095Y-106783300D01*
X122286714Y-107259491D01*
X122239095Y-107211872D01*
X122143857Y-107164253D01*
X121905761Y-107164253D01*
X121810523Y-107211872D01*
X121762904Y-107259491D01*
X121715285Y-107354729D01*
X121715285Y-107592824D01*
X121762904Y-107688062D01*
X121810523Y-107735681D01*
X121905761Y-107783300D01*
X122143857Y-107783300D01*
X122239095Y-107735681D01*
X122286714Y-107688062D01*
%TO.C,C6*%
X123770389Y-88934687D02*
X123837732Y-88934687D01*
X123972419Y-88867343D01*
X124039763Y-88800000D01*
X124107106Y-88665312D01*
X124107106Y-88530625D01*
X124073435Y-88429610D01*
X123972419Y-88261251D01*
X123871404Y-88160236D01*
X123703045Y-88059221D01*
X123602030Y-88025549D01*
X123467343Y-88025549D01*
X123332656Y-88092893D01*
X123265312Y-88160236D01*
X123197969Y-88294923D01*
X123197969Y-88362267D01*
X122524534Y-88901015D02*
X122659221Y-88766328D01*
X122760236Y-88732656D01*
X122827580Y-88732656D01*
X122995938Y-88766328D01*
X123164297Y-88867343D01*
X123433671Y-89136717D01*
X123467343Y-89237732D01*
X123467343Y-89305076D01*
X123433671Y-89406091D01*
X123298984Y-89540778D01*
X123197969Y-89574450D01*
X123130625Y-89574450D01*
X123029610Y-89540778D01*
X122861251Y-89372419D01*
X122827580Y-89271404D01*
X122827580Y-89204061D01*
X122861251Y-89103045D01*
X122995938Y-88968358D01*
X123096954Y-88934687D01*
X123164297Y-88934687D01*
X123265312Y-88968358D01*
%TO.C,C7*%
X132166666Y-94557142D02*
X132214285Y-94604761D01*
X132357142Y-94652380D01*
X132452380Y-94652380D01*
X132595238Y-94604761D01*
X132690476Y-94509523D01*
X132738095Y-94414285D01*
X132785714Y-94223809D01*
X132785714Y-94080952D01*
X132738095Y-93890476D01*
X132690476Y-93795238D01*
X132595238Y-93700000D01*
X132452380Y-93652380D01*
X132357142Y-93652380D01*
X132214285Y-93700000D01*
X132166666Y-93747619D01*
X131833333Y-93652380D02*
X131166666Y-93652380D01*
X131595238Y-94652380D01*
%TO.C,C8*%
X114865312Y-102970389D02*
X114865312Y-103037732D01*
X114932656Y-103172419D01*
X115000000Y-103239763D01*
X115134687Y-103307106D01*
X115269374Y-103307106D01*
X115370389Y-103273435D01*
X115538748Y-103172419D01*
X115639763Y-103071404D01*
X115740778Y-102903045D01*
X115774450Y-102802030D01*
X115774450Y-102667343D01*
X115707106Y-102532656D01*
X115639763Y-102465312D01*
X115505076Y-102397969D01*
X115437732Y-102397969D01*
X114797969Y-102229610D02*
X114898984Y-102263282D01*
X114966328Y-102263282D01*
X115067343Y-102229610D01*
X115101015Y-102195938D01*
X115134687Y-102094923D01*
X115134687Y-102027580D01*
X115101015Y-101926564D01*
X114966328Y-101791877D01*
X114865312Y-101758206D01*
X114797969Y-101758206D01*
X114696954Y-101791877D01*
X114663282Y-101825549D01*
X114629610Y-101926564D01*
X114629610Y-101993908D01*
X114663282Y-102094923D01*
X114797969Y-102229610D01*
X114831641Y-102330625D01*
X114831641Y-102397969D01*
X114797969Y-102498984D01*
X114663282Y-102633671D01*
X114562267Y-102667343D01*
X114494923Y-102667343D01*
X114393908Y-102633671D01*
X114259221Y-102498984D01*
X114225549Y-102397969D01*
X114225549Y-102330625D01*
X114259221Y-102229610D01*
X114393908Y-102094923D01*
X114494923Y-102061251D01*
X114562267Y-102061251D01*
X114663282Y-102094923D01*
%TO.C,C9*%
X113570389Y-95934687D02*
X113637732Y-95934687D01*
X113772419Y-95867343D01*
X113839763Y-95800000D01*
X113907106Y-95665312D01*
X113907106Y-95530625D01*
X113873435Y-95429610D01*
X113772419Y-95261251D01*
X113671404Y-95160236D01*
X113503045Y-95059221D01*
X113402030Y-95025549D01*
X113267343Y-95025549D01*
X113132656Y-95092893D01*
X113065312Y-95160236D01*
X112997969Y-95294923D01*
X112997969Y-95362267D01*
X113301015Y-96338748D02*
X113166328Y-96473435D01*
X113065312Y-96507106D01*
X112997969Y-96507106D01*
X112829610Y-96473435D01*
X112661251Y-96372419D01*
X112391877Y-96103045D01*
X112358206Y-96002030D01*
X112358206Y-95934687D01*
X112391877Y-95833671D01*
X112526564Y-95698984D01*
X112627580Y-95665312D01*
X112694923Y-95665312D01*
X112795938Y-95698984D01*
X112964297Y-95867343D01*
X112997969Y-95968358D01*
X112997969Y-96035702D01*
X112964297Y-96136717D01*
X112829610Y-96271404D01*
X112728595Y-96305076D01*
X112661251Y-96305076D01*
X112560236Y-96271404D01*
%TO.C,L1*%
X113597969Y-99637732D02*
X113934687Y-99974450D01*
X114641793Y-99267343D01*
X112991877Y-99031641D02*
X113395938Y-99435702D01*
X113193908Y-99233671D02*
X113901015Y-98526564D01*
X113867343Y-98694923D01*
X113867343Y-98829610D01*
X113901015Y-98930625D01*
%TO.C,R1*%
X129992048Y-104670040D02*
X129891033Y-104097620D01*
X130396109Y-104265979D02*
X129689003Y-103558872D01*
X129419628Y-103828246D01*
X129385957Y-103929261D01*
X129385957Y-103996605D01*
X129419628Y-104097620D01*
X129520644Y-104198635D01*
X129621659Y-104232307D01*
X129689003Y-104232307D01*
X129790018Y-104198635D01*
X130059392Y-103929261D01*
X129318613Y-105343475D02*
X129722674Y-104939414D01*
X129520644Y-105141445D02*
X128813537Y-104434338D01*
X128981896Y-104468010D01*
X129116583Y-104468010D01*
X129217598Y-104434338D01*
%TO.C,JP4*%
X127584333Y-88953300D02*
X127584333Y-89667586D01*
X127631952Y-89810443D01*
X127727190Y-89905681D01*
X127870047Y-89953300D01*
X127965285Y-89953300D01*
X127108142Y-89953300D02*
X127108142Y-88953300D01*
X126727190Y-88953300D01*
X126631952Y-89000920D01*
X126584333Y-89048539D01*
X126536714Y-89143777D01*
X126536714Y-89286634D01*
X126584333Y-89381872D01*
X126631952Y-89429491D01*
X126727190Y-89477110D01*
X127108142Y-89477110D01*
X125679571Y-89286634D02*
X125679571Y-89953300D01*
X125917666Y-88905681D02*
X126155761Y-89619967D01*
X125536714Y-89619967D01*
%TO.C,JP5*%
X141852380Y-102816666D02*
X142566666Y-102816666D01*
X142709523Y-102769047D01*
X142804761Y-102673809D01*
X142852380Y-102530952D01*
X142852380Y-102435714D01*
X142852380Y-103292857D02*
X141852380Y-103292857D01*
X141852380Y-103673809D01*
X141900000Y-103769047D01*
X141947619Y-103816666D01*
X142042857Y-103864285D01*
X142185714Y-103864285D01*
X142280952Y-103816666D01*
X142328571Y-103769047D01*
X142376190Y-103673809D01*
X142376190Y-103292857D01*
X141852380Y-104769047D02*
X141852380Y-104292857D01*
X142328571Y-104245238D01*
X142280952Y-104292857D01*
X142233333Y-104388095D01*
X142233333Y-104626190D01*
X142280952Y-104721428D01*
X142328571Y-104769047D01*
X142423809Y-104816666D01*
X142661904Y-104816666D01*
X142757142Y-104769047D01*
X142804761Y-104721428D01*
X142852380Y-104626190D01*
X142852380Y-104388095D01*
X142804761Y-104292857D01*
X142757142Y-104245238D01*
%TO.C,JP6*%
X137652380Y-102866666D02*
X138366666Y-102866666D01*
X138509523Y-102819047D01*
X138604761Y-102723809D01*
X138652380Y-102580952D01*
X138652380Y-102485714D01*
X138652380Y-103342857D02*
X137652380Y-103342857D01*
X137652380Y-103723809D01*
X137700000Y-103819047D01*
X137747619Y-103866666D01*
X137842857Y-103914285D01*
X137985714Y-103914285D01*
X138080952Y-103866666D01*
X138128571Y-103819047D01*
X138176190Y-103723809D01*
X138176190Y-103342857D01*
X137652380Y-104771428D02*
X137652380Y-104580952D01*
X137700000Y-104485714D01*
X137747619Y-104438095D01*
X137890476Y-104342857D01*
X138080952Y-104295238D01*
X138461904Y-104295238D01*
X138557142Y-104342857D01*
X138604761Y-104390476D01*
X138652380Y-104485714D01*
X138652380Y-104676190D01*
X138604761Y-104771428D01*
X138557142Y-104819047D01*
X138461904Y-104866666D01*
X138223809Y-104866666D01*
X138128571Y-104819047D01*
X138080952Y-104771428D01*
X138033333Y-104676190D01*
X138033333Y-104485714D01*
X138080952Y-104390476D01*
X138128571Y-104342857D01*
X138223809Y-104295238D01*
%TD*%
M02*
