%TF.GenerationSoftware,KiCad,Pcbnew,(5.1.6-0-10_14)*%
%TF.CreationDate,2020-07-21T12:28:25+02:00*%
%TF.ProjectId,audio_shield,61756469-6f5f-4736-9869-656c642e6b69,A*%
%TF.SameCoordinates,Original*%
%TF.FileFunction,Legend,Top*%
%TF.FilePolarity,Positive*%
%FSLAX46Y46*%
G04 Gerber Fmt 4.6, Leading zero omitted, Abs format (unit mm)*
G04 Created by KiCad (PCBNEW (5.1.6-0-10_14)) date 2020-07-21 12:28:25*
%MOMM*%
%LPD*%
G01*
G04 APERTURE LIST*
%ADD10C,0.150000*%
%ADD11C,0.300000*%
%ADD12C,0.400000*%
%ADD13C,0.200000*%
%ADD14C,0.120000*%
%ADD15C,0.100000*%
G04 APERTURE END LIST*
D10*
X177002200Y-166007200D02*
X177002200Y-198007200D01*
X285002200Y-198007200D01*
X285002200Y-166007200D01*
X177002200Y-166007200D01*
X10000000Y-10000000D02*
X10000000Y-200007200D01*
X287002200Y-200007200D01*
X287002200Y-10000000D01*
X10000000Y-10000000D01*
X12000000Y-12000000D02*
X12000000Y-198007200D01*
X285002200Y-198007200D01*
X285002200Y-12000000D01*
X12000000Y-12000000D01*
X60000000Y-12000000D02*
X60000000Y-10000000D01*
X110000000Y-12000000D02*
X110000000Y-10000000D01*
X160000000Y-12000000D02*
X160000000Y-10000000D01*
X210000000Y-12000000D02*
X210000000Y-10000000D01*
X260000000Y-12000000D02*
X260000000Y-10000000D01*
X36065476Y-11588095D02*
X35322619Y-11588095D01*
X35694047Y-11588095D02*
X35694047Y-10288095D01*
X35570238Y-10473809D01*
X35446428Y-10597619D01*
X35322619Y-10659523D01*
X85322619Y-10411904D02*
X85384523Y-10350000D01*
X85508333Y-10288095D01*
X85817857Y-10288095D01*
X85941666Y-10350000D01*
X86003571Y-10411904D01*
X86065476Y-10535714D01*
X86065476Y-10659523D01*
X86003571Y-10845238D01*
X85260714Y-11588095D01*
X86065476Y-11588095D01*
X135260714Y-10288095D02*
X136065476Y-10288095D01*
X135632142Y-10783333D01*
X135817857Y-10783333D01*
X135941666Y-10845238D01*
X136003571Y-10907142D01*
X136065476Y-11030952D01*
X136065476Y-11340476D01*
X136003571Y-11464285D01*
X135941666Y-11526190D01*
X135817857Y-11588095D01*
X135446428Y-11588095D01*
X135322619Y-11526190D01*
X135260714Y-11464285D01*
X185941666Y-10721428D02*
X185941666Y-11588095D01*
X185632142Y-10226190D02*
X185322619Y-11154761D01*
X186127380Y-11154761D01*
X236003571Y-10288095D02*
X235384523Y-10288095D01*
X235322619Y-10907142D01*
X235384523Y-10845238D01*
X235508333Y-10783333D01*
X235817857Y-10783333D01*
X235941666Y-10845238D01*
X236003571Y-10907142D01*
X236065476Y-11030952D01*
X236065476Y-11340476D01*
X236003571Y-11464285D01*
X235941666Y-11526190D01*
X235817857Y-11588095D01*
X235508333Y-11588095D01*
X235384523Y-11526190D01*
X235322619Y-11464285D01*
X285941666Y-10288095D02*
X285694047Y-10288095D01*
X285570238Y-10350000D01*
X285508333Y-10411904D01*
X285384523Y-10597619D01*
X285322619Y-10845238D01*
X285322619Y-11340476D01*
X285384523Y-11464285D01*
X285446428Y-11526190D01*
X285570238Y-11588095D01*
X285817857Y-11588095D01*
X285941666Y-11526190D01*
X286003571Y-11464285D01*
X286065476Y-11340476D01*
X286065476Y-11030952D01*
X286003571Y-10907142D01*
X285941666Y-10845238D01*
X285817857Y-10783333D01*
X285570238Y-10783333D01*
X285446428Y-10845238D01*
X285384523Y-10907142D01*
X285322619Y-11030952D01*
X60000000Y-198007200D02*
X60000000Y-200007200D01*
X110000000Y-198007200D02*
X110000000Y-200007200D01*
X160000000Y-198007200D02*
X160000000Y-200007200D01*
X210000000Y-198007200D02*
X210000000Y-200007200D01*
X260000000Y-198007200D02*
X260000000Y-200007200D01*
X36065476Y-199595295D02*
X35322619Y-199595295D01*
X35694047Y-199595295D02*
X35694047Y-198295295D01*
X35570238Y-198481009D01*
X35446428Y-198604819D01*
X35322619Y-198666723D01*
X85322619Y-198419104D02*
X85384523Y-198357200D01*
X85508333Y-198295295D01*
X85817857Y-198295295D01*
X85941666Y-198357200D01*
X86003571Y-198419104D01*
X86065476Y-198542914D01*
X86065476Y-198666723D01*
X86003571Y-198852438D01*
X85260714Y-199595295D01*
X86065476Y-199595295D01*
X135260714Y-198295295D02*
X136065476Y-198295295D01*
X135632142Y-198790533D01*
X135817857Y-198790533D01*
X135941666Y-198852438D01*
X136003571Y-198914342D01*
X136065476Y-199038152D01*
X136065476Y-199347676D01*
X136003571Y-199471485D01*
X135941666Y-199533390D01*
X135817857Y-199595295D01*
X135446428Y-199595295D01*
X135322619Y-199533390D01*
X135260714Y-199471485D01*
X185941666Y-198728628D02*
X185941666Y-199595295D01*
X185632142Y-198233390D02*
X185322619Y-199161961D01*
X186127380Y-199161961D01*
X236003571Y-198295295D02*
X235384523Y-198295295D01*
X235322619Y-198914342D01*
X235384523Y-198852438D01*
X235508333Y-198790533D01*
X235817857Y-198790533D01*
X235941666Y-198852438D01*
X236003571Y-198914342D01*
X236065476Y-199038152D01*
X236065476Y-199347676D01*
X236003571Y-199471485D01*
X235941666Y-199533390D01*
X235817857Y-199595295D01*
X235508333Y-199595295D01*
X235384523Y-199533390D01*
X235322619Y-199471485D01*
X285941666Y-198295295D02*
X285694047Y-198295295D01*
X285570238Y-198357200D01*
X285508333Y-198419104D01*
X285384523Y-198604819D01*
X285322619Y-198852438D01*
X285322619Y-199347676D01*
X285384523Y-199471485D01*
X285446428Y-199533390D01*
X285570238Y-199595295D01*
X285817857Y-199595295D01*
X285941666Y-199533390D01*
X286003571Y-199471485D01*
X286065476Y-199347676D01*
X286065476Y-199038152D01*
X286003571Y-198914342D01*
X285941666Y-198852438D01*
X285817857Y-198790533D01*
X285570238Y-198790533D01*
X285446428Y-198852438D01*
X285384523Y-198914342D01*
X285322619Y-199038152D01*
X10000000Y-60000000D02*
X12000000Y-60000000D01*
X10000000Y-110000000D02*
X12000000Y-110000000D01*
X10000000Y-160000000D02*
X12000000Y-160000000D01*
X10690476Y-35216666D02*
X11309523Y-35216666D01*
X10566666Y-35588095D02*
X11000000Y-34288095D01*
X11433333Y-35588095D01*
X11092857Y-84907142D02*
X11278571Y-84969047D01*
X11340476Y-85030952D01*
X11402380Y-85154761D01*
X11402380Y-85340476D01*
X11340476Y-85464285D01*
X11278571Y-85526190D01*
X11154761Y-85588095D01*
X10659523Y-85588095D01*
X10659523Y-84288095D01*
X11092857Y-84288095D01*
X11216666Y-84350000D01*
X11278571Y-84411904D01*
X11340476Y-84535714D01*
X11340476Y-84659523D01*
X11278571Y-84783333D01*
X11216666Y-84845238D01*
X11092857Y-84907142D01*
X10659523Y-84907142D01*
X11402380Y-135464285D02*
X11340476Y-135526190D01*
X11154761Y-135588095D01*
X11030952Y-135588095D01*
X10845238Y-135526190D01*
X10721428Y-135402380D01*
X10659523Y-135278571D01*
X10597619Y-135030952D01*
X10597619Y-134845238D01*
X10659523Y-134597619D01*
X10721428Y-134473809D01*
X10845238Y-134350000D01*
X11030952Y-134288095D01*
X11154761Y-134288095D01*
X11340476Y-134350000D01*
X11402380Y-134411904D01*
X10659523Y-185588095D02*
X10659523Y-184288095D01*
X10969047Y-184288095D01*
X11154761Y-184350000D01*
X11278571Y-184473809D01*
X11340476Y-184597619D01*
X11402380Y-184845238D01*
X11402380Y-185030952D01*
X11340476Y-185278571D01*
X11278571Y-185402380D01*
X11154761Y-185526190D01*
X10969047Y-185588095D01*
X10659523Y-185588095D01*
X287002200Y-60000000D02*
X285002200Y-60000000D01*
X287002200Y-110000000D02*
X285002200Y-110000000D01*
X287002200Y-160000000D02*
X285002200Y-160000000D01*
X285692676Y-35216666D02*
X286311723Y-35216666D01*
X285568866Y-35588095D02*
X286002200Y-34288095D01*
X286435533Y-35588095D01*
X286095057Y-84907142D02*
X286280771Y-84969047D01*
X286342676Y-85030952D01*
X286404580Y-85154761D01*
X286404580Y-85340476D01*
X286342676Y-85464285D01*
X286280771Y-85526190D01*
X286156961Y-85588095D01*
X285661723Y-85588095D01*
X285661723Y-84288095D01*
X286095057Y-84288095D01*
X286218866Y-84350000D01*
X286280771Y-84411904D01*
X286342676Y-84535714D01*
X286342676Y-84659523D01*
X286280771Y-84783333D01*
X286218866Y-84845238D01*
X286095057Y-84907142D01*
X285661723Y-84907142D01*
X286404580Y-135464285D02*
X286342676Y-135526190D01*
X286156961Y-135588095D01*
X286033152Y-135588095D01*
X285847438Y-135526190D01*
X285723628Y-135402380D01*
X285661723Y-135278571D01*
X285599819Y-135030952D01*
X285599819Y-134845238D01*
X285661723Y-134597619D01*
X285723628Y-134473809D01*
X285847438Y-134350000D01*
X286033152Y-134288095D01*
X286156961Y-134288095D01*
X286342676Y-134350000D01*
X286404580Y-134411904D01*
X285661723Y-185588095D02*
X285661723Y-184288095D01*
X285971247Y-184288095D01*
X286156961Y-184350000D01*
X286280771Y-184473809D01*
X286342676Y-184597619D01*
X286404580Y-184845238D01*
X286404580Y-185030952D01*
X286342676Y-185278571D01*
X286280771Y-185402380D01*
X286156961Y-185526190D01*
X285971247Y-185588095D01*
X285661723Y-185588095D01*
X200434342Y-193785771D02*
X200434342Y-192285771D01*
X200791485Y-192285771D01*
X201005771Y-192357200D01*
X201148628Y-192500057D01*
X201220057Y-192642914D01*
X201291485Y-192928628D01*
X201291485Y-193142914D01*
X201220057Y-193428628D01*
X201148628Y-193571485D01*
X201005771Y-193714342D01*
X200791485Y-193785771D01*
X200434342Y-193785771D01*
X202577200Y-193785771D02*
X202577200Y-193000057D01*
X202505771Y-192857200D01*
X202362914Y-192785771D01*
X202077200Y-192785771D01*
X201934342Y-192857200D01*
X202577200Y-193714342D02*
X202434342Y-193785771D01*
X202077200Y-193785771D01*
X201934342Y-193714342D01*
X201862914Y-193571485D01*
X201862914Y-193428628D01*
X201934342Y-193285771D01*
X202077200Y-193214342D01*
X202434342Y-193214342D01*
X202577200Y-193142914D01*
X203077200Y-192785771D02*
X203648628Y-192785771D01*
X203291485Y-192285771D02*
X203291485Y-193571485D01*
X203362914Y-193714342D01*
X203505771Y-193785771D01*
X203648628Y-193785771D01*
X204720057Y-193714342D02*
X204577200Y-193785771D01*
X204291485Y-193785771D01*
X204148628Y-193714342D01*
X204077200Y-193571485D01*
X204077200Y-193000057D01*
X204148628Y-192857200D01*
X204291485Y-192785771D01*
X204577200Y-192785771D01*
X204720057Y-192857200D01*
X204791485Y-193000057D01*
X204791485Y-193142914D01*
X204077200Y-193285771D01*
X205434342Y-193642914D02*
X205505771Y-193714342D01*
X205434342Y-193785771D01*
X205362914Y-193714342D01*
X205434342Y-193642914D01*
X205434342Y-193785771D01*
X205434342Y-192857200D02*
X205505771Y-192928628D01*
X205434342Y-193000057D01*
X205362914Y-192928628D01*
X205434342Y-192857200D01*
X205434342Y-193000057D01*
X207220057Y-192428628D02*
X207291485Y-192357200D01*
X207434342Y-192285771D01*
X207791485Y-192285771D01*
X207934342Y-192357200D01*
X208005771Y-192428628D01*
X208077200Y-192571485D01*
X208077200Y-192714342D01*
X208005771Y-192928628D01*
X207148628Y-193785771D01*
X208077200Y-193785771D01*
X209005771Y-192285771D02*
X209148628Y-192285771D01*
X209291485Y-192357200D01*
X209362914Y-192428628D01*
X209434342Y-192571485D01*
X209505771Y-192857200D01*
X209505771Y-193214342D01*
X209434342Y-193500057D01*
X209362914Y-193642914D01*
X209291485Y-193714342D01*
X209148628Y-193785771D01*
X209005771Y-193785771D01*
X208862914Y-193714342D01*
X208791485Y-193642914D01*
X208720057Y-193500057D01*
X208648628Y-193214342D01*
X208648628Y-192857200D01*
X208720057Y-192571485D01*
X208791485Y-192428628D01*
X208862914Y-192357200D01*
X209005771Y-192285771D01*
X211505771Y-193785771D02*
X211362914Y-193714342D01*
X211291485Y-193642914D01*
X211220057Y-193500057D01*
X211220057Y-193071485D01*
X211291485Y-192928628D01*
X211362914Y-192857200D01*
X211505771Y-192785771D01*
X211720057Y-192785771D01*
X211862914Y-192857200D01*
X211934342Y-192928628D01*
X212005771Y-193071485D01*
X212005771Y-193500057D01*
X211934342Y-193642914D01*
X211862914Y-193714342D01*
X211720057Y-193785771D01*
X211505771Y-193785771D01*
X212648628Y-193785771D02*
X212648628Y-192285771D01*
X212791485Y-193214342D02*
X213220057Y-193785771D01*
X213220057Y-192785771D02*
X212648628Y-193357200D01*
X213648628Y-192785771D02*
X214220057Y-192785771D01*
X213862914Y-192285771D02*
X213862914Y-193571485D01*
X213934342Y-193714342D01*
X214077200Y-193785771D01*
X214220057Y-193785771D01*
X215791485Y-192428628D02*
X215862914Y-192357200D01*
X216005771Y-192285771D01*
X216362914Y-192285771D01*
X216505771Y-192357200D01*
X216577200Y-192428628D01*
X216648628Y-192571485D01*
X216648628Y-192714342D01*
X216577200Y-192928628D01*
X215720057Y-193785771D01*
X216648628Y-193785771D01*
X217577200Y-192285771D02*
X217720057Y-192285771D01*
X217862914Y-192357200D01*
X217934342Y-192428628D01*
X218005771Y-192571485D01*
X218077200Y-192857200D01*
X218077200Y-193214342D01*
X218005771Y-193500057D01*
X217934342Y-193642914D01*
X217862914Y-193714342D01*
X217720057Y-193785771D01*
X217577200Y-193785771D01*
X217434342Y-193714342D01*
X217362914Y-193642914D01*
X217291485Y-193500057D01*
X217220057Y-193214342D01*
X217220057Y-192857200D01*
X217291485Y-192571485D01*
X217362914Y-192428628D01*
X217434342Y-192357200D01*
X217577200Y-192285771D01*
X219505771Y-193785771D02*
X218648628Y-193785771D01*
X219077200Y-193785771D02*
X219077200Y-192285771D01*
X218934342Y-192500057D01*
X218791485Y-192642914D01*
X218648628Y-192714342D01*
X220791485Y-192785771D02*
X220791485Y-193785771D01*
X220434342Y-192214342D02*
X220077200Y-193285771D01*
X221005771Y-193285771D01*
X177002200Y-194507200D02*
X285002200Y-194507200D01*
X178434342Y-196585771D02*
X178434342Y-195085771D01*
X179291485Y-196585771D02*
X178648628Y-195728628D01*
X179291485Y-195085771D02*
X178434342Y-195942914D01*
X179934342Y-196585771D02*
X179934342Y-195585771D01*
X179934342Y-195085771D02*
X179862914Y-195157200D01*
X179934342Y-195228628D01*
X180005771Y-195157200D01*
X179934342Y-195085771D01*
X179934342Y-195228628D01*
X181505771Y-196442914D02*
X181434342Y-196514342D01*
X181220057Y-196585771D01*
X181077200Y-196585771D01*
X180862914Y-196514342D01*
X180720057Y-196371485D01*
X180648628Y-196228628D01*
X180577200Y-195942914D01*
X180577200Y-195728628D01*
X180648628Y-195442914D01*
X180720057Y-195300057D01*
X180862914Y-195157200D01*
X181077200Y-195085771D01*
X181220057Y-195085771D01*
X181434342Y-195157200D01*
X181505771Y-195228628D01*
X182791485Y-196585771D02*
X182791485Y-195800057D01*
X182720057Y-195657200D01*
X182577200Y-195585771D01*
X182291485Y-195585771D01*
X182148628Y-195657200D01*
X182791485Y-196514342D02*
X182648628Y-196585771D01*
X182291485Y-196585771D01*
X182148628Y-196514342D01*
X182077200Y-196371485D01*
X182077200Y-196228628D01*
X182148628Y-196085771D01*
X182291485Y-196014342D01*
X182648628Y-196014342D01*
X182791485Y-195942914D01*
X184148628Y-196585771D02*
X184148628Y-195085771D01*
X184148628Y-196514342D02*
X184005771Y-196585771D01*
X183720057Y-196585771D01*
X183577200Y-196514342D01*
X183505771Y-196442914D01*
X183434342Y-196300057D01*
X183434342Y-195871485D01*
X183505771Y-195728628D01*
X183577200Y-195657200D01*
X183720057Y-195585771D01*
X184005771Y-195585771D01*
X184148628Y-195657200D01*
X186005771Y-195800057D02*
X186505771Y-195800057D01*
X186720057Y-196585771D02*
X186005771Y-196585771D01*
X186005771Y-195085771D01*
X186720057Y-195085771D01*
X187362914Y-196442914D02*
X187434342Y-196514342D01*
X187362914Y-196585771D01*
X187291485Y-196514342D01*
X187362914Y-196442914D01*
X187362914Y-196585771D01*
X188077200Y-196585771D02*
X188077200Y-195085771D01*
X188434342Y-195085771D01*
X188648628Y-195157200D01*
X188791485Y-195300057D01*
X188862914Y-195442914D01*
X188934342Y-195728628D01*
X188934342Y-195942914D01*
X188862914Y-196228628D01*
X188791485Y-196371485D01*
X188648628Y-196514342D01*
X188434342Y-196585771D01*
X188077200Y-196585771D01*
X189577200Y-196442914D02*
X189648628Y-196514342D01*
X189577200Y-196585771D01*
X189505771Y-196514342D01*
X189577200Y-196442914D01*
X189577200Y-196585771D01*
X190220057Y-196157200D02*
X190934342Y-196157200D01*
X190077200Y-196585771D02*
X190577200Y-195085771D01*
X191077200Y-196585771D01*
X191577200Y-196442914D02*
X191648628Y-196514342D01*
X191577200Y-196585771D01*
X191505771Y-196514342D01*
X191577200Y-196442914D01*
X191577200Y-196585771D01*
X194577200Y-196585771D02*
X194577200Y-195085771D01*
X194720057Y-196014342D02*
X195148628Y-196585771D01*
X195148628Y-195585771D02*
X194577200Y-196157200D01*
X195791485Y-196585771D02*
X195791485Y-195585771D01*
X195791485Y-195085771D02*
X195720057Y-195157200D01*
X195791485Y-195228628D01*
X195862914Y-195157200D01*
X195791485Y-195085771D01*
X195791485Y-195228628D01*
X197148628Y-196514342D02*
X197005771Y-196585771D01*
X196720057Y-196585771D01*
X196577200Y-196514342D01*
X196505771Y-196442914D01*
X196434342Y-196300057D01*
X196434342Y-195871485D01*
X196505771Y-195728628D01*
X196577200Y-195657200D01*
X196720057Y-195585771D01*
X197005771Y-195585771D01*
X197148628Y-195657200D01*
X198434342Y-196585771D02*
X198434342Y-195800057D01*
X198362914Y-195657200D01*
X198220057Y-195585771D01*
X197934342Y-195585771D01*
X197791485Y-195657200D01*
X198434342Y-196514342D02*
X198291485Y-196585771D01*
X197934342Y-196585771D01*
X197791485Y-196514342D01*
X197720057Y-196371485D01*
X197720057Y-196228628D01*
X197791485Y-196085771D01*
X197934342Y-196014342D01*
X198291485Y-196014342D01*
X198434342Y-195942914D01*
X199791485Y-196585771D02*
X199791485Y-195085771D01*
X199791485Y-196514342D02*
X199648628Y-196585771D01*
X199362914Y-196585771D01*
X199220057Y-196514342D01*
X199148628Y-196442914D01*
X199077200Y-196300057D01*
X199077200Y-195871485D01*
X199148628Y-195728628D01*
X199220057Y-195657200D01*
X199362914Y-195585771D01*
X199648628Y-195585771D01*
X199791485Y-195657200D01*
X202077200Y-197157200D02*
X202005771Y-197085771D01*
X201862914Y-196871485D01*
X201791485Y-196728628D01*
X201720057Y-196514342D01*
X201648628Y-196157200D01*
X201648628Y-195871485D01*
X201720057Y-195514342D01*
X201791485Y-195300057D01*
X201862914Y-195157200D01*
X202005771Y-194942914D01*
X202077200Y-194871485D01*
X203362914Y-195085771D02*
X202648628Y-195085771D01*
X202577200Y-195800057D01*
X202648628Y-195728628D01*
X202791485Y-195657200D01*
X203148628Y-195657200D01*
X203291485Y-195728628D01*
X203362914Y-195800057D01*
X203434342Y-195942914D01*
X203434342Y-196300057D01*
X203362914Y-196442914D01*
X203291485Y-196514342D01*
X203148628Y-196585771D01*
X202791485Y-196585771D01*
X202648628Y-196514342D01*
X202577200Y-196442914D01*
X204077200Y-196442914D02*
X204148628Y-196514342D01*
X204077200Y-196585771D01*
X204005771Y-196514342D01*
X204077200Y-196442914D01*
X204077200Y-196585771D01*
X205577200Y-196585771D02*
X204720057Y-196585771D01*
X205148628Y-196585771D02*
X205148628Y-195085771D01*
X205005771Y-195300057D01*
X204862914Y-195442914D01*
X204720057Y-195514342D01*
X206220057Y-196442914D02*
X206291485Y-196514342D01*
X206220057Y-196585771D01*
X206148628Y-196514342D01*
X206220057Y-196442914D01*
X206220057Y-196585771D01*
X207577200Y-195085771D02*
X207291485Y-195085771D01*
X207148628Y-195157200D01*
X207077200Y-195228628D01*
X206934342Y-195442914D01*
X206862914Y-195728628D01*
X206862914Y-196300057D01*
X206934342Y-196442914D01*
X207005771Y-196514342D01*
X207148628Y-196585771D01*
X207434342Y-196585771D01*
X207577200Y-196514342D01*
X207648628Y-196442914D01*
X207720057Y-196300057D01*
X207720057Y-195942914D01*
X207648628Y-195800057D01*
X207577200Y-195728628D01*
X207434342Y-195657200D01*
X207148628Y-195657200D01*
X207005771Y-195728628D01*
X206934342Y-195800057D01*
X206862914Y-195942914D01*
X208362914Y-196014342D02*
X209505771Y-196014342D01*
X210505771Y-195085771D02*
X210648628Y-195085771D01*
X210791485Y-195157200D01*
X210862914Y-195228628D01*
X210934342Y-195371485D01*
X211005771Y-195657200D01*
X211005771Y-196014342D01*
X210934342Y-196300057D01*
X210862914Y-196442914D01*
X210791485Y-196514342D01*
X210648628Y-196585771D01*
X210505771Y-196585771D01*
X210362914Y-196514342D01*
X210291485Y-196442914D01*
X210220057Y-196300057D01*
X210148628Y-196014342D01*
X210148628Y-195657200D01*
X210220057Y-195371485D01*
X210291485Y-195228628D01*
X210362914Y-195157200D01*
X210505771Y-195085771D01*
X211648628Y-196014342D02*
X212791485Y-196014342D01*
X214291485Y-196585771D02*
X213434342Y-196585771D01*
X213862914Y-196585771D02*
X213862914Y-195085771D01*
X213720057Y-195300057D01*
X213577200Y-195442914D01*
X213434342Y-195514342D01*
X215220057Y-195085771D02*
X215362914Y-195085771D01*
X215505771Y-195157200D01*
X215577200Y-195228628D01*
X215648628Y-195371485D01*
X215720057Y-195657200D01*
X215720057Y-196014342D01*
X215648628Y-196300057D01*
X215577200Y-196442914D01*
X215505771Y-196514342D01*
X215362914Y-196585771D01*
X215220057Y-196585771D01*
X215077200Y-196514342D01*
X215005771Y-196442914D01*
X214934342Y-196300057D01*
X214862914Y-196014342D01*
X214862914Y-195657200D01*
X214934342Y-195371485D01*
X215005771Y-195228628D01*
X215077200Y-195157200D01*
X215220057Y-195085771D01*
X216005771Y-196728628D02*
X217148628Y-196728628D01*
X218291485Y-196585771D02*
X217434342Y-196585771D01*
X217862914Y-196585771D02*
X217862914Y-195085771D01*
X217720057Y-195300057D01*
X217577200Y-195442914D01*
X217434342Y-195514342D01*
X219577200Y-195585771D02*
X219577200Y-196585771D01*
X219220057Y-195014342D02*
X218862914Y-196085771D01*
X219791485Y-196085771D01*
X220220057Y-197157200D02*
X220291485Y-197085771D01*
X220434342Y-196871485D01*
X220505771Y-196728628D01*
X220577200Y-196514342D01*
X220648628Y-196157200D01*
X220648628Y-195871485D01*
X220577200Y-195514342D01*
X220505771Y-195300057D01*
X220434342Y-195157200D01*
X220291485Y-194942914D01*
X220220057Y-194871485D01*
X177002200Y-191507200D02*
X285002200Y-191507200D01*
D11*
X264411485Y-193785771D02*
X263911485Y-193071485D01*
X263554342Y-193785771D02*
X263554342Y-192285771D01*
X264125771Y-192285771D01*
X264268628Y-192357200D01*
X264340057Y-192428628D01*
X264411485Y-192571485D01*
X264411485Y-192785771D01*
X264340057Y-192928628D01*
X264268628Y-193000057D01*
X264125771Y-193071485D01*
X263554342Y-193071485D01*
X265625771Y-193714342D02*
X265482914Y-193785771D01*
X265197200Y-193785771D01*
X265054342Y-193714342D01*
X264982914Y-193571485D01*
X264982914Y-193000057D01*
X265054342Y-192857200D01*
X265197200Y-192785771D01*
X265482914Y-192785771D01*
X265625771Y-192857200D01*
X265697200Y-193000057D01*
X265697200Y-193142914D01*
X264982914Y-193285771D01*
X266197200Y-192785771D02*
X266554342Y-193785771D01*
X266911485Y-192785771D01*
X267482914Y-193642914D02*
X267554342Y-193714342D01*
X267482914Y-193785771D01*
X267411485Y-193714342D01*
X267482914Y-193642914D01*
X267482914Y-193785771D01*
X267482914Y-192857200D02*
X267554342Y-192928628D01*
X267482914Y-193000057D01*
X267411485Y-192928628D01*
X267482914Y-192857200D01*
X267482914Y-193000057D01*
X269268628Y-193357200D02*
X269982914Y-193357200D01*
X269125771Y-193785771D02*
X269625771Y-192285771D01*
X270125771Y-193785771D01*
D10*
X178362914Y-193714342D02*
X178577200Y-193785771D01*
X178934342Y-193785771D01*
X179077200Y-193714342D01*
X179148628Y-193642914D01*
X179220057Y-193500057D01*
X179220057Y-193357200D01*
X179148628Y-193214342D01*
X179077200Y-193142914D01*
X178934342Y-193071485D01*
X178648628Y-193000057D01*
X178505771Y-192928628D01*
X178434342Y-192857200D01*
X178362914Y-192714342D01*
X178362914Y-192571485D01*
X178434342Y-192428628D01*
X178505771Y-192357200D01*
X178648628Y-192285771D01*
X179005771Y-192285771D01*
X179220057Y-192357200D01*
X179862914Y-193785771D02*
X179862914Y-192785771D01*
X179862914Y-192285771D02*
X179791485Y-192357200D01*
X179862914Y-192428628D01*
X179934342Y-192357200D01*
X179862914Y-192285771D01*
X179862914Y-192428628D01*
X180434342Y-192785771D02*
X181220057Y-192785771D01*
X180434342Y-193785771D01*
X181220057Y-193785771D01*
X182362914Y-193714342D02*
X182220057Y-193785771D01*
X181934342Y-193785771D01*
X181791485Y-193714342D01*
X181720057Y-193571485D01*
X181720057Y-193000057D01*
X181791485Y-192857200D01*
X181934342Y-192785771D01*
X182220057Y-192785771D01*
X182362914Y-192857200D01*
X182434342Y-193000057D01*
X182434342Y-193142914D01*
X181720057Y-193285771D01*
X183077200Y-193642914D02*
X183148628Y-193714342D01*
X183077200Y-193785771D01*
X183005771Y-193714342D01*
X183077200Y-193642914D01*
X183077200Y-193785771D01*
X183077200Y-192857200D02*
X183148628Y-192928628D01*
X183077200Y-193000057D01*
X183005771Y-192928628D01*
X183077200Y-192857200D01*
X183077200Y-193000057D01*
X184862914Y-193357200D02*
X185577200Y-193357200D01*
X184720057Y-193785771D02*
X185220057Y-192285771D01*
X185720057Y-193785771D01*
X186862914Y-192785771D02*
X186862914Y-193785771D01*
X186505771Y-192214342D02*
X186148628Y-193285771D01*
X187077200Y-193285771D01*
X263434342Y-196585771D02*
X263434342Y-195085771D01*
X264791485Y-196585771D02*
X264791485Y-195085771D01*
X264791485Y-196514342D02*
X264648628Y-196585771D01*
X264362914Y-196585771D01*
X264220057Y-196514342D01*
X264148628Y-196442914D01*
X264077200Y-196300057D01*
X264077200Y-195871485D01*
X264148628Y-195728628D01*
X264220057Y-195657200D01*
X264362914Y-195585771D01*
X264648628Y-195585771D01*
X264791485Y-195657200D01*
X265505771Y-196442914D02*
X265577200Y-196514342D01*
X265505771Y-196585771D01*
X265434342Y-196514342D01*
X265505771Y-196442914D01*
X265505771Y-196585771D01*
X265505771Y-195657200D02*
X265577200Y-195728628D01*
X265505771Y-195800057D01*
X265434342Y-195728628D01*
X265505771Y-195657200D01*
X265505771Y-195800057D01*
X268148628Y-196585771D02*
X267291485Y-196585771D01*
X267720057Y-196585771D02*
X267720057Y-195085771D01*
X267577200Y-195300057D01*
X267434342Y-195442914D01*
X267291485Y-195514342D01*
X269862914Y-195014342D02*
X268577200Y-196942914D01*
X271148628Y-196585771D02*
X270291485Y-196585771D01*
X270720057Y-196585771D02*
X270720057Y-195085771D01*
X270577200Y-195300057D01*
X270434342Y-195442914D01*
X270291485Y-195514342D01*
X177002200Y-187507200D02*
X285002200Y-187507200D01*
D12*
X178714580Y-188211961D02*
X179857438Y-188211961D01*
X179036009Y-190211961D02*
X179286009Y-188211961D01*
X180274104Y-190211961D02*
X180440771Y-188878628D01*
X180524104Y-188211961D02*
X180416961Y-188307200D01*
X180500295Y-188402438D01*
X180607438Y-188307200D01*
X180524104Y-188211961D01*
X180500295Y-188402438D01*
X181107438Y-188878628D02*
X181869342Y-188878628D01*
X181476485Y-188211961D02*
X181262200Y-189926247D01*
X181333628Y-190116723D01*
X181512200Y-190211961D01*
X181702676Y-190211961D01*
X182655057Y-190211961D02*
X182476485Y-190116723D01*
X182405057Y-189926247D01*
X182619342Y-188211961D01*
X184190771Y-190116723D02*
X183988390Y-190211961D01*
X183607438Y-190211961D01*
X183428866Y-190116723D01*
X183357438Y-189926247D01*
X183452676Y-189164342D01*
X183571723Y-188973866D01*
X183774104Y-188878628D01*
X184155057Y-188878628D01*
X184333628Y-188973866D01*
X184405057Y-189164342D01*
X184381247Y-189354819D01*
X183405057Y-189545295D01*
X185155057Y-190021485D02*
X185238390Y-190116723D01*
X185131247Y-190211961D01*
X185047914Y-190116723D01*
X185155057Y-190021485D01*
X185131247Y-190211961D01*
X185286009Y-188973866D02*
X185369342Y-189069104D01*
X185262200Y-189164342D01*
X185178866Y-189069104D01*
X185286009Y-188973866D01*
X185262200Y-189164342D01*
X188774104Y-190021485D02*
X188666961Y-190116723D01*
X188369342Y-190211961D01*
X188178866Y-190211961D01*
X187905057Y-190116723D01*
X187738390Y-189926247D01*
X187666961Y-189735771D01*
X187619342Y-189354819D01*
X187655057Y-189069104D01*
X187797914Y-188688152D01*
X187916961Y-188497676D01*
X188131247Y-188307200D01*
X188428866Y-188211961D01*
X188619342Y-188211961D01*
X188893152Y-188307200D01*
X188976485Y-188402438D01*
X189607438Y-190211961D02*
X189774104Y-188878628D01*
X189726485Y-189259580D02*
X189845533Y-189069104D01*
X189952676Y-188973866D01*
X190155057Y-188878628D01*
X190345533Y-188878628D01*
X191702676Y-190211961D02*
X191833628Y-189164342D01*
X191762200Y-188973866D01*
X191583628Y-188878628D01*
X191202676Y-188878628D01*
X191000295Y-188973866D01*
X191714580Y-190116723D02*
X191512200Y-190211961D01*
X191036009Y-190211961D01*
X190857438Y-190116723D01*
X190786009Y-189926247D01*
X190809819Y-189735771D01*
X190928866Y-189545295D01*
X191131247Y-189450057D01*
X191607438Y-189450057D01*
X191809819Y-189354819D01*
X192631247Y-188878628D02*
X193678866Y-188878628D01*
X192464580Y-190211961D01*
X193512200Y-190211961D01*
X194250295Y-188878628D02*
X194559819Y-190211961D01*
X195202676Y-188878628D02*
X194559819Y-190211961D01*
X194309819Y-190688152D01*
X194202676Y-190783390D01*
X194000295Y-190878628D01*
X195678866Y-188878628D02*
X196440771Y-188878628D01*
X195797914Y-190211961D02*
X196012200Y-188497676D01*
X196131247Y-188307200D01*
X196333628Y-188211961D01*
X196524104Y-188211961D01*
X197226485Y-190211961D02*
X197047914Y-190116723D01*
X196976485Y-189926247D01*
X197190771Y-188211961D01*
X197988390Y-190211961D02*
X198155057Y-188878628D01*
X198238390Y-188211961D02*
X198131247Y-188307200D01*
X198214580Y-188402438D01*
X198321723Y-188307200D01*
X198238390Y-188211961D01*
X198214580Y-188402438D01*
X199714580Y-190116723D02*
X199512200Y-190211961D01*
X199131247Y-190211961D01*
X198952676Y-190116723D01*
X198881247Y-189926247D01*
X198976485Y-189164342D01*
X199095533Y-188973866D01*
X199297914Y-188878628D01*
X199678866Y-188878628D01*
X199857438Y-188973866D01*
X199928866Y-189164342D01*
X199905057Y-189354819D01*
X198928866Y-189545295D01*
X202309819Y-188402438D02*
X202416961Y-188307200D01*
X202619342Y-188211961D01*
X203095533Y-188211961D01*
X203274104Y-188307200D01*
X203357438Y-188402438D01*
X203428866Y-188592914D01*
X203405057Y-188783390D01*
X203274104Y-189069104D01*
X201988390Y-190211961D01*
X203226485Y-190211961D01*
X204107438Y-190021485D02*
X204190771Y-190116723D01*
X204083628Y-190211961D01*
X204000295Y-190116723D01*
X204107438Y-190021485D01*
X204083628Y-190211961D01*
X205666961Y-188211961D02*
X205857438Y-188211961D01*
X206036009Y-188307200D01*
X206119342Y-188402438D01*
X206190771Y-188592914D01*
X206238390Y-188973866D01*
X206178866Y-189450057D01*
X206036009Y-189831009D01*
X205916961Y-190021485D01*
X205809819Y-190116723D01*
X205607438Y-190211961D01*
X205416961Y-190211961D01*
X205238390Y-190116723D01*
X205155057Y-190021485D01*
X205083628Y-189831009D01*
X205036009Y-189450057D01*
X205095533Y-188973866D01*
X205238390Y-188592914D01*
X205357438Y-188402438D01*
X205464580Y-188307200D01*
X205666961Y-188211961D01*
X209238390Y-190116723D02*
X209036009Y-190211961D01*
X208655057Y-190211961D01*
X208476485Y-190116723D01*
X208405057Y-189926247D01*
X208500295Y-189164342D01*
X208619342Y-188973866D01*
X208821723Y-188878628D01*
X209202676Y-188878628D01*
X209381247Y-188973866D01*
X209452676Y-189164342D01*
X209428866Y-189354819D01*
X208452676Y-189545295D01*
X209988390Y-190211961D02*
X211202676Y-188878628D01*
X210155057Y-188878628D02*
X211036009Y-190211961D01*
X211964580Y-188878628D02*
X211714580Y-190878628D01*
X211952676Y-188973866D02*
X212155057Y-188878628D01*
X212536009Y-188878628D01*
X212714580Y-188973866D01*
X212797914Y-189069104D01*
X212869342Y-189259580D01*
X212797914Y-189831009D01*
X212678866Y-190021485D01*
X212571723Y-190116723D01*
X212369342Y-190211961D01*
X211988390Y-190211961D01*
X211809819Y-190116723D01*
X214464580Y-190211961D02*
X214595533Y-189164342D01*
X214524104Y-188973866D01*
X214345533Y-188878628D01*
X213964580Y-188878628D01*
X213762200Y-188973866D01*
X214476485Y-190116723D02*
X214274104Y-190211961D01*
X213797914Y-190211961D01*
X213619342Y-190116723D01*
X213547914Y-189926247D01*
X213571723Y-189735771D01*
X213690771Y-189545295D01*
X213893152Y-189450057D01*
X214369342Y-189450057D01*
X214571723Y-189354819D01*
X215583628Y-188878628D02*
X215416961Y-190211961D01*
X215559819Y-189069104D02*
X215666961Y-188973866D01*
X215869342Y-188878628D01*
X216155057Y-188878628D01*
X216333628Y-188973866D01*
X216405057Y-189164342D01*
X216274104Y-190211961D01*
X217143152Y-190116723D02*
X217321723Y-190211961D01*
X217702676Y-190211961D01*
X217905057Y-190116723D01*
X218024104Y-189926247D01*
X218036009Y-189831009D01*
X217964580Y-189640533D01*
X217786009Y-189545295D01*
X217500295Y-189545295D01*
X217321723Y-189450057D01*
X217250295Y-189259580D01*
X217262199Y-189164342D01*
X217381247Y-188973866D01*
X217583628Y-188878628D01*
X217869342Y-188878628D01*
X218047914Y-188973866D01*
X218845533Y-190211961D02*
X219012199Y-188878628D01*
X219095533Y-188211961D02*
X218988390Y-188307200D01*
X219071723Y-188402438D01*
X219178866Y-188307200D01*
X219095533Y-188211961D01*
X219071723Y-188402438D01*
X220083628Y-190211961D02*
X219905057Y-190116723D01*
X219821723Y-190021485D01*
X219750295Y-189831009D01*
X219821723Y-189259580D01*
X219940771Y-189069104D01*
X220047914Y-188973866D01*
X220250295Y-188878628D01*
X220536009Y-188878628D01*
X220714580Y-188973866D01*
X220797914Y-189069104D01*
X220869342Y-189259580D01*
X220797914Y-189831009D01*
X220678866Y-190021485D01*
X220571723Y-190116723D01*
X220369342Y-190211961D01*
X220083628Y-190211961D01*
X221774104Y-188878628D02*
X221607438Y-190211961D01*
X221750295Y-189069104D02*
X221857438Y-188973866D01*
X222059819Y-188878628D01*
X222345533Y-188878628D01*
X222524104Y-188973866D01*
X222595533Y-189164342D01*
X222464580Y-190211961D01*
X224821723Y-188878628D02*
X225583628Y-188878628D01*
X225190771Y-188211961D02*
X224976485Y-189926247D01*
X225047914Y-190116723D01*
X225226485Y-190211961D01*
X225416961Y-190211961D01*
X226857438Y-190116723D02*
X226655057Y-190211961D01*
X226274104Y-190211961D01*
X226095533Y-190116723D01*
X226024104Y-189926247D01*
X226119342Y-189164342D01*
X226238390Y-188973866D01*
X226440771Y-188878628D01*
X226821723Y-188878628D01*
X227000295Y-188973866D01*
X227071723Y-189164342D01*
X227047914Y-189354819D01*
X226071723Y-189545295D01*
X227797914Y-190211961D02*
X227964580Y-188878628D01*
X227940771Y-189069104D02*
X228047914Y-188973866D01*
X228250295Y-188878628D01*
X228536009Y-188878628D01*
X228714580Y-188973866D01*
X228786009Y-189164342D01*
X228655057Y-190211961D01*
X228786009Y-189164342D02*
X228905057Y-188973866D01*
X229107438Y-188878628D01*
X229393152Y-188878628D01*
X229571723Y-188973866D01*
X229643152Y-189164342D01*
X229512199Y-190211961D01*
X230631247Y-188878628D02*
X230381247Y-190878628D01*
X230619342Y-188973866D02*
X230821723Y-188878628D01*
X231202676Y-188878628D01*
X231381247Y-188973866D01*
X231464580Y-189069104D01*
X231536009Y-189259580D01*
X231464580Y-189831009D01*
X231345533Y-190021485D01*
X231238390Y-190116723D01*
X231036009Y-190211961D01*
X230655057Y-190211961D01*
X230476485Y-190116723D01*
X232559819Y-190211961D02*
X232381247Y-190116723D01*
X232309819Y-189926247D01*
X232524104Y-188211961D01*
X234178866Y-190211961D02*
X234309819Y-189164342D01*
X234238390Y-188973866D01*
X234059819Y-188878628D01*
X233678866Y-188878628D01*
X233476485Y-188973866D01*
X234190771Y-190116723D02*
X233988390Y-190211961D01*
X233512199Y-190211961D01*
X233333628Y-190116723D01*
X233262199Y-189926247D01*
X233286009Y-189735771D01*
X233405057Y-189545295D01*
X233607438Y-189450057D01*
X234083628Y-189450057D01*
X234286009Y-189354819D01*
X235012199Y-188878628D02*
X235774104Y-188878628D01*
X235381247Y-188211961D02*
X235166961Y-189926247D01*
X235238390Y-190116723D01*
X235416961Y-190211961D01*
X235607438Y-190211961D01*
X237047914Y-190116723D02*
X236845533Y-190211961D01*
X236464580Y-190211961D01*
X236286009Y-190116723D01*
X236214580Y-189926247D01*
X236309819Y-189164342D01*
X236428866Y-188973866D01*
X236631247Y-188878628D01*
X237012199Y-188878628D01*
X237190771Y-188973866D01*
X237262199Y-189164342D01*
X237238390Y-189354819D01*
X236262199Y-189545295D01*
D10*
X178934342Y-185600057D02*
X178434342Y-185600057D01*
X178434342Y-186385771D02*
X178434342Y-184885771D01*
X179148628Y-184885771D01*
X179720057Y-186385771D02*
X179720057Y-185385771D01*
X179720057Y-184885771D02*
X179648628Y-184957200D01*
X179720057Y-185028628D01*
X179791485Y-184957200D01*
X179720057Y-184885771D01*
X179720057Y-185028628D01*
X180648628Y-186385771D02*
X180505771Y-186314342D01*
X180434342Y-186171485D01*
X180434342Y-184885771D01*
X181791485Y-186314342D02*
X181648628Y-186385771D01*
X181362914Y-186385771D01*
X181220057Y-186314342D01*
X181148628Y-186171485D01*
X181148628Y-185600057D01*
X181220057Y-185457200D01*
X181362914Y-185385771D01*
X181648628Y-185385771D01*
X181791485Y-185457200D01*
X181862914Y-185600057D01*
X181862914Y-185742914D01*
X181148628Y-185885771D01*
X182505771Y-186242914D02*
X182577200Y-186314342D01*
X182505771Y-186385771D01*
X182434342Y-186314342D01*
X182505771Y-186242914D01*
X182505771Y-186385771D01*
X182505771Y-185457200D02*
X182577200Y-185528628D01*
X182505771Y-185600057D01*
X182434342Y-185528628D01*
X182505771Y-185457200D01*
X182505771Y-185600057D01*
X185005771Y-186385771D02*
X185005771Y-185600057D01*
X184934342Y-185457200D01*
X184791485Y-185385771D01*
X184505771Y-185385771D01*
X184362914Y-185457200D01*
X185005771Y-186314342D02*
X184862914Y-186385771D01*
X184505771Y-186385771D01*
X184362914Y-186314342D01*
X184291485Y-186171485D01*
X184291485Y-186028628D01*
X184362914Y-185885771D01*
X184505771Y-185814342D01*
X184862914Y-185814342D01*
X185005771Y-185742914D01*
X186362914Y-185385771D02*
X186362914Y-186385771D01*
X185720057Y-185385771D02*
X185720057Y-186171485D01*
X185791485Y-186314342D01*
X185934342Y-186385771D01*
X186148628Y-186385771D01*
X186291485Y-186314342D01*
X186362914Y-186242914D01*
X187720057Y-186385771D02*
X187720057Y-184885771D01*
X187720057Y-186314342D02*
X187577200Y-186385771D01*
X187291485Y-186385771D01*
X187148628Y-186314342D01*
X187077200Y-186242914D01*
X187005771Y-186100057D01*
X187005771Y-185671485D01*
X187077200Y-185528628D01*
X187148628Y-185457200D01*
X187291485Y-185385771D01*
X187577200Y-185385771D01*
X187720057Y-185457200D01*
X188434342Y-186385771D02*
X188434342Y-185385771D01*
X188434342Y-184885771D02*
X188362914Y-184957200D01*
X188434342Y-185028628D01*
X188505771Y-184957200D01*
X188434342Y-184885771D01*
X188434342Y-185028628D01*
X189362914Y-186385771D02*
X189220057Y-186314342D01*
X189148628Y-186242914D01*
X189077200Y-186100057D01*
X189077200Y-185671485D01*
X189148628Y-185528628D01*
X189220057Y-185457200D01*
X189362914Y-185385771D01*
X189577200Y-185385771D01*
X189720057Y-185457200D01*
X189791485Y-185528628D01*
X189862914Y-185671485D01*
X189862914Y-186100057D01*
X189791485Y-186242914D01*
X189720057Y-186314342D01*
X189577200Y-186385771D01*
X189362914Y-186385771D01*
X190148628Y-186528628D02*
X191291485Y-186528628D01*
X191577200Y-186314342D02*
X191720057Y-186385771D01*
X192005771Y-186385771D01*
X192148628Y-186314342D01*
X192220057Y-186171485D01*
X192220057Y-186100057D01*
X192148628Y-185957200D01*
X192005771Y-185885771D01*
X191791485Y-185885771D01*
X191648628Y-185814342D01*
X191577200Y-185671485D01*
X191577200Y-185600057D01*
X191648628Y-185457200D01*
X191791485Y-185385771D01*
X192005771Y-185385771D01*
X192148628Y-185457200D01*
X192862914Y-186385771D02*
X192862914Y-184885771D01*
X193505771Y-186385771D02*
X193505771Y-185600057D01*
X193434342Y-185457200D01*
X193291485Y-185385771D01*
X193077200Y-185385771D01*
X192934342Y-185457200D01*
X192862914Y-185528628D01*
X194220057Y-186385771D02*
X194220057Y-185385771D01*
X194220057Y-184885771D02*
X194148628Y-184957200D01*
X194220057Y-185028628D01*
X194291485Y-184957200D01*
X194220057Y-184885771D01*
X194220057Y-185028628D01*
X195505771Y-186314342D02*
X195362914Y-186385771D01*
X195077200Y-186385771D01*
X194934342Y-186314342D01*
X194862914Y-186171485D01*
X194862914Y-185600057D01*
X194934342Y-185457200D01*
X195077200Y-185385771D01*
X195362914Y-185385771D01*
X195505771Y-185457200D01*
X195577200Y-185600057D01*
X195577200Y-185742914D01*
X194862914Y-185885771D01*
X196434342Y-186385771D02*
X196291485Y-186314342D01*
X196220057Y-186171485D01*
X196220057Y-184885771D01*
X197648628Y-186385771D02*
X197648628Y-184885771D01*
X197648628Y-186314342D02*
X197505771Y-186385771D01*
X197220057Y-186385771D01*
X197077200Y-186314342D01*
X197005771Y-186242914D01*
X196934342Y-186100057D01*
X196934342Y-185671485D01*
X197005771Y-185528628D01*
X197077200Y-185457200D01*
X197220057Y-185385771D01*
X197505771Y-185385771D01*
X197648628Y-185457200D01*
X198362914Y-186242914D02*
X198434342Y-186314342D01*
X198362914Y-186385771D01*
X198291485Y-186314342D01*
X198362914Y-186242914D01*
X198362914Y-186385771D01*
X199077200Y-186385771D02*
X199077200Y-184885771D01*
X199220057Y-185814342D02*
X199648628Y-186385771D01*
X199648628Y-185385771D02*
X199077200Y-185957200D01*
X200291485Y-186385771D02*
X200291485Y-185385771D01*
X200291485Y-184885771D02*
X200220057Y-184957200D01*
X200291485Y-185028628D01*
X200362914Y-184957200D01*
X200291485Y-184885771D01*
X200291485Y-185028628D01*
X201648628Y-186314342D02*
X201505771Y-186385771D01*
X201220057Y-186385771D01*
X201077200Y-186314342D01*
X201005771Y-186242914D01*
X200934342Y-186100057D01*
X200934342Y-185671485D01*
X201005771Y-185528628D01*
X201077200Y-185457200D01*
X201220057Y-185385771D01*
X201505771Y-185385771D01*
X201648628Y-185457200D01*
X202934342Y-186385771D02*
X202934342Y-185600057D01*
X202862914Y-185457200D01*
X202720057Y-185385771D01*
X202434342Y-185385771D01*
X202291485Y-185457200D01*
X202934342Y-186314342D02*
X202791485Y-186385771D01*
X202434342Y-186385771D01*
X202291485Y-186314342D01*
X202220057Y-186171485D01*
X202220057Y-186028628D01*
X202291485Y-185885771D01*
X202434342Y-185814342D01*
X202791485Y-185814342D01*
X202934342Y-185742914D01*
X204291485Y-186385771D02*
X204291485Y-184885771D01*
X204291485Y-186314342D02*
X204148628Y-186385771D01*
X203862914Y-186385771D01*
X203720057Y-186314342D01*
X203648628Y-186242914D01*
X203577200Y-186100057D01*
X203577200Y-185671485D01*
X203648628Y-185528628D01*
X203720057Y-185457200D01*
X203862914Y-185385771D01*
X204148628Y-185385771D01*
X204291485Y-185457200D01*
X204648628Y-186528628D02*
X205791485Y-186528628D01*
X206148628Y-185385771D02*
X206148628Y-186885771D01*
X206148628Y-185457200D02*
X206291485Y-185385771D01*
X206577200Y-185385771D01*
X206720057Y-185457200D01*
X206791485Y-185528628D01*
X206862914Y-185671485D01*
X206862914Y-186100057D01*
X206791485Y-186242914D01*
X206720057Y-186314342D01*
X206577200Y-186385771D01*
X206291485Y-186385771D01*
X206148628Y-186314342D01*
X208148628Y-186314342D02*
X208005771Y-186385771D01*
X207720057Y-186385771D01*
X207577200Y-186314342D01*
X207505771Y-186242914D01*
X207434342Y-186100057D01*
X207434342Y-185671485D01*
X207505771Y-185528628D01*
X207577200Y-185457200D01*
X207720057Y-185385771D01*
X208005771Y-185385771D01*
X208148628Y-185457200D01*
X208791485Y-186385771D02*
X208791485Y-184885771D01*
X208791485Y-185457200D02*
X208934342Y-185385771D01*
X209220057Y-185385771D01*
X209362914Y-185457200D01*
X209434342Y-185528628D01*
X209505771Y-185671485D01*
X209505771Y-186100057D01*
X209434342Y-186242914D01*
X209362914Y-186314342D01*
X209220057Y-186385771D01*
X208934342Y-186385771D01*
X208791485Y-186314342D01*
X177002200Y-181507200D02*
X285002200Y-181507200D01*
X178362914Y-183614342D02*
X178577200Y-183685771D01*
X178934342Y-183685771D01*
X179077200Y-183614342D01*
X179148628Y-183542914D01*
X179220057Y-183400057D01*
X179220057Y-183257200D01*
X179148628Y-183114342D01*
X179077200Y-183042914D01*
X178934342Y-182971485D01*
X178648628Y-182900057D01*
X178505771Y-182828628D01*
X178434342Y-182757200D01*
X178362914Y-182614342D01*
X178362914Y-182471485D01*
X178434342Y-182328628D01*
X178505771Y-182257200D01*
X178648628Y-182185771D01*
X179005771Y-182185771D01*
X179220057Y-182257200D01*
X179862914Y-183685771D02*
X179862914Y-182185771D01*
X180505771Y-183685771D02*
X180505771Y-182900057D01*
X180434342Y-182757200D01*
X180291485Y-182685771D01*
X180077200Y-182685771D01*
X179934342Y-182757200D01*
X179862914Y-182828628D01*
X181791485Y-183614342D02*
X181648628Y-183685771D01*
X181362914Y-183685771D01*
X181220057Y-183614342D01*
X181148628Y-183471485D01*
X181148628Y-182900057D01*
X181220057Y-182757200D01*
X181362914Y-182685771D01*
X181648628Y-182685771D01*
X181791485Y-182757200D01*
X181862914Y-182900057D01*
X181862914Y-183042914D01*
X181148628Y-183185771D01*
X183077200Y-183614342D02*
X182934342Y-183685771D01*
X182648628Y-183685771D01*
X182505771Y-183614342D01*
X182434342Y-183471485D01*
X182434342Y-182900057D01*
X182505771Y-182757200D01*
X182648628Y-182685771D01*
X182934342Y-182685771D01*
X183077200Y-182757200D01*
X183148628Y-182900057D01*
X183148628Y-183042914D01*
X182434342Y-183185771D01*
X183577200Y-182685771D02*
X184148628Y-182685771D01*
X183791485Y-182185771D02*
X183791485Y-183471485D01*
X183862914Y-183614342D01*
X184005771Y-183685771D01*
X184148628Y-183685771D01*
X184648628Y-183542914D02*
X184720057Y-183614342D01*
X184648628Y-183685771D01*
X184577200Y-183614342D01*
X184648628Y-183542914D01*
X184648628Y-183685771D01*
X184648628Y-182757200D02*
X184720057Y-182828628D01*
X184648628Y-182900057D01*
X184577200Y-182828628D01*
X184648628Y-182757200D01*
X184648628Y-182900057D01*
D11*
X179054342Y-179900057D02*
X179268628Y-179971485D01*
X179340057Y-180042914D01*
X179411485Y-180185771D01*
X179411485Y-180400057D01*
X179340057Y-180542914D01*
X179268628Y-180614342D01*
X179125771Y-180685771D01*
X178554342Y-180685771D01*
X178554342Y-179185771D01*
X179054342Y-179185771D01*
X179197200Y-179257200D01*
X179268628Y-179328628D01*
X179340057Y-179471485D01*
X179340057Y-179614342D01*
X179268628Y-179757200D01*
X179197200Y-179828628D01*
X179054342Y-179900057D01*
X178554342Y-179900057D01*
X180054342Y-180685771D02*
X180054342Y-179685771D01*
X180054342Y-179185771D02*
X179982914Y-179257200D01*
X180054342Y-179328628D01*
X180125771Y-179257200D01*
X180054342Y-179185771D01*
X180054342Y-179328628D01*
X180554342Y-179685771D02*
X181125771Y-179685771D01*
X180768628Y-179185771D02*
X180768628Y-180471485D01*
X180840057Y-180614342D01*
X180982914Y-180685771D01*
X181125771Y-180685771D01*
X182268628Y-180614342D02*
X182125771Y-180685771D01*
X181840057Y-180685771D01*
X181697200Y-180614342D01*
X181625771Y-180542914D01*
X181554342Y-180400057D01*
X181554342Y-179971485D01*
X181625771Y-179828628D01*
X181697200Y-179757200D01*
X181840057Y-179685771D01*
X182125771Y-179685771D01*
X182268628Y-179757200D01*
X182911485Y-180685771D02*
X182911485Y-179685771D01*
X182911485Y-179971485D02*
X182982914Y-179828628D01*
X183054342Y-179757200D01*
X183197200Y-179685771D01*
X183340057Y-179685771D01*
X184482914Y-180685771D02*
X184482914Y-179900057D01*
X184411485Y-179757200D01*
X184268628Y-179685771D01*
X183982914Y-179685771D01*
X183840057Y-179757200D01*
X184482914Y-180614342D02*
X184340057Y-180685771D01*
X183982914Y-180685771D01*
X183840057Y-180614342D01*
X183768628Y-180471485D01*
X183768628Y-180328628D01*
X183840057Y-180185771D01*
X183982914Y-180114342D01*
X184340057Y-180114342D01*
X184482914Y-180042914D01*
X185054342Y-179685771D02*
X185840057Y-179685771D01*
X185054342Y-180685771D01*
X185840057Y-180685771D01*
X186982914Y-180614342D02*
X186840057Y-180685771D01*
X186554342Y-180685771D01*
X186411485Y-180614342D01*
X186340057Y-180471485D01*
X186340057Y-179900057D01*
X186411485Y-179757200D01*
X186554342Y-179685771D01*
X186840057Y-179685771D01*
X186982914Y-179757200D01*
X187054342Y-179900057D01*
X187054342Y-180042914D01*
X186340057Y-180185771D01*
X188768628Y-180257200D02*
X189482914Y-180257200D01*
X188625771Y-180685771D02*
X189125771Y-179185771D01*
X189625771Y-180685771D01*
X190625771Y-179900057D02*
X190840057Y-179971485D01*
X190911485Y-180042914D01*
X190982914Y-180185771D01*
X190982914Y-180400057D01*
X190911485Y-180542914D01*
X190840057Y-180614342D01*
X190697200Y-180685771D01*
X190125771Y-180685771D01*
X190125771Y-179185771D01*
X190625771Y-179185771D01*
X190768628Y-179257200D01*
X190840057Y-179328628D01*
X190911485Y-179471485D01*
X190911485Y-179614342D01*
X190840057Y-179757200D01*
X190768628Y-179828628D01*
X190625771Y-179900057D01*
X190125771Y-179900057D01*
D10*
X179148628Y-177685771D02*
X178434342Y-177685771D01*
X178434342Y-176185771D01*
X179648628Y-177685771D02*
X179648628Y-176685771D01*
X179648628Y-176185771D02*
X179577200Y-176257200D01*
X179648628Y-176328628D01*
X179720057Y-176257200D01*
X179648628Y-176185771D01*
X179648628Y-176328628D01*
X181005771Y-177614342D02*
X180862914Y-177685771D01*
X180577200Y-177685771D01*
X180434342Y-177614342D01*
X180362914Y-177542914D01*
X180291485Y-177400057D01*
X180291485Y-176971485D01*
X180362914Y-176828628D01*
X180434342Y-176757200D01*
X180577200Y-176685771D01*
X180862914Y-176685771D01*
X181005771Y-176757200D01*
X182220057Y-177614342D02*
X182077200Y-177685771D01*
X181791485Y-177685771D01*
X181648628Y-177614342D01*
X181577200Y-177471485D01*
X181577200Y-176900057D01*
X181648628Y-176757200D01*
X181791485Y-176685771D01*
X182077200Y-176685771D01*
X182220057Y-176757200D01*
X182291485Y-176900057D01*
X182291485Y-177042914D01*
X181577200Y-177185771D01*
X182934342Y-176685771D02*
X182934342Y-177685771D01*
X182934342Y-176828628D02*
X183005771Y-176757200D01*
X183148628Y-176685771D01*
X183362914Y-176685771D01*
X183505771Y-176757200D01*
X183577200Y-176900057D01*
X183577200Y-177685771D01*
X184220057Y-177614342D02*
X184362914Y-177685771D01*
X184648628Y-177685771D01*
X184791485Y-177614342D01*
X184862914Y-177471485D01*
X184862914Y-177400057D01*
X184791485Y-177257200D01*
X184648628Y-177185771D01*
X184434342Y-177185771D01*
X184291485Y-177114342D01*
X184220057Y-176971485D01*
X184220057Y-176900057D01*
X184291485Y-176757200D01*
X184434342Y-176685771D01*
X184648628Y-176685771D01*
X184791485Y-176757200D01*
X186077200Y-177614342D02*
X185934342Y-177685771D01*
X185648628Y-177685771D01*
X185505771Y-177614342D01*
X185434342Y-177471485D01*
X185434342Y-176900057D01*
X185505771Y-176757200D01*
X185648628Y-176685771D01*
X185934342Y-176685771D01*
X186077200Y-176757200D01*
X186148628Y-176900057D01*
X186148628Y-177042914D01*
X185434342Y-177185771D01*
X187434342Y-177685771D02*
X187434342Y-176185771D01*
X187434342Y-177614342D02*
X187291485Y-177685771D01*
X187005771Y-177685771D01*
X186862914Y-177614342D01*
X186791485Y-177542914D01*
X186720057Y-177400057D01*
X186720057Y-176971485D01*
X186791485Y-176828628D01*
X186862914Y-176757200D01*
X187005771Y-176685771D01*
X187291485Y-176685771D01*
X187434342Y-176757200D01*
X189934342Y-176685771D02*
X189934342Y-177685771D01*
X189291485Y-176685771D02*
X189291485Y-177471485D01*
X189362914Y-177614342D01*
X189505771Y-177685771D01*
X189720057Y-177685771D01*
X189862914Y-177614342D01*
X189934342Y-177542914D01*
X190648628Y-176685771D02*
X190648628Y-177685771D01*
X190648628Y-176828628D02*
X190720057Y-176757200D01*
X190862914Y-176685771D01*
X191077200Y-176685771D01*
X191220057Y-176757200D01*
X191291485Y-176900057D01*
X191291485Y-177685771D01*
X192648628Y-177685771D02*
X192648628Y-176185771D01*
X192648628Y-177614342D02*
X192505771Y-177685771D01*
X192220057Y-177685771D01*
X192077200Y-177614342D01*
X192005771Y-177542914D01*
X191934342Y-177400057D01*
X191934342Y-176971485D01*
X192005771Y-176828628D01*
X192077200Y-176757200D01*
X192220057Y-176685771D01*
X192505771Y-176685771D01*
X192648628Y-176757200D01*
X193934342Y-177614342D02*
X193791485Y-177685771D01*
X193505771Y-177685771D01*
X193362914Y-177614342D01*
X193291485Y-177471485D01*
X193291485Y-176900057D01*
X193362914Y-176757200D01*
X193505771Y-176685771D01*
X193791485Y-176685771D01*
X193934342Y-176757200D01*
X194005771Y-176900057D01*
X194005771Y-177042914D01*
X193291485Y-177185771D01*
X194648628Y-177685771D02*
X194648628Y-176685771D01*
X194648628Y-176971485D02*
X194720057Y-176828628D01*
X194791485Y-176757200D01*
X194934342Y-176685771D01*
X195077200Y-176685771D01*
X197577200Y-177542914D02*
X197505771Y-177614342D01*
X197291485Y-177685771D01*
X197148628Y-177685771D01*
X196934342Y-177614342D01*
X196791485Y-177471485D01*
X196720057Y-177328628D01*
X196648628Y-177042914D01*
X196648628Y-176828628D01*
X196720057Y-176542914D01*
X196791485Y-176400057D01*
X196934342Y-176257200D01*
X197148628Y-176185771D01*
X197291485Y-176185771D01*
X197505771Y-176257200D01*
X197577200Y-176328628D01*
X199077200Y-177542914D02*
X199005771Y-177614342D01*
X198791485Y-177685771D01*
X198648628Y-177685771D01*
X198434342Y-177614342D01*
X198291485Y-177471485D01*
X198220057Y-177328628D01*
X198148628Y-177042914D01*
X198148628Y-176828628D01*
X198220057Y-176542914D01*
X198291485Y-176400057D01*
X198434342Y-176257200D01*
X198648628Y-176185771D01*
X198791485Y-176185771D01*
X199005771Y-176257200D01*
X199077200Y-176328628D01*
X199720057Y-177114342D02*
X200862914Y-177114342D01*
X202077200Y-176900057D02*
X202291485Y-176971485D01*
X202362914Y-177042914D01*
X202434342Y-177185771D01*
X202434342Y-177400057D01*
X202362914Y-177542914D01*
X202291485Y-177614342D01*
X202148628Y-177685771D01*
X201577200Y-177685771D01*
X201577200Y-176185771D01*
X202077200Y-176185771D01*
X202220057Y-176257200D01*
X202291485Y-176328628D01*
X202362914Y-176471485D01*
X202362914Y-176614342D01*
X202291485Y-176757200D01*
X202220057Y-176828628D01*
X202077200Y-176900057D01*
X201577200Y-176900057D01*
X203362914Y-176971485D02*
X203362914Y-177685771D01*
X202862914Y-176185771D02*
X203362914Y-176971485D01*
X203862914Y-176185771D01*
X206148628Y-176685771D02*
X206148628Y-177685771D01*
X205791485Y-176114342D02*
X205434342Y-177185771D01*
X206362914Y-177185771D01*
X206934342Y-177542914D02*
X207005771Y-177614342D01*
X206934342Y-177685771D01*
X206862914Y-177614342D01*
X206934342Y-177542914D01*
X206934342Y-177685771D01*
X207934342Y-176185771D02*
X208077200Y-176185771D01*
X208220057Y-176257200D01*
X208291485Y-176328628D01*
X208362914Y-176471485D01*
X208434342Y-176757200D01*
X208434342Y-177114342D01*
X208362914Y-177400057D01*
X208291485Y-177542914D01*
X208220057Y-177614342D01*
X208077200Y-177685771D01*
X207934342Y-177685771D01*
X207791485Y-177614342D01*
X207720057Y-177542914D01*
X207648628Y-177400057D01*
X207577200Y-177114342D01*
X207577200Y-176757200D01*
X207648628Y-176471485D01*
X207720057Y-176328628D01*
X207791485Y-176257200D01*
X207934342Y-176185771D01*
X197002200Y-191507200D02*
X197002200Y-194507200D01*
X261002200Y-191507200D02*
X261002200Y-198007200D01*
X97773600Y-162021780D02*
X97773600Y-161021780D01*
X98011695Y-161021780D01*
X98154552Y-161069400D01*
X98249790Y-161164638D01*
X98297409Y-161259876D01*
X98345028Y-161450352D01*
X98345028Y-161593209D01*
X98297409Y-161783685D01*
X98249790Y-161878923D01*
X98154552Y-161974161D01*
X98011695Y-162021780D01*
X97773600Y-162021780D01*
X98773600Y-162021780D02*
X98773600Y-161355114D01*
X98773600Y-161021780D02*
X98725980Y-161069400D01*
X98773600Y-161117019D01*
X98821219Y-161069400D01*
X98773600Y-161021780D01*
X98773600Y-161117019D01*
X99249790Y-161355114D02*
X99249790Y-162021780D01*
X99249790Y-161450352D02*
X99297409Y-161402733D01*
X99392647Y-161355114D01*
X99535504Y-161355114D01*
X99630742Y-161402733D01*
X99678361Y-161497971D01*
X99678361Y-162021780D01*
X100154552Y-162021780D02*
X100154552Y-161355114D01*
X100154552Y-161021780D02*
X100106933Y-161069400D01*
X100154552Y-161117019D01*
X100202171Y-161069400D01*
X100154552Y-161021780D01*
X100154552Y-161117019D01*
X100583123Y-161974161D02*
X100678361Y-162021780D01*
X100868838Y-162021780D01*
X100964076Y-161974161D01*
X101011695Y-161878923D01*
X101011695Y-161831304D01*
X100964076Y-161736066D01*
X100868838Y-161688447D01*
X100725980Y-161688447D01*
X100630742Y-161640828D01*
X100583123Y-161545590D01*
X100583123Y-161497971D01*
X100630742Y-161402733D01*
X100725980Y-161355114D01*
X100868838Y-161355114D01*
X100964076Y-161402733D01*
X101487885Y-161974161D02*
X101487885Y-162021780D01*
X101440266Y-162117019D01*
X101392647Y-162164638D01*
X102678361Y-162021780D02*
X102678361Y-161021780D01*
X102916457Y-161021780D01*
X103059314Y-161069400D01*
X103154552Y-161164638D01*
X103202171Y-161259876D01*
X103249790Y-161450352D01*
X103249790Y-161593209D01*
X103202171Y-161783685D01*
X103154552Y-161878923D01*
X103059314Y-161974161D01*
X102916457Y-162021780D01*
X102678361Y-162021780D01*
X104106933Y-161355114D02*
X104106933Y-162021780D01*
X103678361Y-161355114D02*
X103678361Y-161878923D01*
X103725980Y-161974161D01*
X103821219Y-162021780D01*
X103964076Y-162021780D01*
X104059314Y-161974161D01*
X104106933Y-161926542D01*
X104583123Y-162021780D02*
X104583123Y-161355114D01*
X104583123Y-161450352D02*
X104630742Y-161402733D01*
X104725980Y-161355114D01*
X104868838Y-161355114D01*
X104964076Y-161402733D01*
X105011695Y-161497971D01*
X105011695Y-162021780D01*
X105011695Y-161497971D02*
X105059314Y-161402733D01*
X105154552Y-161355114D01*
X105297409Y-161355114D01*
X105392647Y-161402733D01*
X105440266Y-161497971D01*
X105440266Y-162021780D01*
X105916457Y-162021780D02*
X105916457Y-161021780D01*
X105916457Y-161402733D02*
X106011695Y-161355114D01*
X106202171Y-161355114D01*
X106297409Y-161402733D01*
X106345028Y-161450352D01*
X106392647Y-161545590D01*
X106392647Y-161831304D01*
X106345028Y-161926542D01*
X106297409Y-161974161D01*
X106202171Y-162021780D01*
X106011695Y-162021780D01*
X105916457Y-161974161D01*
X107249790Y-161355114D02*
X107249790Y-162164638D01*
X107202171Y-162259876D01*
X107154552Y-162307495D01*
X107059314Y-162355114D01*
X106916457Y-162355114D01*
X106821219Y-162307495D01*
X107249790Y-161974161D02*
X107154552Y-162021780D01*
X106964076Y-162021780D01*
X106868838Y-161974161D01*
X106821219Y-161926542D01*
X106773600Y-161831304D01*
X106773600Y-161545590D01*
X106821219Y-161450352D01*
X106868838Y-161402733D01*
X106964076Y-161355114D01*
X107154552Y-161355114D01*
X107249790Y-161402733D01*
X108106933Y-161974161D02*
X108011695Y-162021780D01*
X107821219Y-162021780D01*
X107725980Y-161974161D01*
X107678361Y-161878923D01*
X107678361Y-161497971D01*
X107725980Y-161402733D01*
X107821219Y-161355114D01*
X108011695Y-161355114D01*
X108106933Y-161402733D01*
X108154552Y-161497971D01*
X108154552Y-161593209D01*
X107678361Y-161688447D01*
X108583123Y-161355114D02*
X108583123Y-162021780D01*
X108583123Y-161450352D02*
X108630742Y-161402733D01*
X108725980Y-161355114D01*
X108868838Y-161355114D01*
X108964076Y-161402733D01*
X109011695Y-161497971D01*
X109011695Y-162021780D01*
X109535504Y-161974161D02*
X109535504Y-162021780D01*
X109487885Y-162117019D01*
X109440266Y-162164638D01*
X110725980Y-162021780D02*
X110725980Y-161021780D01*
X110725980Y-161497971D02*
X111297409Y-161497971D01*
X111297409Y-162021780D02*
X111297409Y-161021780D01*
X111916457Y-162021780D02*
X111821219Y-161974161D01*
X111773600Y-161926542D01*
X111725980Y-161831304D01*
X111725980Y-161545590D01*
X111773600Y-161450352D01*
X111821219Y-161402733D01*
X111916457Y-161355114D01*
X112059314Y-161355114D01*
X112154552Y-161402733D01*
X112202171Y-161450352D01*
X112249790Y-161545590D01*
X112249790Y-161831304D01*
X112202171Y-161926542D01*
X112154552Y-161974161D01*
X112059314Y-162021780D01*
X111916457Y-162021780D01*
X112535504Y-161355114D02*
X112916457Y-161355114D01*
X112678361Y-162021780D02*
X112678361Y-161164638D01*
X112725980Y-161069400D01*
X112821219Y-161021780D01*
X112916457Y-161021780D01*
X113106933Y-161355114D02*
X113487885Y-161355114D01*
X113249790Y-162021780D02*
X113249790Y-161164638D01*
X113297409Y-161069400D01*
X113392647Y-161021780D01*
X113487885Y-161021780D01*
X114202171Y-161974161D02*
X114106933Y-162021780D01*
X113916457Y-162021780D01*
X113821219Y-161974161D01*
X113773600Y-161878923D01*
X113773600Y-161497971D01*
X113821219Y-161402733D01*
X113916457Y-161355114D01*
X114106933Y-161355114D01*
X114202171Y-161402733D01*
X114249790Y-161497971D01*
X114249790Y-161593209D01*
X113773600Y-161688447D01*
X114535504Y-161355114D02*
X114916457Y-161355114D01*
X114678361Y-161021780D02*
X114678361Y-161878923D01*
X114725980Y-161974161D01*
X114821219Y-162021780D01*
X114916457Y-162021780D01*
X102091028Y-159999371D02*
X102424361Y-159999371D01*
X102567219Y-160523180D02*
X102091028Y-160523180D01*
X102091028Y-159523180D01*
X102567219Y-159523180D01*
X102995790Y-160523180D02*
X102995790Y-159523180D01*
X103376742Y-159523180D01*
X103471980Y-159570800D01*
X103519600Y-159618419D01*
X103567219Y-159713657D01*
X103567219Y-159856514D01*
X103519600Y-159951752D01*
X103471980Y-159999371D01*
X103376742Y-160046990D01*
X102995790Y-160046990D01*
X104329123Y-159999371D02*
X103995790Y-159999371D01*
X103995790Y-160523180D02*
X103995790Y-159523180D01*
X104471980Y-159523180D01*
X105329123Y-160523180D02*
X104852933Y-160523180D01*
X104852933Y-159523180D01*
X105662457Y-160142228D02*
X106424361Y-160142228D01*
X107376742Y-160523180D02*
X106900552Y-160523180D01*
X106900552Y-159523180D01*
X108281504Y-160427942D02*
X108233885Y-160475561D01*
X108091028Y-160523180D01*
X107995790Y-160523180D01*
X107852933Y-160475561D01*
X107757695Y-160380323D01*
X107710076Y-160285085D01*
X107662457Y-160094609D01*
X107662457Y-159951752D01*
X107710076Y-159761276D01*
X107757695Y-159666038D01*
X107852933Y-159570800D01*
X107995790Y-159523180D01*
X108091028Y-159523180D01*
X108233885Y-159570800D01*
X108281504Y-159618419D01*
X108662457Y-160237466D02*
X109138647Y-160237466D01*
X108567219Y-160523180D02*
X108900552Y-159523180D01*
X109233885Y-160523180D01*
X109424361Y-159523180D02*
X109757695Y-160523180D01*
X110091028Y-159523180D01*
X100692676Y-158662666D02*
X101168866Y-158662666D01*
X100597438Y-158948380D02*
X100930771Y-157948380D01*
X101264104Y-158948380D01*
X102026009Y-158281714D02*
X102026009Y-158948380D01*
X101597438Y-158281714D02*
X101597438Y-158805523D01*
X101645057Y-158900761D01*
X101740295Y-158948380D01*
X101883152Y-158948380D01*
X101978390Y-158900761D01*
X102026009Y-158853142D01*
X102930771Y-158948380D02*
X102930771Y-157948380D01*
X102930771Y-158900761D02*
X102835533Y-158948380D01*
X102645057Y-158948380D01*
X102549819Y-158900761D01*
X102502200Y-158853142D01*
X102454580Y-158757904D01*
X102454580Y-158472190D01*
X102502200Y-158376952D01*
X102549819Y-158329333D01*
X102645057Y-158281714D01*
X102835533Y-158281714D01*
X102930771Y-158329333D01*
X103406961Y-158948380D02*
X103406961Y-158281714D01*
X103406961Y-157948380D02*
X103359342Y-157996000D01*
X103406961Y-158043619D01*
X103454580Y-157996000D01*
X103406961Y-157948380D01*
X103406961Y-158043619D01*
X104026009Y-158948380D02*
X103930771Y-158900761D01*
X103883152Y-158853142D01*
X103835533Y-158757904D01*
X103835533Y-158472190D01*
X103883152Y-158376952D01*
X103930771Y-158329333D01*
X104026009Y-158281714D01*
X104168866Y-158281714D01*
X104264104Y-158329333D01*
X104311723Y-158376952D01*
X104359342Y-158472190D01*
X104359342Y-158757904D01*
X104311723Y-158853142D01*
X104264104Y-158900761D01*
X104168866Y-158948380D01*
X104026009Y-158948380D01*
X105502200Y-158900761D02*
X105645057Y-158948380D01*
X105883152Y-158948380D01*
X105978390Y-158900761D01*
X106026009Y-158853142D01*
X106073628Y-158757904D01*
X106073628Y-158662666D01*
X106026009Y-158567428D01*
X105978390Y-158519809D01*
X105883152Y-158472190D01*
X105692676Y-158424571D01*
X105597438Y-158376952D01*
X105549819Y-158329333D01*
X105502200Y-158234095D01*
X105502200Y-158138857D01*
X105549819Y-158043619D01*
X105597438Y-157996000D01*
X105692676Y-157948380D01*
X105930771Y-157948380D01*
X106073628Y-157996000D01*
X106502200Y-158948380D02*
X106502200Y-157948380D01*
X106930771Y-158948380D02*
X106930771Y-158424571D01*
X106883152Y-158329333D01*
X106787914Y-158281714D01*
X106645057Y-158281714D01*
X106549819Y-158329333D01*
X106502200Y-158376952D01*
X107406961Y-158948380D02*
X107406961Y-158281714D01*
X107406961Y-157948380D02*
X107359342Y-157996000D01*
X107406961Y-158043619D01*
X107454580Y-157996000D01*
X107406961Y-157948380D01*
X107406961Y-158043619D01*
X108264104Y-158900761D02*
X108168866Y-158948380D01*
X107978390Y-158948380D01*
X107883152Y-158900761D01*
X107835533Y-158805523D01*
X107835533Y-158424571D01*
X107883152Y-158329333D01*
X107978390Y-158281714D01*
X108168866Y-158281714D01*
X108264104Y-158329333D01*
X108311723Y-158424571D01*
X108311723Y-158519809D01*
X107835533Y-158615047D01*
X108883152Y-158948380D02*
X108787914Y-158900761D01*
X108740295Y-158805523D01*
X108740295Y-157948380D01*
X109692676Y-158948380D02*
X109692676Y-157948380D01*
X109692676Y-158900761D02*
X109597438Y-158948380D01*
X109406961Y-158948380D01*
X109311723Y-158900761D01*
X109264104Y-158853142D01*
X109216485Y-158757904D01*
X109216485Y-158472190D01*
X109264104Y-158376952D01*
X109311723Y-158329333D01*
X109406961Y-158281714D01*
X109597438Y-158281714D01*
X109692676Y-158329333D01*
X110787914Y-157948380D02*
X111121247Y-158948380D01*
X111454580Y-157948380D01*
X112311723Y-158948380D02*
X111740295Y-158948380D01*
X112026009Y-158948380D02*
X112026009Y-157948380D01*
X111930771Y-158091238D01*
X111835533Y-158186476D01*
X111740295Y-158234095D01*
D13*
%TO.C,J1*%
X131100000Y-87200000D02*
X128700000Y-87200000D01*
X128700000Y-87200000D02*
X128700000Y-84800000D01*
X128700000Y-84800000D02*
X129100000Y-84800000D01*
X135100000Y-87200000D02*
X132900000Y-87200000D01*
X139100000Y-87200000D02*
X136900000Y-87200000D01*
X133100000Y-84800000D02*
X130900000Y-84800000D01*
X137100000Y-84800000D02*
X134900000Y-84800000D01*
X140900000Y-84800000D02*
X138900000Y-84800000D01*
X143100000Y-87200000D02*
X140900000Y-87200000D01*
X145100000Y-84800000D02*
X142700000Y-84800000D01*
X147100000Y-87200000D02*
X144900000Y-87200000D01*
X149300000Y-87200000D02*
X148900000Y-87200000D01*
X149300000Y-87200000D02*
X149300000Y-84800000D01*
X149300000Y-84800000D02*
X146900000Y-84800000D01*
%TO.C,J2*%
X131100000Y-109200000D02*
X128700000Y-109200000D01*
X128700000Y-109200000D02*
X128700000Y-106800000D01*
X128700000Y-106800000D02*
X129100000Y-106800000D01*
X135100000Y-109200000D02*
X132900000Y-109200000D01*
X139100000Y-109200000D02*
X136900000Y-109200000D01*
X133100000Y-106800000D02*
X130900000Y-106800000D01*
X137100000Y-106800000D02*
X134900000Y-106800000D01*
X140900000Y-106800000D02*
X138900000Y-106800000D01*
X143100000Y-109200000D02*
X140900000Y-109200000D01*
X145100000Y-106800000D02*
X142700000Y-106800000D01*
X147100000Y-109200000D02*
X144900000Y-109200000D01*
X149300000Y-109200000D02*
X148900000Y-109200000D01*
X149300000Y-109200000D02*
X149300000Y-106800000D01*
X149300000Y-106800000D02*
X146900000Y-106800000D01*
D14*
%TO.C,J9*%
X140371000Y-117605920D02*
X139736000Y-117605920D01*
X140371000Y-116970920D02*
X140371000Y-117605920D01*
D10*
%TO.C,EXP_ORIENTATION*%
X157779057Y-97000000D02*
G75*
G03*
X157779057Y-97000000I-79057J0D01*
G01*
X158400446Y-97000000D02*
G75*
G03*
X158400446Y-97000000I-700446J0D01*
G01*
X158400000Y-97000000D02*
X159500000Y-97000000D01*
X159500000Y-97000000D02*
X159100000Y-96650000D01*
X159500000Y-97000000D02*
X159100000Y-97350000D01*
D14*
%TO.C,TX1*%
X166900000Y-95200000D02*
G75*
G03*
X166900000Y-95200000I-1500000J0D01*
G01*
%TO.C,SPI2_MOSI1*%
X133300000Y-115800000D02*
G75*
G03*
X133300000Y-115800000I-1500000J0D01*
G01*
%TO.C,SPI2_MISO1*%
X148100000Y-116800000D02*
G75*
G03*
X148100000Y-116800000I-1500000J0D01*
G01*
%TO.C,SPI2_CK1*%
X148100000Y-112800000D02*
G75*
G03*
X148100000Y-112800000I-1500000J0D01*
G01*
%TO.C,SDL1*%
X162800000Y-99200000D02*
G75*
G03*
X162800000Y-99200000I-1500000J0D01*
G01*
%TO.C,SDA1*%
X162800000Y-95200000D02*
G75*
G03*
X162800000Y-95200000I-1500000J0D01*
G01*
%TO.C,RX1*%
X166900000Y-99200000D02*
G75*
G03*
X166900000Y-99200000I-1500000J0D01*
G01*
%TO.C,PC3*%
X110900000Y-99300000D02*
G75*
G03*
X110900000Y-99300000I-1500000J0D01*
G01*
%TO.C,PA2*%
X110900000Y-95200000D02*
G75*
G03*
X110900000Y-95200000I-1500000J0D01*
G01*
%TO.C,I2S3_WS1*%
X140200000Y-65800000D02*
G75*
G03*
X140200000Y-65800000I-1500000J0D01*
G01*
%TO.C,I2S3_SD1*%
X137900000Y-62600000D02*
G75*
G03*
X137900000Y-62600000I-1500000J0D01*
G01*
%TO.C,I2S3_CK1*%
X142400000Y-62600000D02*
G75*
G03*
X142400000Y-62600000I-1500000J0D01*
G01*
%TO.C,I2S1_WS1*%
X140300000Y-124600000D02*
G75*
G03*
X140300000Y-124600000I-1500000J0D01*
G01*
%TO.C,I2S1_SD1*%
X138100000Y-128200000D02*
G75*
G03*
X138100000Y-128200000I-1500000J0D01*
G01*
%TO.C,I2S1_CK1*%
X142500000Y-128200000D02*
G75*
G03*
X142500000Y-128200000I-1500000J0D01*
G01*
%TO.C,GND4*%
X106300000Y-95200000D02*
G75*
G03*
X106300000Y-95200000I-1500000J0D01*
G01*
%TO.C,GND3*%
X138100000Y-132200000D02*
G75*
G03*
X138100000Y-132200000I-1500000J0D01*
G01*
%TO.C,GND2*%
X170900000Y-99200000D02*
G75*
G03*
X170900000Y-99200000I-1500000J0D01*
G01*
%TO.C,GND1*%
X142400000Y-69100000D02*
G75*
G03*
X142400000Y-69100000I-1500000J0D01*
G01*
%TO.C,3V0_4*%
X142500000Y-132200000D02*
G75*
G03*
X142500000Y-132200000I-1500000J0D01*
G01*
%TO.C,3V0_3*%
X170900000Y-95200000D02*
G75*
G03*
X170900000Y-95200000I-1500000J0D01*
G01*
%TO.C,3V0_2*%
X137900000Y-69100000D02*
G75*
G03*
X137900000Y-69100000I-1500000J0D01*
G01*
%TO.C,3V0_1*%
X106300000Y-99300000D02*
G75*
G03*
X106300000Y-99300000I-1500000J0D01*
G01*
%TO.C,J43*%
X75242630Y-138016548D02*
X74767222Y-136710375D01*
X77234778Y-137291465D02*
X76759370Y-135985292D01*
X75242630Y-138016548D02*
X75582940Y-138951542D01*
X75242630Y-138016548D02*
X75242630Y-138016548D01*
X76759370Y-135985292D02*
X76759370Y-135985292D01*
X74767222Y-136710375D02*
X75706914Y-136368355D01*
X76295086Y-137633485D02*
X77234778Y-137291465D01*
%TO.C,J42*%
X203234778Y-136710375D02*
X202759370Y-138016548D01*
X201242630Y-135985292D02*
X200767222Y-137291465D01*
X203234778Y-136710375D02*
X203575088Y-135775381D01*
X203234778Y-136710375D02*
X203234778Y-136710375D01*
X200767222Y-137291465D02*
X200767222Y-137291465D01*
X202759370Y-138016548D02*
X201819678Y-137674528D01*
X202182322Y-136327312D02*
X201242630Y-135985292D01*
%TO.C,J41*%
X129206000Y-43240920D02*
X130596000Y-43240920D01*
X129206000Y-45360920D02*
X130596000Y-45360920D01*
X129206000Y-43240920D02*
X128211000Y-43240920D01*
X129206000Y-43240920D02*
X129206000Y-43240920D01*
X130596000Y-45360920D02*
X130596000Y-45360920D01*
X130596000Y-43240920D02*
X130596000Y-44240920D01*
X129206000Y-44360920D02*
X129206000Y-45360920D01*
%TO.C,J40*%
X188929112Y-102735433D02*
X190132888Y-103430433D01*
X187869112Y-104571407D02*
X189072888Y-105266407D01*
X188929112Y-102735433D02*
X188067417Y-102237933D01*
X188929112Y-102735433D02*
X188929112Y-102735433D01*
X189072888Y-105266407D02*
X189072888Y-105266407D01*
X190132888Y-103430433D02*
X189632888Y-104296458D01*
X188369112Y-103705382D02*
X187869112Y-104571407D01*
%TO.C,J39*%
X87869112Y-103430433D02*
X89072888Y-102735433D01*
X88929112Y-105266407D02*
X90132888Y-104571407D01*
X87869112Y-103430433D02*
X87007417Y-103927933D01*
X87869112Y-103430433D02*
X87869112Y-103430433D01*
X90132888Y-104571407D02*
X90132888Y-104571407D01*
X89072888Y-102735433D02*
X89572888Y-103601458D01*
X88429112Y-104400382D02*
X88929112Y-105266407D01*
%TO.C,J38*%
X137941000Y-58995000D02*
X137941000Y-57605000D01*
X140061000Y-58995000D02*
X140061000Y-57605000D01*
X137941000Y-58995000D02*
X137941000Y-59990000D01*
X137941000Y-58995000D02*
X137941000Y-58995000D01*
X140061000Y-57605000D02*
X140061000Y-57605000D01*
X137941000Y-57605000D02*
X138941000Y-57605000D01*
X139061000Y-58995000D02*
X140061000Y-58995000D01*
%TO.C,J37*%
X99295000Y-98060920D02*
X97905000Y-98060920D01*
X99295000Y-95940920D02*
X97905000Y-95940920D01*
X99295000Y-98060920D02*
X100290000Y-98060920D01*
X99295000Y-98060920D02*
X99295000Y-98060920D01*
X97905000Y-95940920D02*
X97905000Y-95940920D01*
X97905000Y-98060920D02*
X97905000Y-97060920D01*
X99295000Y-96940920D02*
X99295000Y-95940920D01*
%TO.C,J36*%
X75767222Y-121291465D02*
X76242630Y-119985292D01*
X77759370Y-122016548D02*
X78234778Y-120710375D01*
X75767222Y-121291465D02*
X75426912Y-122226459D01*
X75767222Y-121291465D02*
X75767222Y-121291465D01*
X78234778Y-120710375D02*
X78234778Y-120710375D01*
X76242630Y-119985292D02*
X77182322Y-120327312D01*
X76819678Y-121674528D02*
X77759370Y-122016548D01*
%TO.C,J35*%
X177496000Y-98060920D02*
X176106000Y-98060920D01*
X177496000Y-95940920D02*
X176106000Y-95940920D01*
X177496000Y-98060920D02*
X178491000Y-98060920D01*
X177496000Y-98060920D02*
X177496000Y-98060920D01*
X176106000Y-95940920D02*
X176106000Y-95940920D01*
X176106000Y-98060920D02*
X176106000Y-97060920D01*
X177496000Y-96940920D02*
X177496000Y-95940920D01*
%TO.C,J34*%
X200759370Y-119985292D02*
X201234778Y-121291465D01*
X198767222Y-120710375D02*
X199242630Y-122016548D01*
X200759370Y-119985292D02*
X200419060Y-119050298D01*
X200759370Y-119985292D02*
X200759370Y-119985292D01*
X199242630Y-122016548D02*
X199242630Y-122016548D01*
X201234778Y-121291465D02*
X200295086Y-121633485D01*
X199706914Y-120368355D02*
X198767222Y-120710375D01*
%TO.C,J33*%
X88929112Y-88735433D02*
X90132888Y-89430433D01*
X87869112Y-90571407D02*
X89072888Y-91266407D01*
X88929112Y-88735433D02*
X88067417Y-88237933D01*
X88929112Y-88735433D02*
X88929112Y-88735433D01*
X89072888Y-91266407D02*
X89072888Y-91266407D01*
X90132888Y-89430433D02*
X89632888Y-90296458D01*
X88369112Y-89705382D02*
X87869112Y-90571407D01*
%TO.C,J32*%
X77759370Y-71985292D02*
X78234778Y-73291465D01*
X75767222Y-72710375D02*
X76242630Y-74016548D01*
X77759370Y-71985292D02*
X77419060Y-71050298D01*
X77759370Y-71985292D02*
X77759370Y-71985292D01*
X76242630Y-74016548D02*
X76242630Y-74016548D01*
X78234778Y-73291465D02*
X77295086Y-73633485D01*
X76706914Y-72368355D02*
X75767222Y-72710375D01*
%TO.C,J31*%
X191359094Y-40359948D02*
X192341972Y-41342826D01*
X189860028Y-41859014D02*
X190842906Y-42841892D01*
X191359094Y-40359948D02*
X190655523Y-39656376D01*
X191359094Y-40359948D02*
X191359094Y-40359948D01*
X190842906Y-42841892D02*
X190842906Y-42841892D01*
X192341972Y-41342826D02*
X191634866Y-42049933D01*
X190567134Y-41151907D02*
X189860028Y-41859014D01*
%TO.C,J30*%
X193867134Y-44451907D02*
X193160028Y-45159014D01*
X195641972Y-44642826D02*
X194934866Y-45349933D01*
X194142906Y-46141892D02*
X194142906Y-46141892D01*
X194659094Y-43659948D02*
X194659094Y-43659948D01*
X194659094Y-43659948D02*
X193955523Y-42956376D01*
X193160028Y-45159014D02*
X194142906Y-46141892D01*
X194659094Y-43659948D02*
X195641972Y-44642826D01*
%TO.C,J29*%
X83342906Y-150341892D02*
X82360028Y-149359014D01*
X84841972Y-148842826D02*
X83859094Y-147859948D01*
X83342906Y-150341892D02*
X84046477Y-151045464D01*
X83342906Y-150341892D02*
X83342906Y-150341892D01*
X83859094Y-147859948D02*
X83859094Y-147859948D01*
X82360028Y-149359014D02*
X83067134Y-148651907D01*
X84134866Y-149549933D02*
X84841972Y-148842826D01*
%TO.C,J28*%
X86642906Y-153641892D02*
X85660028Y-152659014D01*
X88141972Y-152142826D02*
X87159094Y-151159948D01*
X86642906Y-153641892D02*
X87346477Y-154345464D01*
X86642906Y-153641892D02*
X86642906Y-153641892D01*
X87159094Y-151159948D02*
X87159094Y-151159948D01*
X85660028Y-152659014D02*
X86367134Y-151951907D01*
X87434866Y-152849933D02*
X88141972Y-152142826D01*
%TO.C,J27*%
X193160028Y-148842826D02*
X194142906Y-147859948D01*
X194659094Y-150341892D02*
X195641972Y-149359014D01*
X193160028Y-148842826D02*
X192456456Y-149546397D01*
X193160028Y-148842826D02*
X193160028Y-148842826D01*
X195641972Y-149359014D02*
X195641972Y-149359014D01*
X194142906Y-147859948D02*
X194850013Y-148567054D01*
X193951987Y-149634786D02*
X194659094Y-150341892D01*
%TO.C,J26*%
X189860028Y-152142826D02*
X190842906Y-151159948D01*
X191359094Y-153641892D02*
X192341972Y-152659014D01*
X189860028Y-152142826D02*
X189156456Y-152846397D01*
X189860028Y-152142826D02*
X189860028Y-152142826D01*
X192341972Y-152659014D02*
X192341972Y-152659014D01*
X190842906Y-151159948D02*
X191550013Y-151867054D01*
X190651987Y-152934786D02*
X191359094Y-153641892D01*
%TO.C,J25*%
X76267222Y-56591465D02*
X76742630Y-55285292D01*
X78259370Y-57316548D02*
X78734778Y-56010375D01*
X76267222Y-56591465D02*
X75926912Y-57526459D01*
X76267222Y-56591465D02*
X76267222Y-56591465D01*
X78734778Y-56010375D02*
X78734778Y-56010375D01*
X76742630Y-55285292D02*
X77682322Y-55627312D01*
X77319678Y-56974528D02*
X78259370Y-57316548D01*
%TO.C,J24*%
X77867222Y-52191465D02*
X78342630Y-50885292D01*
X79859370Y-52916548D02*
X80334778Y-51610375D01*
X77867222Y-52191465D02*
X77526912Y-53126459D01*
X77867222Y-52191465D02*
X77867222Y-52191465D01*
X80334778Y-51610375D02*
X80334778Y-51610375D01*
X78342630Y-50885292D02*
X79282322Y-51227312D01*
X78919678Y-52574528D02*
X79859370Y-52916548D01*
%TO.C,J23*%
X82360028Y-44642826D02*
X83342906Y-43659948D01*
X83859094Y-46141892D02*
X84841972Y-45159014D01*
X82360028Y-44642826D02*
X81656456Y-45346397D01*
X82360028Y-44642826D02*
X82360028Y-44642826D01*
X84841972Y-45159014D02*
X84841972Y-45159014D01*
X83342906Y-43659948D02*
X84050013Y-44367054D01*
X83151987Y-45434786D02*
X83859094Y-46141892D01*
%TO.C,J22*%
X88141972Y-41859014D02*
X87159094Y-42841892D01*
X86642906Y-40359948D02*
X85660028Y-41342826D01*
X88141972Y-41859014D02*
X88845544Y-41155443D01*
X88141972Y-41859014D02*
X88141972Y-41859014D01*
X85660028Y-41342826D02*
X85660028Y-41342826D01*
X87159094Y-42841892D02*
X86451987Y-42134786D01*
X87350013Y-41067054D02*
X86642906Y-40359948D01*
%TO.C,J21*%
X92885372Y-36342550D02*
X94191545Y-35867142D01*
X93610455Y-38334698D02*
X94916628Y-37859290D01*
X92885372Y-36342550D02*
X91950378Y-36682860D01*
X92885372Y-36342550D02*
X92885372Y-36342550D01*
X94916628Y-37859290D02*
X94916628Y-37859290D01*
X94191545Y-35867142D02*
X94533565Y-36806834D01*
X93268435Y-37395006D02*
X93610455Y-38334698D01*
%TO.C,J20*%
X97285372Y-34742550D02*
X98591545Y-34267142D01*
X98010455Y-36734698D02*
X99316628Y-36259290D01*
X97285372Y-34742550D02*
X96350378Y-35082860D01*
X97285372Y-34742550D02*
X97285372Y-34742550D01*
X99316628Y-36259290D02*
X99316628Y-36259290D01*
X98591545Y-34267142D02*
X98933565Y-35206834D01*
X97668435Y-35795006D02*
X98010455Y-36734698D01*
%TO.C,J19*%
X105901030Y-33384380D02*
X107285740Y-33505527D01*
X105716260Y-35496313D02*
X107100970Y-35617460D01*
X105901030Y-33384380D02*
X104909816Y-33297660D01*
X105901030Y-33384380D02*
X105901030Y-33384380D01*
X107100970Y-35617460D02*
X107100970Y-35617460D01*
X107285740Y-33505527D02*
X107198585Y-34501722D01*
X105803415Y-34500118D02*
X105716260Y-35496313D01*
%TO.C,J18*%
X110501030Y-33784380D02*
X111885740Y-33905527D01*
X110316260Y-35896313D02*
X111700970Y-36017460D01*
X110501030Y-33784380D02*
X109509816Y-33697660D01*
X110501030Y-33784380D02*
X110501030Y-33784380D01*
X111700970Y-36017460D02*
X111700970Y-36017460D01*
X111885740Y-33905527D02*
X111798585Y-34901722D01*
X110403415Y-34900118D02*
X110316260Y-35896313D01*
%TO.C,J17*%
X151160028Y-41342826D02*
X152142906Y-40359948D01*
X152659094Y-42841892D02*
X153641972Y-41859014D01*
X151160028Y-41342826D02*
X150456456Y-42046397D01*
X151160028Y-41342826D02*
X151160028Y-41342826D01*
X153641972Y-41859014D02*
X153641972Y-41859014D01*
X152142906Y-40359948D02*
X152850013Y-41067054D01*
X151951987Y-42134786D02*
X152659094Y-42841892D01*
%TO.C,J16*%
X181304030Y-34997159D02*
X182646667Y-35356918D01*
X180755333Y-37044922D02*
X182097970Y-37404681D01*
X181304030Y-34997159D02*
X180342934Y-34739634D01*
X181304030Y-34997159D02*
X181304030Y-34997159D01*
X182097970Y-37404681D02*
X182097970Y-37404681D01*
X182646667Y-35356918D02*
X182387848Y-36322844D01*
X181014152Y-36078996D02*
X180755333Y-37044922D01*
%TO.C,J15*%
X200871498Y-53197738D02*
X201231257Y-54540375D01*
X198823735Y-53746435D02*
X199183494Y-55089072D01*
X200871498Y-53197738D02*
X200613973Y-52236642D01*
X200871498Y-53197738D02*
X200871498Y-53197738D01*
X199183494Y-55089072D02*
X199183494Y-55089072D01*
X201231257Y-54540375D02*
X200265331Y-54799194D01*
X199789661Y-53487616D02*
X198823735Y-53746435D01*
%TO.C,J14*%
X193493756Y-83342826D02*
X194476634Y-82359948D01*
X194992822Y-84841892D02*
X195975700Y-83859014D01*
X193493756Y-83342826D02*
X192790184Y-84046397D01*
X193493756Y-83342826D02*
X193493756Y-83342826D01*
X195975700Y-83859014D02*
X195975700Y-83859014D01*
X194476634Y-82359948D02*
X195183741Y-83067054D01*
X194285715Y-84134786D02*
X194992822Y-84841892D01*
%TO.C,J13*%
X190064756Y-86748071D02*
X191047634Y-85765193D01*
X191563822Y-88247137D02*
X192546700Y-87264259D01*
X190064756Y-86748071D02*
X189361184Y-87451642D01*
X190064756Y-86748071D02*
X190064756Y-86748071D01*
X192546700Y-87264259D02*
X192546700Y-87264259D01*
X191047634Y-85765193D02*
X191754741Y-86472299D01*
X190856715Y-87540031D02*
X191563822Y-88247137D01*
%TO.C,J12*%
X202009506Y-57813928D02*
X202369265Y-59156565D01*
X199961743Y-58362625D02*
X200321502Y-59705262D01*
X202009506Y-57813928D02*
X201751981Y-56852832D01*
X202009506Y-57813928D02*
X202009506Y-57813928D01*
X200321502Y-59705262D02*
X200321502Y-59705262D01*
X202369265Y-59156565D02*
X201403339Y-59415384D01*
X200927669Y-58103806D02*
X199961743Y-58362625D01*
%TO.C,J11*%
X176804030Y-33797159D02*
X178146667Y-34156918D01*
X176255333Y-35844922D02*
X177597970Y-36204681D01*
X176804030Y-33797159D02*
X175842934Y-33539634D01*
X176804030Y-33797159D02*
X176804030Y-33797159D01*
X177597970Y-36204681D02*
X177597970Y-36204681D01*
X178146667Y-34156918D02*
X177887848Y-35122844D01*
X176514152Y-34878996D02*
X176255333Y-35844922D01*
%TO.C,J10*%
X147860028Y-44642826D02*
X148842906Y-43659948D01*
X149359094Y-46141892D02*
X150341972Y-45159014D01*
X147860028Y-44642826D02*
X147156456Y-45346397D01*
X147860028Y-44642826D02*
X147860028Y-44642826D01*
X150341972Y-45159014D02*
X150341972Y-45159014D01*
X148842906Y-43659948D02*
X149550013Y-44367054D01*
X148651987Y-45434786D02*
X149359094Y-46141892D01*
%TO.C,J1*%
D15*
X138833333Y-85626190D02*
X138833333Y-85983333D01*
X138809523Y-86054761D01*
X138761904Y-86102380D01*
X138690476Y-86126190D01*
X138642857Y-86126190D01*
X139333333Y-86126190D02*
X139047619Y-86126190D01*
X139190476Y-86126190D02*
X139190476Y-85626190D01*
X139142857Y-85697619D01*
X139095238Y-85745238D01*
X139047619Y-85769047D01*
D13*
X148228571Y-84361904D02*
X147771428Y-84361904D01*
X148000000Y-84361904D02*
X148000000Y-83561904D01*
X147923809Y-83676190D01*
X147847619Y-83752380D01*
X147771428Y-83790476D01*
X129847619Y-88261904D02*
X129390476Y-88261904D01*
X129619047Y-88261904D02*
X129619047Y-87461904D01*
X129542857Y-87576190D01*
X129466666Y-87652380D01*
X129390476Y-87690476D01*
X130342857Y-87461904D02*
X130419047Y-87461904D01*
X130495238Y-87500000D01*
X130533333Y-87538095D01*
X130571428Y-87614285D01*
X130609523Y-87766666D01*
X130609523Y-87957142D01*
X130571428Y-88109523D01*
X130533333Y-88185714D01*
X130495238Y-88223809D01*
X130419047Y-88261904D01*
X130342857Y-88261904D01*
X130266666Y-88223809D01*
X130228571Y-88185714D01*
X130190476Y-88109523D01*
X130152380Y-87957142D01*
X130152380Y-87766666D01*
X130190476Y-87614285D01*
X130228571Y-87538095D01*
X130266666Y-87500000D01*
X130342857Y-87461904D01*
%TO.C,J2*%
D15*
X138833333Y-107626190D02*
X138833333Y-107983333D01*
X138809523Y-108054761D01*
X138761904Y-108102380D01*
X138690476Y-108126190D01*
X138642857Y-108126190D01*
X139047619Y-107673809D02*
X139071428Y-107650000D01*
X139119047Y-107626190D01*
X139238095Y-107626190D01*
X139285714Y-107650000D01*
X139309523Y-107673809D01*
X139333333Y-107721428D01*
X139333333Y-107769047D01*
X139309523Y-107840476D01*
X139023809Y-108126190D01*
X139333333Y-108126190D01*
D13*
X148228571Y-106361904D02*
X147771428Y-106361904D01*
X148000000Y-106361904D02*
X148000000Y-105561904D01*
X147923809Y-105676190D01*
X147847619Y-105752380D01*
X147771428Y-105790476D01*
X129847619Y-110261904D02*
X129390476Y-110261904D01*
X129619047Y-110261904D02*
X129619047Y-109461904D01*
X129542857Y-109576190D01*
X129466666Y-109652380D01*
X129390476Y-109690476D01*
X130342857Y-109461904D02*
X130419047Y-109461904D01*
X130495238Y-109500000D01*
X130533333Y-109538095D01*
X130571428Y-109614285D01*
X130609523Y-109766666D01*
X130609523Y-109957142D01*
X130571428Y-110109523D01*
X130533333Y-110185714D01*
X130495238Y-110223809D01*
X130419047Y-110261904D01*
X130342857Y-110261904D01*
X130266666Y-110223809D01*
X130228571Y-110185714D01*
X130190476Y-110109523D01*
X130152380Y-109957142D01*
X130152380Y-109766666D01*
X130190476Y-109614285D01*
X130228571Y-109538095D01*
X130266666Y-109500000D01*
X130342857Y-109461904D01*
%TO.C,J9*%
D10*
X138366666Y-120052380D02*
X138366666Y-120766666D01*
X138319047Y-120909523D01*
X138223809Y-121004761D01*
X138080952Y-121052380D01*
X137985714Y-121052380D01*
X138890476Y-121052380D02*
X139080952Y-121052380D01*
X139176190Y-121004761D01*
X139223809Y-120957142D01*
X139319047Y-120814285D01*
X139366666Y-120623809D01*
X139366666Y-120242857D01*
X139319047Y-120147619D01*
X139271428Y-120100000D01*
X139176190Y-120052380D01*
X138985714Y-120052380D01*
X138890476Y-120100000D01*
X138842857Y-120147619D01*
X138795238Y-120242857D01*
X138795238Y-120480952D01*
X138842857Y-120576190D01*
X138890476Y-120623809D01*
X138985714Y-120671428D01*
X139176190Y-120671428D01*
X139271428Y-120623809D01*
X139319047Y-120576190D01*
X139366666Y-120480952D01*
%TO.C,J8*%
X143666666Y-78852380D02*
X143666666Y-79566666D01*
X143619047Y-79709523D01*
X143523809Y-79804761D01*
X143380952Y-79852380D01*
X143285714Y-79852380D01*
X144285714Y-79280952D02*
X144190476Y-79233333D01*
X144142857Y-79185714D01*
X144095238Y-79090476D01*
X144095238Y-79042857D01*
X144142857Y-78947619D01*
X144190476Y-78900000D01*
X144285714Y-78852380D01*
X144476190Y-78852380D01*
X144571428Y-78900000D01*
X144619047Y-78947619D01*
X144666666Y-79042857D01*
X144666666Y-79090476D01*
X144619047Y-79185714D01*
X144571428Y-79233333D01*
X144476190Y-79280952D01*
X144285714Y-79280952D01*
X144190476Y-79328571D01*
X144142857Y-79376190D01*
X144095238Y-79471428D01*
X144095238Y-79661904D01*
X144142857Y-79757142D01*
X144190476Y-79804761D01*
X144285714Y-79852380D01*
X144476190Y-79852380D01*
X144571428Y-79804761D01*
X144619047Y-79757142D01*
X144666666Y-79661904D01*
X144666666Y-79471428D01*
X144619047Y-79376190D01*
X144571428Y-79328571D01*
X144476190Y-79280952D01*
%TO.C,J6*%
X124753380Y-103284253D02*
X125467666Y-103284253D01*
X125610523Y-103331872D01*
X125705761Y-103427110D01*
X125753380Y-103569967D01*
X125753380Y-103665205D01*
X124753380Y-102379491D02*
X124753380Y-102569967D01*
X124801000Y-102665205D01*
X124848619Y-102712824D01*
X124991476Y-102808062D01*
X125181952Y-102855681D01*
X125562904Y-102855681D01*
X125658142Y-102808062D01*
X125705761Y-102760443D01*
X125753380Y-102665205D01*
X125753380Y-102474729D01*
X125705761Y-102379491D01*
X125658142Y-102331872D01*
X125562904Y-102284253D01*
X125324809Y-102284253D01*
X125229571Y-102331872D01*
X125181952Y-102379491D01*
X125134333Y-102474729D01*
X125134333Y-102665205D01*
X125181952Y-102760443D01*
X125229571Y-102808062D01*
X125324809Y-102855681D01*
%TO.C,J5*%
X124753380Y-92284253D02*
X125467666Y-92284253D01*
X125610523Y-92331872D01*
X125705761Y-92427110D01*
X125753380Y-92569967D01*
X125753380Y-92665205D01*
X124753380Y-91331872D02*
X124753380Y-91808062D01*
X125229571Y-91855681D01*
X125181952Y-91808062D01*
X125134333Y-91712824D01*
X125134333Y-91474729D01*
X125181952Y-91379491D01*
X125229571Y-91331872D01*
X125324809Y-91284253D01*
X125562904Y-91284253D01*
X125658142Y-91331872D01*
X125705761Y-91379491D01*
X125753380Y-91474729D01*
X125753380Y-91712824D01*
X125705761Y-91808062D01*
X125658142Y-91855681D01*
%TO.C,J3*%
X152353380Y-91384253D02*
X153067666Y-91384253D01*
X153210523Y-91431872D01*
X153305761Y-91527110D01*
X153353380Y-91669967D01*
X153353380Y-91765205D01*
X152353380Y-91003300D02*
X152353380Y-90384253D01*
X152734333Y-90717586D01*
X152734333Y-90574729D01*
X152781952Y-90479491D01*
X152829571Y-90431872D01*
X152924809Y-90384253D01*
X153162904Y-90384253D01*
X153258142Y-90431872D01*
X153305761Y-90479491D01*
X153353380Y-90574729D01*
X153353380Y-90860443D01*
X153305761Y-90955681D01*
X153258142Y-91003300D01*
%TO.C,J4*%
X152353380Y-102384253D02*
X153067666Y-102384253D01*
X153210523Y-102431872D01*
X153305761Y-102527110D01*
X153353380Y-102669967D01*
X153353380Y-102765205D01*
X152686714Y-101479491D02*
X153353380Y-101479491D01*
X152305761Y-101717586D02*
X153020047Y-101955681D01*
X153020047Y-101336634D01*
%TO.C,TX1*%
X162561904Y-92052380D02*
X163133333Y-92052380D01*
X162847619Y-93052380D02*
X162847619Y-92052380D01*
X163371428Y-92052380D02*
X164038095Y-93052380D01*
X164038095Y-92052380D02*
X163371428Y-93052380D01*
X164942857Y-93052380D02*
X164371428Y-93052380D01*
X164657142Y-93052380D02*
X164657142Y-92052380D01*
X164561904Y-92195238D01*
X164466666Y-92290476D01*
X164371428Y-92338095D01*
%TO.C,SPI2_MOSI1*%
D15*
X129350000Y-113667142D02*
X129444285Y-113698571D01*
X129601428Y-113698571D01*
X129664285Y-113667142D01*
X129695714Y-113635714D01*
X129727142Y-113572857D01*
X129727142Y-113510000D01*
X129695714Y-113447142D01*
X129664285Y-113415714D01*
X129601428Y-113384285D01*
X129475714Y-113352857D01*
X129412857Y-113321428D01*
X129381428Y-113290000D01*
X129350000Y-113227142D01*
X129350000Y-113164285D01*
X129381428Y-113101428D01*
X129412857Y-113070000D01*
X129475714Y-113038571D01*
X129632857Y-113038571D01*
X129727142Y-113070000D01*
X130010000Y-113698571D02*
X130010000Y-113038571D01*
X130261428Y-113038571D01*
X130324285Y-113070000D01*
X130355714Y-113101428D01*
X130387142Y-113164285D01*
X130387142Y-113258571D01*
X130355714Y-113321428D01*
X130324285Y-113352857D01*
X130261428Y-113384285D01*
X130010000Y-113384285D01*
X130670000Y-113698571D02*
X130670000Y-113038571D01*
X130952857Y-113101428D02*
X130984285Y-113070000D01*
X131047142Y-113038571D01*
X131204285Y-113038571D01*
X131267142Y-113070000D01*
X131298571Y-113101428D01*
X131330000Y-113164285D01*
X131330000Y-113227142D01*
X131298571Y-113321428D01*
X130921428Y-113698571D01*
X131330000Y-113698571D01*
X131455714Y-113761428D02*
X131958571Y-113761428D01*
X132115714Y-113698571D02*
X132115714Y-113038571D01*
X132335714Y-113510000D01*
X132555714Y-113038571D01*
X132555714Y-113698571D01*
X132995714Y-113038571D02*
X133121428Y-113038571D01*
X133184285Y-113070000D01*
X133247142Y-113132857D01*
X133278571Y-113258571D01*
X133278571Y-113478571D01*
X133247142Y-113604285D01*
X133184285Y-113667142D01*
X133121428Y-113698571D01*
X132995714Y-113698571D01*
X132932857Y-113667142D01*
X132870000Y-113604285D01*
X132838571Y-113478571D01*
X132838571Y-113258571D01*
X132870000Y-113132857D01*
X132932857Y-113070000D01*
X132995714Y-113038571D01*
X133530000Y-113667142D02*
X133624285Y-113698571D01*
X133781428Y-113698571D01*
X133844285Y-113667142D01*
X133875714Y-113635714D01*
X133907142Y-113572857D01*
X133907142Y-113510000D01*
X133875714Y-113447142D01*
X133844285Y-113415714D01*
X133781428Y-113384285D01*
X133655714Y-113352857D01*
X133592857Y-113321428D01*
X133561428Y-113290000D01*
X133530000Y-113227142D01*
X133530000Y-113164285D01*
X133561428Y-113101428D01*
X133592857Y-113070000D01*
X133655714Y-113038571D01*
X133812857Y-113038571D01*
X133907142Y-113070000D01*
X134190000Y-113698571D02*
X134190000Y-113038571D01*
X134850000Y-113698571D02*
X134472857Y-113698571D01*
X134661428Y-113698571D02*
X134661428Y-113038571D01*
X134598571Y-113132857D01*
X134535714Y-113195714D01*
X134472857Y-113227142D01*
%TO.C,SPI2_MISO1*%
X144542857Y-120000000D02*
X144571428Y-119914285D01*
X144571428Y-119771428D01*
X144542857Y-119714285D01*
X144514285Y-119685714D01*
X144457142Y-119657142D01*
X144400000Y-119657142D01*
X144342857Y-119685714D01*
X144314285Y-119714285D01*
X144285714Y-119771428D01*
X144257142Y-119885714D01*
X144228571Y-119942857D01*
X144200000Y-119971428D01*
X144142857Y-120000000D01*
X144085714Y-120000000D01*
X144028571Y-119971428D01*
X144000000Y-119942857D01*
X143971428Y-119885714D01*
X143971428Y-119742857D01*
X144000000Y-119657142D01*
X144571428Y-119400000D02*
X143971428Y-119400000D01*
X143971428Y-119171428D01*
X144000000Y-119114285D01*
X144028571Y-119085714D01*
X144085714Y-119057142D01*
X144171428Y-119057142D01*
X144228571Y-119085714D01*
X144257142Y-119114285D01*
X144285714Y-119171428D01*
X144285714Y-119400000D01*
X144571428Y-118800000D02*
X143971428Y-118800000D01*
X144028571Y-118542857D02*
X144000000Y-118514285D01*
X143971428Y-118457142D01*
X143971428Y-118314285D01*
X144000000Y-118257142D01*
X144028571Y-118228571D01*
X144085714Y-118200000D01*
X144142857Y-118200000D01*
X144228571Y-118228571D01*
X144571428Y-118571428D01*
X144571428Y-118200000D01*
X144628571Y-118085714D02*
X144628571Y-117628571D01*
X144571428Y-117485714D02*
X143971428Y-117485714D01*
X144400000Y-117285714D01*
X143971428Y-117085714D01*
X144571428Y-117085714D01*
X144571428Y-116800000D02*
X143971428Y-116800000D01*
X144542857Y-116542857D02*
X144571428Y-116457142D01*
X144571428Y-116314285D01*
X144542857Y-116257142D01*
X144514285Y-116228571D01*
X144457142Y-116200000D01*
X144400000Y-116200000D01*
X144342857Y-116228571D01*
X144314285Y-116257142D01*
X144285714Y-116314285D01*
X144257142Y-116428571D01*
X144228571Y-116485714D01*
X144200000Y-116514285D01*
X144142857Y-116542857D01*
X144085714Y-116542857D01*
X144028571Y-116514285D01*
X144000000Y-116485714D01*
X143971428Y-116428571D01*
X143971428Y-116285714D01*
X144000000Y-116200000D01*
X143971428Y-115828571D02*
X143971428Y-115714285D01*
X144000000Y-115657142D01*
X144057142Y-115600000D01*
X144171428Y-115571428D01*
X144371428Y-115571428D01*
X144485714Y-115600000D01*
X144542857Y-115657142D01*
X144571428Y-115714285D01*
X144571428Y-115828571D01*
X144542857Y-115885714D01*
X144485714Y-115942857D01*
X144371428Y-115971428D01*
X144171428Y-115971428D01*
X144057142Y-115942857D01*
X144000000Y-115885714D01*
X143971428Y-115828571D01*
X144571428Y-115000000D02*
X144571428Y-115342857D01*
X144571428Y-115171428D02*
X143971428Y-115171428D01*
X144057142Y-115228571D01*
X144114285Y-115285714D01*
X144142857Y-115342857D01*
%TO.C,SPI2_CK1*%
X144542857Y-114614285D02*
X144571428Y-114528571D01*
X144571428Y-114385714D01*
X144542857Y-114328571D01*
X144514285Y-114300000D01*
X144457142Y-114271428D01*
X144400000Y-114271428D01*
X144342857Y-114300000D01*
X144314285Y-114328571D01*
X144285714Y-114385714D01*
X144257142Y-114500000D01*
X144228571Y-114557142D01*
X144200000Y-114585714D01*
X144142857Y-114614285D01*
X144085714Y-114614285D01*
X144028571Y-114585714D01*
X144000000Y-114557142D01*
X143971428Y-114500000D01*
X143971428Y-114357142D01*
X144000000Y-114271428D01*
X144571428Y-114014285D02*
X143971428Y-114014285D01*
X143971428Y-113785714D01*
X144000000Y-113728571D01*
X144028571Y-113700000D01*
X144085714Y-113671428D01*
X144171428Y-113671428D01*
X144228571Y-113700000D01*
X144257142Y-113728571D01*
X144285714Y-113785714D01*
X144285714Y-114014285D01*
X144571428Y-113414285D02*
X143971428Y-113414285D01*
X144028571Y-113157142D02*
X144000000Y-113128571D01*
X143971428Y-113071428D01*
X143971428Y-112928571D01*
X144000000Y-112871428D01*
X144028571Y-112842857D01*
X144085714Y-112814285D01*
X144142857Y-112814285D01*
X144228571Y-112842857D01*
X144571428Y-113185714D01*
X144571428Y-112814285D01*
X144628571Y-112700000D02*
X144628571Y-112242857D01*
X144514285Y-111757142D02*
X144542857Y-111785714D01*
X144571428Y-111871428D01*
X144571428Y-111928571D01*
X144542857Y-112014285D01*
X144485714Y-112071428D01*
X144428571Y-112100000D01*
X144314285Y-112128571D01*
X144228571Y-112128571D01*
X144114285Y-112100000D01*
X144057142Y-112071428D01*
X144000000Y-112014285D01*
X143971428Y-111928571D01*
X143971428Y-111871428D01*
X144000000Y-111785714D01*
X144028571Y-111757142D01*
X144571428Y-111500000D02*
X143971428Y-111500000D01*
X144571428Y-111157142D02*
X144228571Y-111414285D01*
X143971428Y-111157142D02*
X144314285Y-111500000D01*
X144571428Y-110585714D02*
X144571428Y-110928571D01*
X144571428Y-110757142D02*
X143971428Y-110757142D01*
X144057142Y-110814285D01*
X144114285Y-110871428D01*
X144142857Y-110928571D01*
%TO.C,SDL1*%
D10*
X157833333Y-102104761D02*
X157976190Y-102152380D01*
X158214285Y-102152380D01*
X158309523Y-102104761D01*
X158357142Y-102057142D01*
X158404761Y-101961904D01*
X158404761Y-101866666D01*
X158357142Y-101771428D01*
X158309523Y-101723809D01*
X158214285Y-101676190D01*
X158023809Y-101628571D01*
X157928571Y-101580952D01*
X157880952Y-101533333D01*
X157833333Y-101438095D01*
X157833333Y-101342857D01*
X157880952Y-101247619D01*
X157928571Y-101200000D01*
X158023809Y-101152380D01*
X158261904Y-101152380D01*
X158404761Y-101200000D01*
X158833333Y-102152380D02*
X158833333Y-101152380D01*
X159071428Y-101152380D01*
X159214285Y-101200000D01*
X159309523Y-101295238D01*
X159357142Y-101390476D01*
X159404761Y-101580952D01*
X159404761Y-101723809D01*
X159357142Y-101914285D01*
X159309523Y-102009523D01*
X159214285Y-102104761D01*
X159071428Y-102152380D01*
X158833333Y-102152380D01*
X160309523Y-102152380D02*
X159833333Y-102152380D01*
X159833333Y-101152380D01*
X161166666Y-102152380D02*
X160595238Y-102152380D01*
X160880952Y-102152380D02*
X160880952Y-101152380D01*
X160785714Y-101295238D01*
X160690476Y-101390476D01*
X160595238Y-101438095D01*
%TO.C,SDA1*%
X157809523Y-93004761D02*
X157952380Y-93052380D01*
X158190476Y-93052380D01*
X158285714Y-93004761D01*
X158333333Y-92957142D01*
X158380952Y-92861904D01*
X158380952Y-92766666D01*
X158333333Y-92671428D01*
X158285714Y-92623809D01*
X158190476Y-92576190D01*
X158000000Y-92528571D01*
X157904761Y-92480952D01*
X157857142Y-92433333D01*
X157809523Y-92338095D01*
X157809523Y-92242857D01*
X157857142Y-92147619D01*
X157904761Y-92100000D01*
X158000000Y-92052380D01*
X158238095Y-92052380D01*
X158380952Y-92100000D01*
X158809523Y-93052380D02*
X158809523Y-92052380D01*
X159047619Y-92052380D01*
X159190476Y-92100000D01*
X159285714Y-92195238D01*
X159333333Y-92290476D01*
X159380952Y-92480952D01*
X159380952Y-92623809D01*
X159333333Y-92814285D01*
X159285714Y-92909523D01*
X159190476Y-93004761D01*
X159047619Y-93052380D01*
X158809523Y-93052380D01*
X159761904Y-92766666D02*
X160238095Y-92766666D01*
X159666666Y-93052380D02*
X160000000Y-92052380D01*
X160333333Y-93052380D01*
X161190476Y-93052380D02*
X160619047Y-93052380D01*
X160904761Y-93052380D02*
X160904761Y-92052380D01*
X160809523Y-92195238D01*
X160714285Y-92290476D01*
X160619047Y-92338095D01*
%TO.C,RX1*%
X162957142Y-102152380D02*
X162623809Y-101676190D01*
X162385714Y-102152380D02*
X162385714Y-101152380D01*
X162766666Y-101152380D01*
X162861904Y-101200000D01*
X162909523Y-101247619D01*
X162957142Y-101342857D01*
X162957142Y-101485714D01*
X162909523Y-101580952D01*
X162861904Y-101628571D01*
X162766666Y-101676190D01*
X162385714Y-101676190D01*
X163290476Y-101152380D02*
X163957142Y-102152380D01*
X163957142Y-101152380D02*
X163290476Y-102152380D01*
X164861904Y-102152380D02*
X164290476Y-102152380D01*
X164576190Y-102152380D02*
X164576190Y-101152380D01*
X164480952Y-101295238D01*
X164385714Y-101390476D01*
X164290476Y-101438095D01*
%TO.C,PC3*%
D15*
X111057142Y-101371428D02*
X111057142Y-100771428D01*
X111285714Y-100771428D01*
X111342857Y-100800000D01*
X111371428Y-100828571D01*
X111400000Y-100885714D01*
X111400000Y-100971428D01*
X111371428Y-101028571D01*
X111342857Y-101057142D01*
X111285714Y-101085714D01*
X111057142Y-101085714D01*
X112000000Y-101314285D02*
X111971428Y-101342857D01*
X111885714Y-101371428D01*
X111828571Y-101371428D01*
X111742857Y-101342857D01*
X111685714Y-101285714D01*
X111657142Y-101228571D01*
X111628571Y-101114285D01*
X111628571Y-101028571D01*
X111657142Y-100914285D01*
X111685714Y-100857142D01*
X111742857Y-100800000D01*
X111828571Y-100771428D01*
X111885714Y-100771428D01*
X111971428Y-100800000D01*
X112000000Y-100828571D01*
X112200000Y-100771428D02*
X112571428Y-100771428D01*
X112371428Y-101000000D01*
X112457142Y-101000000D01*
X112514285Y-101028571D01*
X112542857Y-101057142D01*
X112571428Y-101114285D01*
X112571428Y-101257142D01*
X112542857Y-101314285D01*
X112514285Y-101342857D01*
X112457142Y-101371428D01*
X112285714Y-101371428D01*
X112228571Y-101342857D01*
X112200000Y-101314285D01*
%TO.C,PA2*%
X108700000Y-93171428D02*
X108700000Y-92571428D01*
X108928571Y-92571428D01*
X108985714Y-92600000D01*
X109014285Y-92628571D01*
X109042857Y-92685714D01*
X109042857Y-92771428D01*
X109014285Y-92828571D01*
X108985714Y-92857142D01*
X108928571Y-92885714D01*
X108700000Y-92885714D01*
X109271428Y-93000000D02*
X109557142Y-93000000D01*
X109214285Y-93171428D02*
X109414285Y-92571428D01*
X109614285Y-93171428D01*
X109785714Y-92628571D02*
X109814285Y-92600000D01*
X109871428Y-92571428D01*
X110014285Y-92571428D01*
X110071428Y-92600000D01*
X110100000Y-92628571D01*
X110128571Y-92685714D01*
X110128571Y-92742857D01*
X110100000Y-92828571D01*
X109757142Y-93171428D01*
X110128571Y-93171428D01*
%TO.C,I2S3_WS1*%
X143371428Y-68300000D02*
X142771428Y-68300000D01*
X142828571Y-68042857D02*
X142800000Y-68014285D01*
X142771428Y-67957142D01*
X142771428Y-67814285D01*
X142800000Y-67757142D01*
X142828571Y-67728571D01*
X142885714Y-67700000D01*
X142942857Y-67700000D01*
X143028571Y-67728571D01*
X143371428Y-68071428D01*
X143371428Y-67700000D01*
X143342857Y-67471428D02*
X143371428Y-67385714D01*
X143371428Y-67242857D01*
X143342857Y-67185714D01*
X143314285Y-67157142D01*
X143257142Y-67128571D01*
X143200000Y-67128571D01*
X143142857Y-67157142D01*
X143114285Y-67185714D01*
X143085714Y-67242857D01*
X143057142Y-67357142D01*
X143028571Y-67414285D01*
X143000000Y-67442857D01*
X142942857Y-67471428D01*
X142885714Y-67471428D01*
X142828571Y-67442857D01*
X142800000Y-67414285D01*
X142771428Y-67357142D01*
X142771428Y-67214285D01*
X142800000Y-67128571D01*
X142771428Y-66928571D02*
X142771428Y-66557142D01*
X143000000Y-66757142D01*
X143000000Y-66671428D01*
X143028571Y-66614285D01*
X143057142Y-66585714D01*
X143114285Y-66557142D01*
X143257142Y-66557142D01*
X143314285Y-66585714D01*
X143342857Y-66614285D01*
X143371428Y-66671428D01*
X143371428Y-66842857D01*
X143342857Y-66900000D01*
X143314285Y-66928571D01*
X143428571Y-66442857D02*
X143428571Y-65985714D01*
X142771428Y-65900000D02*
X143371428Y-65757142D01*
X142942857Y-65642857D01*
X143371428Y-65528571D01*
X142771428Y-65385714D01*
X143342857Y-65185714D02*
X143371428Y-65100000D01*
X143371428Y-64957142D01*
X143342857Y-64900000D01*
X143314285Y-64871428D01*
X143257142Y-64842857D01*
X143200000Y-64842857D01*
X143142857Y-64871428D01*
X143114285Y-64900000D01*
X143085714Y-64957142D01*
X143057142Y-65071428D01*
X143028571Y-65128571D01*
X143000000Y-65157142D01*
X142942857Y-65185714D01*
X142885714Y-65185714D01*
X142828571Y-65157142D01*
X142800000Y-65128571D01*
X142771428Y-65071428D01*
X142771428Y-64928571D01*
X142800000Y-64842857D01*
X143371428Y-64271428D02*
X143371428Y-64614285D01*
X143371428Y-64442857D02*
X142771428Y-64442857D01*
X142857142Y-64500000D01*
X142914285Y-64557142D01*
X142942857Y-64614285D01*
%TO.C,I2S3_SD1*%
X134971428Y-61357142D02*
X134371428Y-61357142D01*
X134428571Y-61100000D02*
X134400000Y-61071428D01*
X134371428Y-61014285D01*
X134371428Y-60871428D01*
X134400000Y-60814285D01*
X134428571Y-60785714D01*
X134485714Y-60757142D01*
X134542857Y-60757142D01*
X134628571Y-60785714D01*
X134971428Y-61128571D01*
X134971428Y-60757142D01*
X134942857Y-60528571D02*
X134971428Y-60442857D01*
X134971428Y-60300000D01*
X134942857Y-60242857D01*
X134914285Y-60214285D01*
X134857142Y-60185714D01*
X134800000Y-60185714D01*
X134742857Y-60214285D01*
X134714285Y-60242857D01*
X134685714Y-60300000D01*
X134657142Y-60414285D01*
X134628571Y-60471428D01*
X134600000Y-60500000D01*
X134542857Y-60528571D01*
X134485714Y-60528571D01*
X134428571Y-60500000D01*
X134400000Y-60471428D01*
X134371428Y-60414285D01*
X134371428Y-60271428D01*
X134400000Y-60185714D01*
X134371428Y-59985714D02*
X134371428Y-59614285D01*
X134600000Y-59814285D01*
X134600000Y-59728571D01*
X134628571Y-59671428D01*
X134657142Y-59642857D01*
X134714285Y-59614285D01*
X134857142Y-59614285D01*
X134914285Y-59642857D01*
X134942857Y-59671428D01*
X134971428Y-59728571D01*
X134971428Y-59900000D01*
X134942857Y-59957142D01*
X134914285Y-59985714D01*
X135028571Y-59500000D02*
X135028571Y-59042857D01*
X134942857Y-58928571D02*
X134971428Y-58842857D01*
X134971428Y-58700000D01*
X134942857Y-58642857D01*
X134914285Y-58614285D01*
X134857142Y-58585714D01*
X134800000Y-58585714D01*
X134742857Y-58614285D01*
X134714285Y-58642857D01*
X134685714Y-58700000D01*
X134657142Y-58814285D01*
X134628571Y-58871428D01*
X134600000Y-58900000D01*
X134542857Y-58928571D01*
X134485714Y-58928571D01*
X134428571Y-58900000D01*
X134400000Y-58871428D01*
X134371428Y-58814285D01*
X134371428Y-58671428D01*
X134400000Y-58585714D01*
X134971428Y-58328571D02*
X134371428Y-58328571D01*
X134371428Y-58185714D01*
X134400000Y-58100000D01*
X134457142Y-58042857D01*
X134514285Y-58014285D01*
X134628571Y-57985714D01*
X134714285Y-57985714D01*
X134828571Y-58014285D01*
X134885714Y-58042857D01*
X134942857Y-58100000D01*
X134971428Y-58185714D01*
X134971428Y-58328571D01*
X134971428Y-57414285D02*
X134971428Y-57757142D01*
X134971428Y-57585714D02*
X134371428Y-57585714D01*
X134457142Y-57642857D01*
X134514285Y-57700000D01*
X134542857Y-57757142D01*
%TO.C,I2S3_CK1*%
X143371428Y-63771428D02*
X142771428Y-63771428D01*
X142828571Y-63514285D02*
X142800000Y-63485714D01*
X142771428Y-63428571D01*
X142771428Y-63285714D01*
X142800000Y-63228571D01*
X142828571Y-63200000D01*
X142885714Y-63171428D01*
X142942857Y-63171428D01*
X143028571Y-63200000D01*
X143371428Y-63542857D01*
X143371428Y-63171428D01*
X143342857Y-62942857D02*
X143371428Y-62857142D01*
X143371428Y-62714285D01*
X143342857Y-62657142D01*
X143314285Y-62628571D01*
X143257142Y-62600000D01*
X143200000Y-62600000D01*
X143142857Y-62628571D01*
X143114285Y-62657142D01*
X143085714Y-62714285D01*
X143057142Y-62828571D01*
X143028571Y-62885714D01*
X143000000Y-62914285D01*
X142942857Y-62942857D01*
X142885714Y-62942857D01*
X142828571Y-62914285D01*
X142800000Y-62885714D01*
X142771428Y-62828571D01*
X142771428Y-62685714D01*
X142800000Y-62600000D01*
X142771428Y-62400000D02*
X142771428Y-62028571D01*
X143000000Y-62228571D01*
X143000000Y-62142857D01*
X143028571Y-62085714D01*
X143057142Y-62057142D01*
X143114285Y-62028571D01*
X143257142Y-62028571D01*
X143314285Y-62057142D01*
X143342857Y-62085714D01*
X143371428Y-62142857D01*
X143371428Y-62314285D01*
X143342857Y-62371428D01*
X143314285Y-62400000D01*
X143428571Y-61914285D02*
X143428571Y-61457142D01*
X143314285Y-60971428D02*
X143342857Y-61000000D01*
X143371428Y-61085714D01*
X143371428Y-61142857D01*
X143342857Y-61228571D01*
X143285714Y-61285714D01*
X143228571Y-61314285D01*
X143114285Y-61342857D01*
X143028571Y-61342857D01*
X142914285Y-61314285D01*
X142857142Y-61285714D01*
X142800000Y-61228571D01*
X142771428Y-61142857D01*
X142771428Y-61085714D01*
X142800000Y-61000000D01*
X142828571Y-60971428D01*
X143371428Y-60714285D02*
X142771428Y-60714285D01*
X143371428Y-60371428D02*
X143028571Y-60628571D01*
X142771428Y-60371428D02*
X143114285Y-60714285D01*
X143371428Y-59800000D02*
X143371428Y-60142857D01*
X143371428Y-59971428D02*
X142771428Y-59971428D01*
X142857142Y-60028571D01*
X142914285Y-60085714D01*
X142942857Y-60142857D01*
%TO.C,I2S1_WS1*%
X136600000Y-122398571D02*
X136600000Y-121738571D01*
X136882857Y-121801428D02*
X136914285Y-121770000D01*
X136977142Y-121738571D01*
X137134285Y-121738571D01*
X137197142Y-121770000D01*
X137228571Y-121801428D01*
X137260000Y-121864285D01*
X137260000Y-121927142D01*
X137228571Y-122021428D01*
X136851428Y-122398571D01*
X137260000Y-122398571D01*
X137511428Y-122367142D02*
X137605714Y-122398571D01*
X137762857Y-122398571D01*
X137825714Y-122367142D01*
X137857142Y-122335714D01*
X137888571Y-122272857D01*
X137888571Y-122210000D01*
X137857142Y-122147142D01*
X137825714Y-122115714D01*
X137762857Y-122084285D01*
X137637142Y-122052857D01*
X137574285Y-122021428D01*
X137542857Y-121990000D01*
X137511428Y-121927142D01*
X137511428Y-121864285D01*
X137542857Y-121801428D01*
X137574285Y-121770000D01*
X137637142Y-121738571D01*
X137794285Y-121738571D01*
X137888571Y-121770000D01*
X138517142Y-122398571D02*
X138140000Y-122398571D01*
X138328571Y-122398571D02*
X138328571Y-121738571D01*
X138265714Y-121832857D01*
X138202857Y-121895714D01*
X138140000Y-121927142D01*
X138642857Y-122461428D02*
X139145714Y-122461428D01*
X139240000Y-121738571D02*
X139397142Y-122398571D01*
X139522857Y-121927142D01*
X139648571Y-122398571D01*
X139805714Y-121738571D01*
X140025714Y-122367142D02*
X140120000Y-122398571D01*
X140277142Y-122398571D01*
X140340000Y-122367142D01*
X140371428Y-122335714D01*
X140402857Y-122272857D01*
X140402857Y-122210000D01*
X140371428Y-122147142D01*
X140340000Y-122115714D01*
X140277142Y-122084285D01*
X140151428Y-122052857D01*
X140088571Y-122021428D01*
X140057142Y-121990000D01*
X140025714Y-121927142D01*
X140025714Y-121864285D01*
X140057142Y-121801428D01*
X140088571Y-121770000D01*
X140151428Y-121738571D01*
X140308571Y-121738571D01*
X140402857Y-121770000D01*
X141031428Y-122398571D02*
X140654285Y-122398571D01*
X140842857Y-122398571D02*
X140842857Y-121738571D01*
X140780000Y-121832857D01*
X140717142Y-121895714D01*
X140654285Y-121927142D01*
%TO.C,I2S1_SD1*%
X135271428Y-126557142D02*
X134671428Y-126557142D01*
X134728571Y-126300000D02*
X134700000Y-126271428D01*
X134671428Y-126214285D01*
X134671428Y-126071428D01*
X134700000Y-126014285D01*
X134728571Y-125985714D01*
X134785714Y-125957142D01*
X134842857Y-125957142D01*
X134928571Y-125985714D01*
X135271428Y-126328571D01*
X135271428Y-125957142D01*
X135242857Y-125728571D02*
X135271428Y-125642857D01*
X135271428Y-125500000D01*
X135242857Y-125442857D01*
X135214285Y-125414285D01*
X135157142Y-125385714D01*
X135100000Y-125385714D01*
X135042857Y-125414285D01*
X135014285Y-125442857D01*
X134985714Y-125500000D01*
X134957142Y-125614285D01*
X134928571Y-125671428D01*
X134900000Y-125700000D01*
X134842857Y-125728571D01*
X134785714Y-125728571D01*
X134728571Y-125700000D01*
X134700000Y-125671428D01*
X134671428Y-125614285D01*
X134671428Y-125471428D01*
X134700000Y-125385714D01*
X135271428Y-124814285D02*
X135271428Y-125157142D01*
X135271428Y-124985714D02*
X134671428Y-124985714D01*
X134757142Y-125042857D01*
X134814285Y-125100000D01*
X134842857Y-125157142D01*
X135328571Y-124700000D02*
X135328571Y-124242857D01*
X135242857Y-124128571D02*
X135271428Y-124042857D01*
X135271428Y-123900000D01*
X135242857Y-123842857D01*
X135214285Y-123814285D01*
X135157142Y-123785714D01*
X135100000Y-123785714D01*
X135042857Y-123814285D01*
X135014285Y-123842857D01*
X134985714Y-123900000D01*
X134957142Y-124014285D01*
X134928571Y-124071428D01*
X134900000Y-124100000D01*
X134842857Y-124128571D01*
X134785714Y-124128571D01*
X134728571Y-124100000D01*
X134700000Y-124071428D01*
X134671428Y-124014285D01*
X134671428Y-123871428D01*
X134700000Y-123785714D01*
X135271428Y-123528571D02*
X134671428Y-123528571D01*
X134671428Y-123385714D01*
X134700000Y-123300000D01*
X134757142Y-123242857D01*
X134814285Y-123214285D01*
X134928571Y-123185714D01*
X135014285Y-123185714D01*
X135128571Y-123214285D01*
X135185714Y-123242857D01*
X135242857Y-123300000D01*
X135271428Y-123385714D01*
X135271428Y-123528571D01*
X135271428Y-122614285D02*
X135271428Y-122957142D01*
X135271428Y-122785714D02*
X134671428Y-122785714D01*
X134757142Y-122842857D01*
X134814285Y-122900000D01*
X134842857Y-122957142D01*
%TO.C,I2S1_CK1*%
X142871428Y-126471428D02*
X142271428Y-126471428D01*
X142328571Y-126214285D02*
X142300000Y-126185714D01*
X142271428Y-126128571D01*
X142271428Y-125985714D01*
X142300000Y-125928571D01*
X142328571Y-125900000D01*
X142385714Y-125871428D01*
X142442857Y-125871428D01*
X142528571Y-125900000D01*
X142871428Y-126242857D01*
X142871428Y-125871428D01*
X142842857Y-125642857D02*
X142871428Y-125557142D01*
X142871428Y-125414285D01*
X142842857Y-125357142D01*
X142814285Y-125328571D01*
X142757142Y-125300000D01*
X142700000Y-125300000D01*
X142642857Y-125328571D01*
X142614285Y-125357142D01*
X142585714Y-125414285D01*
X142557142Y-125528571D01*
X142528571Y-125585714D01*
X142500000Y-125614285D01*
X142442857Y-125642857D01*
X142385714Y-125642857D01*
X142328571Y-125614285D01*
X142300000Y-125585714D01*
X142271428Y-125528571D01*
X142271428Y-125385714D01*
X142300000Y-125300000D01*
X142871428Y-124728571D02*
X142871428Y-125071428D01*
X142871428Y-124900000D02*
X142271428Y-124900000D01*
X142357142Y-124957142D01*
X142414285Y-125014285D01*
X142442857Y-125071428D01*
X142928571Y-124614285D02*
X142928571Y-124157142D01*
X142814285Y-123671428D02*
X142842857Y-123700000D01*
X142871428Y-123785714D01*
X142871428Y-123842857D01*
X142842857Y-123928571D01*
X142785714Y-123985714D01*
X142728571Y-124014285D01*
X142614285Y-124042857D01*
X142528571Y-124042857D01*
X142414285Y-124014285D01*
X142357142Y-123985714D01*
X142300000Y-123928571D01*
X142271428Y-123842857D01*
X142271428Y-123785714D01*
X142300000Y-123700000D01*
X142328571Y-123671428D01*
X142871428Y-123414285D02*
X142271428Y-123414285D01*
X142871428Y-123071428D02*
X142528571Y-123328571D01*
X142271428Y-123071428D02*
X142614285Y-123414285D01*
X142871428Y-122500000D02*
X142871428Y-122842857D01*
X142871428Y-122671428D02*
X142271428Y-122671428D01*
X142357142Y-122728571D01*
X142414285Y-122785714D01*
X142442857Y-122842857D01*
%TO.C,GND4*%
X104157142Y-92600000D02*
X104100000Y-92571428D01*
X104014285Y-92571428D01*
X103928571Y-92600000D01*
X103871428Y-92657142D01*
X103842857Y-92714285D01*
X103814285Y-92828571D01*
X103814285Y-92914285D01*
X103842857Y-93028571D01*
X103871428Y-93085714D01*
X103928571Y-93142857D01*
X104014285Y-93171428D01*
X104071428Y-93171428D01*
X104157142Y-93142857D01*
X104185714Y-93114285D01*
X104185714Y-92914285D01*
X104071428Y-92914285D01*
X104442857Y-93171428D02*
X104442857Y-92571428D01*
X104785714Y-93171428D01*
X104785714Y-92571428D01*
X105071428Y-93171428D02*
X105071428Y-92571428D01*
X105214285Y-92571428D01*
X105300000Y-92600000D01*
X105357142Y-92657142D01*
X105385714Y-92714285D01*
X105414285Y-92828571D01*
X105414285Y-92914285D01*
X105385714Y-93028571D01*
X105357142Y-93085714D01*
X105300000Y-93142857D01*
X105214285Y-93171428D01*
X105071428Y-93171428D01*
X105928571Y-92771428D02*
X105928571Y-93171428D01*
X105785714Y-92542857D02*
X105642857Y-92971428D01*
X106014285Y-92971428D01*
%TO.C,GND3*%
X135857142Y-134500000D02*
X135800000Y-134471428D01*
X135714285Y-134471428D01*
X135628571Y-134500000D01*
X135571428Y-134557142D01*
X135542857Y-134614285D01*
X135514285Y-134728571D01*
X135514285Y-134814285D01*
X135542857Y-134928571D01*
X135571428Y-134985714D01*
X135628571Y-135042857D01*
X135714285Y-135071428D01*
X135771428Y-135071428D01*
X135857142Y-135042857D01*
X135885714Y-135014285D01*
X135885714Y-134814285D01*
X135771428Y-134814285D01*
X136142857Y-135071428D02*
X136142857Y-134471428D01*
X136485714Y-135071428D01*
X136485714Y-134471428D01*
X136771428Y-135071428D02*
X136771428Y-134471428D01*
X136914285Y-134471428D01*
X137000000Y-134500000D01*
X137057142Y-134557142D01*
X137085714Y-134614285D01*
X137114285Y-134728571D01*
X137114285Y-134814285D01*
X137085714Y-134928571D01*
X137057142Y-134985714D01*
X137000000Y-135042857D01*
X136914285Y-135071428D01*
X136771428Y-135071428D01*
X137314285Y-134471428D02*
X137685714Y-134471428D01*
X137485714Y-134700000D01*
X137571428Y-134700000D01*
X137628571Y-134728571D01*
X137657142Y-134757142D01*
X137685714Y-134814285D01*
X137685714Y-134957142D01*
X137657142Y-135014285D01*
X137628571Y-135042857D01*
X137571428Y-135071428D01*
X137400000Y-135071428D01*
X137342857Y-135042857D01*
X137314285Y-135014285D01*
%TO.C,GND2*%
D10*
X171861904Y-100500000D02*
X171766666Y-100452380D01*
X171623809Y-100452380D01*
X171480952Y-100500000D01*
X171385714Y-100595238D01*
X171338095Y-100690476D01*
X171290476Y-100880952D01*
X171290476Y-101023809D01*
X171338095Y-101214285D01*
X171385714Y-101309523D01*
X171480952Y-101404761D01*
X171623809Y-101452380D01*
X171719047Y-101452380D01*
X171861904Y-101404761D01*
X171909523Y-101357142D01*
X171909523Y-101023809D01*
X171719047Y-101023809D01*
X172338095Y-101452380D02*
X172338095Y-100452380D01*
X172909523Y-101452380D01*
X172909523Y-100452380D01*
X173385714Y-101452380D02*
X173385714Y-100452380D01*
X173623809Y-100452380D01*
X173766666Y-100500000D01*
X173861904Y-100595238D01*
X173909523Y-100690476D01*
X173957142Y-100880952D01*
X173957142Y-101023809D01*
X173909523Y-101214285D01*
X173861904Y-101309523D01*
X173766666Y-101404761D01*
X173623809Y-101452380D01*
X173385714Y-101452380D01*
X174338095Y-100547619D02*
X174385714Y-100500000D01*
X174480952Y-100452380D01*
X174719047Y-100452380D01*
X174814285Y-100500000D01*
X174861904Y-100547619D01*
X174909523Y-100642857D01*
X174909523Y-100738095D01*
X174861904Y-100880952D01*
X174290476Y-101452380D01*
X174909523Y-101452380D01*
%TO.C,GND1*%
D15*
X140257142Y-71300000D02*
X140200000Y-71271428D01*
X140114285Y-71271428D01*
X140028571Y-71300000D01*
X139971428Y-71357142D01*
X139942857Y-71414285D01*
X139914285Y-71528571D01*
X139914285Y-71614285D01*
X139942857Y-71728571D01*
X139971428Y-71785714D01*
X140028571Y-71842857D01*
X140114285Y-71871428D01*
X140171428Y-71871428D01*
X140257142Y-71842857D01*
X140285714Y-71814285D01*
X140285714Y-71614285D01*
X140171428Y-71614285D01*
X140542857Y-71871428D02*
X140542857Y-71271428D01*
X140885714Y-71871428D01*
X140885714Y-71271428D01*
X141171428Y-71871428D02*
X141171428Y-71271428D01*
X141314285Y-71271428D01*
X141400000Y-71300000D01*
X141457142Y-71357142D01*
X141485714Y-71414285D01*
X141514285Y-71528571D01*
X141514285Y-71614285D01*
X141485714Y-71728571D01*
X141457142Y-71785714D01*
X141400000Y-71842857D01*
X141314285Y-71871428D01*
X141171428Y-71871428D01*
X142085714Y-71871428D02*
X141742857Y-71871428D01*
X141914285Y-71871428D02*
X141914285Y-71271428D01*
X141857142Y-71357142D01*
X141800000Y-71414285D01*
X141742857Y-71442857D01*
%TO.C,3V0_4*%
X139842857Y-134371428D02*
X140214285Y-134371428D01*
X140014285Y-134600000D01*
X140100000Y-134600000D01*
X140157142Y-134628571D01*
X140185714Y-134657142D01*
X140214285Y-134714285D01*
X140214285Y-134857142D01*
X140185714Y-134914285D01*
X140157142Y-134942857D01*
X140100000Y-134971428D01*
X139928571Y-134971428D01*
X139871428Y-134942857D01*
X139842857Y-134914285D01*
X140385714Y-134371428D02*
X140585714Y-134971428D01*
X140785714Y-134371428D01*
X141100000Y-134371428D02*
X141157142Y-134371428D01*
X141214285Y-134400000D01*
X141242857Y-134428571D01*
X141271428Y-134485714D01*
X141300000Y-134600000D01*
X141300000Y-134742857D01*
X141271428Y-134857142D01*
X141242857Y-134914285D01*
X141214285Y-134942857D01*
X141157142Y-134971428D01*
X141100000Y-134971428D01*
X141042857Y-134942857D01*
X141014285Y-134914285D01*
X140985714Y-134857142D01*
X140957142Y-134742857D01*
X140957142Y-134600000D01*
X140985714Y-134485714D01*
X141014285Y-134428571D01*
X141042857Y-134400000D01*
X141100000Y-134371428D01*
X141414285Y-135028571D02*
X141871428Y-135028571D01*
X142271428Y-134571428D02*
X142271428Y-134971428D01*
X142128571Y-134342857D02*
X141985714Y-134771428D01*
X142357142Y-134771428D01*
%TO.C,3V0_3*%
D10*
X171204761Y-93352380D02*
X171823809Y-93352380D01*
X171490476Y-93733333D01*
X171633333Y-93733333D01*
X171728571Y-93780952D01*
X171776190Y-93828571D01*
X171823809Y-93923809D01*
X171823809Y-94161904D01*
X171776190Y-94257142D01*
X171728571Y-94304761D01*
X171633333Y-94352380D01*
X171347619Y-94352380D01*
X171252380Y-94304761D01*
X171204761Y-94257142D01*
X172109523Y-93352380D02*
X172442857Y-94352380D01*
X172776190Y-93352380D01*
X173300000Y-93352380D02*
X173395238Y-93352380D01*
X173490476Y-93400000D01*
X173538095Y-93447619D01*
X173585714Y-93542857D01*
X173633333Y-93733333D01*
X173633333Y-93971428D01*
X173585714Y-94161904D01*
X173538095Y-94257142D01*
X173490476Y-94304761D01*
X173395238Y-94352380D01*
X173300000Y-94352380D01*
X173204761Y-94304761D01*
X173157142Y-94257142D01*
X173109523Y-94161904D01*
X173061904Y-93971428D01*
X173061904Y-93733333D01*
X173109523Y-93542857D01*
X173157142Y-93447619D01*
X173204761Y-93400000D01*
X173300000Y-93352380D01*
X173823809Y-94447619D02*
X174585714Y-94447619D01*
X174728571Y-93352380D02*
X175347619Y-93352380D01*
X175014285Y-93733333D01*
X175157142Y-93733333D01*
X175252380Y-93780952D01*
X175300000Y-93828571D01*
X175347619Y-93923809D01*
X175347619Y-94161904D01*
X175300000Y-94257142D01*
X175252380Y-94304761D01*
X175157142Y-94352380D01*
X174871428Y-94352380D01*
X174776190Y-94304761D01*
X174728571Y-94257142D01*
%TO.C,3V0_2*%
D15*
X135342857Y-71271428D02*
X135714285Y-71271428D01*
X135514285Y-71500000D01*
X135600000Y-71500000D01*
X135657142Y-71528571D01*
X135685714Y-71557142D01*
X135714285Y-71614285D01*
X135714285Y-71757142D01*
X135685714Y-71814285D01*
X135657142Y-71842857D01*
X135600000Y-71871428D01*
X135428571Y-71871428D01*
X135371428Y-71842857D01*
X135342857Y-71814285D01*
X135885714Y-71271428D02*
X136085714Y-71871428D01*
X136285714Y-71271428D01*
X136600000Y-71271428D02*
X136657142Y-71271428D01*
X136714285Y-71300000D01*
X136742857Y-71328571D01*
X136771428Y-71385714D01*
X136800000Y-71500000D01*
X136800000Y-71642857D01*
X136771428Y-71757142D01*
X136742857Y-71814285D01*
X136714285Y-71842857D01*
X136657142Y-71871428D01*
X136600000Y-71871428D01*
X136542857Y-71842857D01*
X136514285Y-71814285D01*
X136485714Y-71757142D01*
X136457142Y-71642857D01*
X136457142Y-71500000D01*
X136485714Y-71385714D01*
X136514285Y-71328571D01*
X136542857Y-71300000D01*
X136600000Y-71271428D01*
X136914285Y-71928571D02*
X137371428Y-71928571D01*
X137485714Y-71328571D02*
X137514285Y-71300000D01*
X137571428Y-71271428D01*
X137714285Y-71271428D01*
X137771428Y-71300000D01*
X137800000Y-71328571D01*
X137828571Y-71385714D01*
X137828571Y-71442857D01*
X137800000Y-71528571D01*
X137457142Y-71871428D01*
X137828571Y-71871428D01*
%TO.C,3V0_1*%
X101042857Y-100871428D02*
X101414285Y-100871428D01*
X101214285Y-101100000D01*
X101300000Y-101100000D01*
X101357142Y-101128571D01*
X101385714Y-101157142D01*
X101414285Y-101214285D01*
X101414285Y-101357142D01*
X101385714Y-101414285D01*
X101357142Y-101442857D01*
X101300000Y-101471428D01*
X101128571Y-101471428D01*
X101071428Y-101442857D01*
X101042857Y-101414285D01*
X101585714Y-100871428D02*
X101785714Y-101471428D01*
X101985714Y-100871428D01*
X102300000Y-100871428D02*
X102357142Y-100871428D01*
X102414285Y-100900000D01*
X102442857Y-100928571D01*
X102471428Y-100985714D01*
X102500000Y-101100000D01*
X102500000Y-101242857D01*
X102471428Y-101357142D01*
X102442857Y-101414285D01*
X102414285Y-101442857D01*
X102357142Y-101471428D01*
X102300000Y-101471428D01*
X102242857Y-101442857D01*
X102214285Y-101414285D01*
X102185714Y-101357142D01*
X102157142Y-101242857D01*
X102157142Y-101100000D01*
X102185714Y-100985714D01*
X102214285Y-100928571D01*
X102242857Y-100900000D01*
X102300000Y-100871428D01*
X102614285Y-101528571D02*
X103071428Y-101528571D01*
X103528571Y-101471428D02*
X103185714Y-101471428D01*
X103357142Y-101471428D02*
X103357142Y-100871428D01*
X103300000Y-100957142D01*
X103242857Y-101014285D01*
X103185714Y-101042857D01*
%TO.C,J43*%
D10*
X75087720Y-132151999D02*
X74416511Y-132396299D01*
X74265982Y-132400412D01*
X74143914Y-132343491D01*
X74050307Y-132225536D01*
X74017734Y-132136041D01*
X75083936Y-133116204D02*
X74457474Y-133344217D01*
X75360480Y-132762174D02*
X74607838Y-132782738D01*
X74819565Y-133364453D01*
X75543746Y-133404923D02*
X75755473Y-133986637D01*
X75283488Y-133803700D01*
X75332348Y-133937941D01*
X75320174Y-134043723D01*
X75291714Y-134104757D01*
X75218506Y-134182077D01*
X74994770Y-134263511D01*
X74888988Y-134251337D01*
X74827955Y-134222876D01*
X74750634Y-134149668D01*
X74652914Y-133881185D01*
X74665088Y-133775403D01*
X74693548Y-133714369D01*
%TO.C,J42*%
X202278532Y-134013406D02*
X202949741Y-134257706D01*
X203067697Y-134351314D01*
X203124618Y-134473382D01*
X203120505Y-134623910D01*
X203087932Y-134713405D01*
X202901210Y-133277215D02*
X203527672Y-133505228D01*
X202461799Y-133370658D02*
X203051574Y-133838694D01*
X203263301Y-133256980D01*
X202840341Y-132748309D02*
X202811880Y-132687275D01*
X202799706Y-132581494D01*
X202881139Y-132357757D01*
X202958460Y-132284550D01*
X203019494Y-132256089D01*
X203125275Y-132243915D01*
X203214770Y-132276488D01*
X203332725Y-132370096D01*
X203674252Y-133102503D01*
X203885979Y-132520788D01*
%TO.C,J41*%
X129091476Y-41693300D02*
X129091476Y-42407586D01*
X129043857Y-42550443D01*
X128948619Y-42645681D01*
X128805761Y-42693300D01*
X128710523Y-42693300D01*
X129996238Y-42026634D02*
X129996238Y-42693300D01*
X129758142Y-41645681D02*
X129520047Y-42359967D01*
X130139095Y-42359967D01*
X131043857Y-42693300D02*
X130472428Y-42693300D01*
X130758142Y-42693300D02*
X130758142Y-41693300D01*
X130662904Y-41836158D01*
X130567666Y-41931396D01*
X130472428Y-41979015D01*
%TO.C,J40*%
X192502741Y-105160986D02*
X192145598Y-105779575D01*
X192032930Y-105879484D01*
X191902832Y-105914343D01*
X191755305Y-105884154D01*
X191672826Y-105836535D01*
X193119621Y-105902042D02*
X192786288Y-106479392D01*
X193103901Y-105453080D02*
X192540561Y-105952622D01*
X193076672Y-106262145D01*
X193904877Y-105970509D02*
X193987356Y-106018128D01*
X194046025Y-106106987D01*
X194063455Y-106172036D01*
X194057075Y-106278324D01*
X194003076Y-106467091D01*
X193884029Y-106673287D01*
X193747551Y-106814435D01*
X193658693Y-106873104D01*
X193593644Y-106890534D01*
X193487356Y-106884154D01*
X193404877Y-106836535D01*
X193346208Y-106747676D01*
X193328778Y-106682628D01*
X193335158Y-106576339D01*
X193389157Y-106387573D01*
X193508204Y-106181376D01*
X193644682Y-106040229D01*
X193733540Y-105981559D01*
X193798589Y-105964130D01*
X193904877Y-105970509D01*
%TO.C,J39*%
X84735122Y-106210509D02*
X85092265Y-106829099D01*
X85122454Y-106976626D01*
X85087594Y-107106724D01*
X84987686Y-107219392D01*
X84905207Y-107267011D01*
X85065036Y-106020033D02*
X85601147Y-105710509D01*
X85502948Y-106207091D01*
X85626666Y-106135662D01*
X85732954Y-106129282D01*
X85798003Y-106146712D01*
X85886861Y-106205381D01*
X86005909Y-106411578D01*
X86012289Y-106517866D01*
X85994859Y-106582915D01*
X85936190Y-106671773D01*
X85688754Y-106814630D01*
X85582466Y-106821010D01*
X85517417Y-106803580D01*
X86513540Y-106338440D02*
X86678497Y-106243201D01*
X86737167Y-106154343D01*
X86754596Y-106089294D01*
X86765646Y-105917957D01*
X86711648Y-105729191D01*
X86521171Y-105399276D01*
X86432313Y-105340607D01*
X86367264Y-105323177D01*
X86260976Y-105329557D01*
X86096019Y-105424795D01*
X86037350Y-105513653D01*
X86019920Y-105578702D01*
X86026300Y-105684990D01*
X86145347Y-105891187D01*
X86234206Y-105949856D01*
X86299255Y-105967286D01*
X86405543Y-105960906D01*
X86570500Y-105865668D01*
X86629169Y-105776810D01*
X86646599Y-105711761D01*
X86640219Y-105605473D01*
%TO.C,J38*%
X136393380Y-59109523D02*
X137107666Y-59109523D01*
X137250523Y-59157142D01*
X137345761Y-59252380D01*
X137393380Y-59395238D01*
X137393380Y-59490476D01*
X136393380Y-58728571D02*
X136393380Y-58109523D01*
X136774333Y-58442857D01*
X136774333Y-58300000D01*
X136821952Y-58204761D01*
X136869571Y-58157142D01*
X136964809Y-58109523D01*
X137202904Y-58109523D01*
X137298142Y-58157142D01*
X137345761Y-58204761D01*
X137393380Y-58300000D01*
X137393380Y-58585714D01*
X137345761Y-58680952D01*
X137298142Y-58728571D01*
X136821952Y-57538095D02*
X136774333Y-57633333D01*
X136726714Y-57680952D01*
X136631476Y-57728571D01*
X136583857Y-57728571D01*
X136488619Y-57680952D01*
X136441000Y-57633333D01*
X136393380Y-57538095D01*
X136393380Y-57347619D01*
X136441000Y-57252380D01*
X136488619Y-57204761D01*
X136583857Y-57157142D01*
X136631476Y-57157142D01*
X136726714Y-57204761D01*
X136774333Y-57252380D01*
X136821952Y-57347619D01*
X136821952Y-57538095D01*
X136869571Y-57633333D01*
X136917190Y-57680952D01*
X137012428Y-57728571D01*
X137202904Y-57728571D01*
X137298142Y-57680952D01*
X137345761Y-57633333D01*
X137393380Y-57538095D01*
X137393380Y-57347619D01*
X137345761Y-57252380D01*
X137298142Y-57204761D01*
X137202904Y-57157142D01*
X137012428Y-57157142D01*
X136917190Y-57204761D01*
X136869571Y-57252380D01*
X136821952Y-57347619D01*
%TO.C,J37*%
X97570476Y-99652380D02*
X97570476Y-100366666D01*
X97522857Y-100509523D01*
X97427619Y-100604761D01*
X97284761Y-100652380D01*
X97189523Y-100652380D01*
X97951428Y-99652380D02*
X98570476Y-99652380D01*
X98237142Y-100033333D01*
X98380000Y-100033333D01*
X98475238Y-100080952D01*
X98522857Y-100128571D01*
X98570476Y-100223809D01*
X98570476Y-100461904D01*
X98522857Y-100557142D01*
X98475238Y-100604761D01*
X98380000Y-100652380D01*
X98094285Y-100652380D01*
X97999047Y-100604761D01*
X97951428Y-100557142D01*
X98903809Y-99652380D02*
X99570476Y-99652380D01*
X99141904Y-100652380D01*
%TO.C,J36*%
X77618532Y-117903406D02*
X78289741Y-118147706D01*
X78407697Y-118241314D01*
X78464618Y-118363382D01*
X78460505Y-118513910D01*
X78427932Y-118603405D01*
X77748826Y-117545428D02*
X77960553Y-116963714D01*
X78204524Y-117407238D01*
X78253384Y-117272996D01*
X78330705Y-117199788D01*
X78391739Y-117171328D01*
X78497520Y-117159154D01*
X78721256Y-117240587D01*
X78794464Y-117317908D01*
X78822925Y-117378942D01*
X78835099Y-117484723D01*
X78737379Y-117753207D01*
X78660058Y-117826414D01*
X78599024Y-117854875D01*
X78253713Y-116158263D02*
X78188566Y-116337252D01*
X78200740Y-116443033D01*
X78229201Y-116504067D01*
X78330869Y-116642422D01*
X78493571Y-116752316D01*
X78851550Y-116882609D01*
X78957331Y-116870435D01*
X79018365Y-116841974D01*
X79095685Y-116768767D01*
X79160832Y-116589778D01*
X79148658Y-116483996D01*
X79120197Y-116422962D01*
X79046990Y-116345642D01*
X78823253Y-116264208D01*
X78717472Y-116276382D01*
X78656438Y-116304843D01*
X78579118Y-116378051D01*
X78513971Y-116557040D01*
X78526145Y-116662821D01*
X78554605Y-116723855D01*
X78627813Y-116801176D01*
%TO.C,J35*%
X179840476Y-96642380D02*
X179840476Y-97356666D01*
X179792857Y-97499523D01*
X179697619Y-97594761D01*
X179554761Y-97642380D01*
X179459523Y-97642380D01*
X180221428Y-96642380D02*
X180840476Y-96642380D01*
X180507142Y-97023333D01*
X180650000Y-97023333D01*
X180745238Y-97070952D01*
X180792857Y-97118571D01*
X180840476Y-97213809D01*
X180840476Y-97451904D01*
X180792857Y-97547142D01*
X180745238Y-97594761D01*
X180650000Y-97642380D01*
X180364285Y-97642380D01*
X180269047Y-97594761D01*
X180221428Y-97547142D01*
X181745238Y-96642380D02*
X181269047Y-96642380D01*
X181221428Y-97118571D01*
X181269047Y-97070952D01*
X181364285Y-97023333D01*
X181602380Y-97023333D01*
X181697619Y-97070952D01*
X181745238Y-97118571D01*
X181792857Y-97213809D01*
X181792857Y-97451904D01*
X181745238Y-97547142D01*
X181697619Y-97594761D01*
X181602380Y-97642380D01*
X181364285Y-97642380D01*
X181269047Y-97594761D01*
X181221428Y-97547142D01*
%TO.C,J34*%
X202667720Y-119121999D02*
X201996511Y-119366299D01*
X201845982Y-119370412D01*
X201723914Y-119313491D01*
X201630307Y-119195536D01*
X201597734Y-119106041D01*
X202798013Y-119479977D02*
X203009740Y-120061692D01*
X202537755Y-119878754D01*
X202586615Y-120012996D01*
X202574441Y-120118777D01*
X202545980Y-120179811D01*
X202472773Y-120257132D01*
X202249036Y-120338565D01*
X202143255Y-120326391D01*
X202082221Y-120297931D01*
X202004900Y-120224723D01*
X201907180Y-119956239D01*
X201919354Y-119850458D01*
X201947815Y-119789424D01*
X202989669Y-120981149D02*
X202363207Y-121209163D01*
X203266214Y-120627120D02*
X202513571Y-120647683D01*
X202725298Y-121229398D01*
%TO.C,J33*%
X89603741Y-87337894D02*
X89246598Y-87956483D01*
X89133930Y-88056392D01*
X89003832Y-88091251D01*
X88856305Y-88061062D01*
X88773826Y-88013443D01*
X89933655Y-87528370D02*
X90469766Y-87837894D01*
X89990615Y-88001141D01*
X90114333Y-88072570D01*
X90173002Y-88161428D01*
X90190432Y-88226477D01*
X90184052Y-88332765D01*
X90065004Y-88538962D01*
X89976146Y-88597631D01*
X89911097Y-88615061D01*
X89804809Y-88608681D01*
X89557373Y-88465824D01*
X89498704Y-88376965D01*
X89481274Y-88311917D01*
X90758441Y-88004560D02*
X91294552Y-88314084D01*
X90815401Y-88477332D01*
X90939119Y-88548760D01*
X90997788Y-88637619D01*
X91015218Y-88702668D01*
X91008838Y-88808956D01*
X90889790Y-89015152D01*
X90800932Y-89073821D01*
X90735883Y-89091251D01*
X90629595Y-89084871D01*
X90382159Y-88942014D01*
X90323490Y-88853156D01*
X90306060Y-88788107D01*
%TO.C,J32*%
X76257720Y-68191999D02*
X75586511Y-68436299D01*
X75435982Y-68440412D01*
X75313914Y-68383491D01*
X75220307Y-68265536D01*
X75187734Y-68176041D01*
X76388013Y-68549977D02*
X76599740Y-69131692D01*
X76127755Y-68948754D01*
X76176615Y-69082996D01*
X76164441Y-69188777D01*
X76135980Y-69249811D01*
X76062773Y-69327132D01*
X75839036Y-69408565D01*
X75733255Y-69396391D01*
X75672221Y-69367931D01*
X75594900Y-69294723D01*
X75497180Y-69026239D01*
X75509354Y-68920458D01*
X75537815Y-68859424D01*
X76640539Y-69522243D02*
X76701573Y-69550704D01*
X76778893Y-69623912D01*
X76860327Y-69847648D01*
X76848153Y-69953429D01*
X76819692Y-70014463D01*
X76746484Y-70091784D01*
X76656990Y-70124357D01*
X76506461Y-70128470D01*
X75774054Y-69786943D01*
X75985781Y-70368657D01*
%TO.C,J31*%
X192674805Y-38710355D02*
X192169729Y-39215431D01*
X192035042Y-39282774D01*
X191900355Y-39282774D01*
X191765668Y-39215431D01*
X191698324Y-39148087D01*
X192944179Y-38979729D02*
X193381912Y-39417461D01*
X192876835Y-39451133D01*
X192977851Y-39552148D01*
X193011522Y-39653164D01*
X193011522Y-39720507D01*
X192977851Y-39821522D01*
X192809492Y-39989881D01*
X192708477Y-40023553D01*
X192641133Y-40023553D01*
X192540118Y-39989881D01*
X192338087Y-39787851D01*
X192304416Y-39686835D01*
X192304416Y-39619492D01*
X193348240Y-40798003D02*
X192944179Y-40393942D01*
X193146209Y-40595973D02*
X193853316Y-39888866D01*
X193684957Y-39922538D01*
X193550270Y-39922538D01*
X193449255Y-39888866D01*
%TO.C,J30*%
X196034805Y-42070355D02*
X195529729Y-42575431D01*
X195395042Y-42642774D01*
X195260355Y-42642774D01*
X195125668Y-42575431D01*
X195058324Y-42508087D01*
X196304179Y-42339729D02*
X196741912Y-42777461D01*
X196236835Y-42811133D01*
X196337851Y-42912148D01*
X196371522Y-43013164D01*
X196371522Y-43080507D01*
X196337851Y-43181522D01*
X196169492Y-43349881D01*
X196068477Y-43383553D01*
X196001133Y-43383553D01*
X195900118Y-43349881D01*
X195698087Y-43147851D01*
X195664416Y-43046835D01*
X195664416Y-42979492D01*
X197179644Y-43215194D02*
X197246988Y-43282538D01*
X197280660Y-43383553D01*
X197280660Y-43450896D01*
X197246988Y-43551912D01*
X197145973Y-43720270D01*
X196977614Y-43888629D01*
X196809255Y-43989644D01*
X196708240Y-44023316D01*
X196640896Y-44023316D01*
X196539881Y-43989644D01*
X196472538Y-43922301D01*
X196438866Y-43821286D01*
X196438866Y-43753942D01*
X196472538Y-43652927D01*
X196573553Y-43484568D01*
X196741912Y-43316209D01*
X196910270Y-43215194D01*
X197011286Y-43181522D01*
X197078629Y-43181522D01*
X197179644Y-43215194D01*
%TO.C,J29*%
X81959165Y-149597915D02*
X81454089Y-150102991D01*
X81319402Y-150170334D01*
X81184715Y-150170334D01*
X81050028Y-150102991D01*
X80982684Y-150035647D01*
X82194867Y-149968304D02*
X82262211Y-149968304D01*
X82363226Y-150001976D01*
X82531585Y-150170334D01*
X82565256Y-150271350D01*
X82565256Y-150338693D01*
X82531585Y-150439708D01*
X82464241Y-150507052D01*
X82329554Y-150574395D01*
X81521432Y-150574395D01*
X81959165Y-151012128D01*
X82295882Y-151348846D02*
X82430569Y-151483533D01*
X82531585Y-151517204D01*
X82598928Y-151517204D01*
X82767287Y-151483533D01*
X82935646Y-151382517D01*
X83205020Y-151113143D01*
X83238691Y-151012128D01*
X83238691Y-150944785D01*
X83205020Y-150843769D01*
X83070333Y-150709082D01*
X82969317Y-150675411D01*
X82901974Y-150675411D01*
X82800959Y-150709082D01*
X82632600Y-150877441D01*
X82598928Y-150978456D01*
X82598928Y-151045800D01*
X82632600Y-151146815D01*
X82767287Y-151281502D01*
X82868302Y-151315174D01*
X82935646Y-151315174D01*
X83036661Y-151281502D01*
%TO.C,J28*%
X85259165Y-152897915D02*
X84754089Y-153402991D01*
X84619402Y-153470334D01*
X84484715Y-153470334D01*
X84350028Y-153402991D01*
X84282684Y-153335647D01*
X85494867Y-153268304D02*
X85562211Y-153268304D01*
X85663226Y-153301976D01*
X85831585Y-153470334D01*
X85865256Y-153571350D01*
X85865256Y-153638693D01*
X85831585Y-153739708D01*
X85764241Y-153807052D01*
X85629554Y-153874395D01*
X84821432Y-153874395D01*
X85259165Y-154312128D01*
X86067287Y-154312128D02*
X86033615Y-154211113D01*
X86033615Y-154143769D01*
X86067287Y-154042754D01*
X86100959Y-154009082D01*
X86201974Y-153975411D01*
X86269317Y-153975411D01*
X86370333Y-154009082D01*
X86505020Y-154143769D01*
X86538691Y-154244785D01*
X86538691Y-154312128D01*
X86505020Y-154413143D01*
X86471348Y-154446815D01*
X86370333Y-154480487D01*
X86302989Y-154480487D01*
X86201974Y-154446815D01*
X86067287Y-154312128D01*
X85966272Y-154278456D01*
X85898928Y-154278456D01*
X85797913Y-154312128D01*
X85663226Y-154446815D01*
X85629554Y-154547830D01*
X85629554Y-154615174D01*
X85663226Y-154716189D01*
X85797913Y-154850876D01*
X85898928Y-154884548D01*
X85966272Y-154884548D01*
X86067287Y-154850876D01*
X86201974Y-154716189D01*
X86235646Y-154615174D01*
X86235646Y-154547830D01*
X86201974Y-154446815D01*
%TO.C,J27*%
X196560355Y-146425194D02*
X197065431Y-146930270D01*
X197132774Y-147064957D01*
X197132774Y-147199644D01*
X197065431Y-147334331D01*
X196998087Y-147401675D01*
X196930744Y-146189492D02*
X196930744Y-146122148D01*
X196964416Y-146021133D01*
X197132774Y-145852774D01*
X197233790Y-145819103D01*
X197301133Y-145819103D01*
X197402148Y-145852774D01*
X197469492Y-145920118D01*
X197536835Y-146054805D01*
X197536835Y-146862927D01*
X197974568Y-146425194D01*
X197503164Y-145482385D02*
X197974568Y-145010981D01*
X198378629Y-146021133D01*
%TO.C,J26*%
X186990355Y-155155193D02*
X187495431Y-155660269D01*
X187562774Y-155794956D01*
X187562774Y-155929643D01*
X187495431Y-156064330D01*
X187428087Y-156131674D01*
X187360744Y-154919491D02*
X187360744Y-154852147D01*
X187394416Y-154751132D01*
X187562774Y-154582773D01*
X187663790Y-154549102D01*
X187731133Y-154549102D01*
X187832148Y-154582773D01*
X187899492Y-154650117D01*
X187966835Y-154784804D01*
X187966835Y-155592926D01*
X188404568Y-155155193D01*
X188303553Y-153841995D02*
X188168866Y-153976682D01*
X188135194Y-154077697D01*
X188135194Y-154145041D01*
X188168866Y-154313399D01*
X188269881Y-154481758D01*
X188539255Y-154751132D01*
X188640270Y-154784804D01*
X188707614Y-154784804D01*
X188808629Y-154751132D01*
X188943316Y-154616445D01*
X188976988Y-154515430D01*
X188976988Y-154448086D01*
X188943316Y-154347071D01*
X188774957Y-154178712D01*
X188673942Y-154145041D01*
X188606599Y-154145041D01*
X188505583Y-154178712D01*
X188370896Y-154313399D01*
X188337225Y-154414415D01*
X188337225Y-154481758D01*
X188370896Y-154582773D01*
%TO.C,J25*%
X74773765Y-56169765D02*
X75444974Y-56414065D01*
X75562930Y-56507673D01*
X75619851Y-56629741D01*
X75615738Y-56780269D01*
X75583165Y-56869764D01*
X75009840Y-55799613D02*
X74981379Y-55738579D01*
X74969206Y-55632798D01*
X75050639Y-55409062D01*
X75127960Y-55335854D01*
X75188993Y-55307393D01*
X75294775Y-55295219D01*
X75384269Y-55327793D01*
X75502224Y-55421400D01*
X75843751Y-56153807D01*
X76055478Y-55572093D01*
X75425232Y-54379875D02*
X75262366Y-54827347D01*
X75693552Y-55034961D01*
X75665091Y-54973927D01*
X75652917Y-54868146D01*
X75734351Y-54644410D01*
X75811671Y-54571202D01*
X75872705Y-54542741D01*
X75978486Y-54530567D01*
X76202223Y-54612001D01*
X76275430Y-54689321D01*
X76303891Y-54750355D01*
X76316065Y-54856137D01*
X76234632Y-55079873D01*
X76157311Y-55153081D01*
X76096277Y-55181541D01*
%TO.C,J24*%
X76373765Y-51769765D02*
X77044974Y-52014065D01*
X77162930Y-52107673D01*
X77219851Y-52229741D01*
X77215738Y-52380269D01*
X77183165Y-52469764D01*
X76609840Y-51399613D02*
X76581379Y-51338579D01*
X76569206Y-51232798D01*
X76650639Y-51009062D01*
X76727960Y-50935854D01*
X76788993Y-50907393D01*
X76894775Y-50895219D01*
X76984269Y-50927793D01*
X77102224Y-51021400D01*
X77443751Y-51753807D01*
X77655478Y-51172093D01*
X77322177Y-50138629D02*
X77948638Y-50366642D01*
X76882765Y-50232072D02*
X77472541Y-50700108D01*
X77684268Y-50118393D01*
%TO.C,J23*%
X81184715Y-43629474D02*
X81689791Y-44134550D01*
X81757134Y-44269237D01*
X81757134Y-44403924D01*
X81689791Y-44538611D01*
X81622447Y-44605955D01*
X81555104Y-43393772D02*
X81555104Y-43326428D01*
X81588776Y-43225413D01*
X81757134Y-43057054D01*
X81858150Y-43023383D01*
X81925493Y-43023383D01*
X82026508Y-43057054D01*
X82093852Y-43124398D01*
X82161195Y-43259085D01*
X82161195Y-44067207D01*
X82598928Y-43629474D01*
X82127524Y-42686665D02*
X82565256Y-42248932D01*
X82598928Y-42754009D01*
X82699943Y-42652993D01*
X82800959Y-42619322D01*
X82868302Y-42619322D01*
X82969317Y-42652993D01*
X83137676Y-42821352D01*
X83171348Y-42922367D01*
X83171348Y-42989711D01*
X83137676Y-43090726D01*
X82935646Y-43292757D01*
X82834630Y-43326428D01*
X82767287Y-43326428D01*
%TO.C,J22*%
X87920355Y-38085194D02*
X88425431Y-38590270D01*
X88492774Y-38724957D01*
X88492774Y-38859644D01*
X88425431Y-38994331D01*
X88358087Y-39061675D01*
X88290744Y-37849492D02*
X88290744Y-37782148D01*
X88324416Y-37681133D01*
X88492774Y-37512774D01*
X88593790Y-37479103D01*
X88661133Y-37479103D01*
X88762148Y-37512774D01*
X88829492Y-37580118D01*
X88896835Y-37714805D01*
X88896835Y-38522927D01*
X89334568Y-38085194D01*
X88964179Y-37176057D02*
X88964179Y-37108713D01*
X88997851Y-37007698D01*
X89166209Y-36839339D01*
X89267225Y-36805668D01*
X89334568Y-36805668D01*
X89435583Y-36839339D01*
X89502927Y-36906683D01*
X89570270Y-37041370D01*
X89570270Y-37849492D01*
X90008003Y-37411759D01*
%TO.C,J21*%
X92248438Y-34927432D02*
X92492738Y-35598641D01*
X92496851Y-35749170D01*
X92439930Y-35871238D01*
X92321975Y-35964845D01*
X92232480Y-35997418D01*
X92683737Y-34870347D02*
X92712198Y-34809313D01*
X92785405Y-34731992D01*
X93009142Y-34650559D01*
X93114923Y-34662733D01*
X93175957Y-34691193D01*
X93253278Y-34764401D01*
X93285851Y-34853896D01*
X93289964Y-35004424D01*
X92948436Y-35736832D01*
X93530151Y-35525105D01*
X94425096Y-35199371D02*
X93888129Y-35394811D01*
X94156613Y-35297091D02*
X93814593Y-34357399D01*
X93773958Y-34524214D01*
X93717037Y-34646282D01*
X93643829Y-34723602D01*
%TO.C,J20*%
X96648438Y-33327432D02*
X96892738Y-33998641D01*
X96896851Y-34149170D01*
X96839930Y-34271238D01*
X96721975Y-34364845D01*
X96632480Y-34397418D01*
X97083737Y-33270347D02*
X97112198Y-33209313D01*
X97185405Y-33131992D01*
X97409142Y-33050559D01*
X97514923Y-33062733D01*
X97575957Y-33091193D01*
X97653278Y-33164401D01*
X97685851Y-33253896D01*
X97689964Y-33404424D01*
X97348436Y-34136832D01*
X97930151Y-33925105D01*
X98169845Y-32773685D02*
X98259340Y-32741112D01*
X98365121Y-32753286D01*
X98426155Y-32781747D01*
X98503476Y-32854955D01*
X98613370Y-33017657D01*
X98694803Y-33241393D01*
X98715202Y-33436669D01*
X98703028Y-33542450D01*
X98674568Y-33603484D01*
X98601360Y-33680805D01*
X98511865Y-33713378D01*
X98406084Y-33701204D01*
X98345050Y-33672744D01*
X98267730Y-33599536D01*
X98157836Y-33436833D01*
X98076402Y-33213097D01*
X98056003Y-33017821D01*
X98068177Y-32912040D01*
X98096637Y-32851006D01*
X98169845Y-32773685D01*
%TO.C,J19*%
X105921825Y-31832669D02*
X105859571Y-32544236D01*
X105799683Y-32682400D01*
X105696506Y-32768975D01*
X105550043Y-32803962D01*
X105455167Y-32795661D01*
X106830864Y-32916019D02*
X106261610Y-32866216D01*
X106546237Y-32891117D02*
X106633393Y-31894923D01*
X106526066Y-32028936D01*
X106422890Y-32115511D01*
X106323864Y-32154648D01*
X107305243Y-32957522D02*
X107494994Y-32974123D01*
X107594020Y-32934986D01*
X107645608Y-32891698D01*
X107752935Y-32757685D01*
X107816974Y-32572084D01*
X107850176Y-32192581D01*
X107811038Y-32093555D01*
X107767751Y-32041967D01*
X107677026Y-31986229D01*
X107487274Y-31969628D01*
X107388248Y-32008765D01*
X107336660Y-32052053D01*
X107280922Y-32142778D01*
X107260170Y-32379967D01*
X107299308Y-32478993D01*
X107342595Y-32530581D01*
X107433321Y-32586320D01*
X107623072Y-32602921D01*
X107722098Y-32563783D01*
X107773686Y-32520496D01*
X107829424Y-32429770D01*
%TO.C,J18*%
X110521825Y-32232669D02*
X110459571Y-32944236D01*
X110399683Y-33082400D01*
X110296506Y-33168975D01*
X110150043Y-33203962D01*
X110055167Y-33195661D01*
X111430864Y-33316019D02*
X110861610Y-33266216D01*
X111146237Y-33291117D02*
X111233393Y-32294923D01*
X111126066Y-32428936D01*
X111022890Y-32515511D01*
X110923864Y-32554648D01*
X112049922Y-32796568D02*
X111959196Y-32740830D01*
X111915909Y-32689242D01*
X111876771Y-32590216D01*
X111880922Y-32542778D01*
X111936660Y-32452053D01*
X111988248Y-32408765D01*
X112087274Y-32369628D01*
X112277026Y-32386229D01*
X112367751Y-32441967D01*
X112411038Y-32493555D01*
X112450176Y-32592581D01*
X112446026Y-32640019D01*
X112390287Y-32730744D01*
X112338699Y-32774032D01*
X112239673Y-32813169D01*
X112049922Y-32796568D01*
X111950896Y-32835706D01*
X111899308Y-32878993D01*
X111843569Y-32969719D01*
X111826968Y-33159470D01*
X111866105Y-33258496D01*
X111909393Y-33310084D01*
X112000118Y-33365822D01*
X112189870Y-33382423D01*
X112288896Y-33343286D01*
X112340484Y-33299999D01*
X112396222Y-33209273D01*
X112412823Y-33019522D01*
X112373686Y-32920496D01*
X112330398Y-32868908D01*
X112239673Y-32813169D01*
%TO.C,J17*%
X149510355Y-39955194D02*
X150015431Y-40460270D01*
X150082774Y-40594957D01*
X150082774Y-40729644D01*
X150015431Y-40864331D01*
X149948087Y-40931675D01*
X150924568Y-39955194D02*
X150520507Y-40359255D01*
X150722538Y-40157225D02*
X150015431Y-39450118D01*
X150049103Y-39618477D01*
X150049103Y-39753164D01*
X150015431Y-39854179D01*
X150453164Y-39012385D02*
X150924568Y-38540981D01*
X151328629Y-39551133D01*
%TO.C,J16*%
X181949794Y-32971520D02*
X181764923Y-33661467D01*
X181681952Y-33787132D01*
X181565310Y-33854475D01*
X181414996Y-33863497D01*
X181323003Y-33838848D01*
X182656901Y-34196265D02*
X182104943Y-34048368D01*
X182380922Y-34122317D02*
X182639741Y-33156391D01*
X182510774Y-33269731D01*
X182394131Y-33337074D01*
X182289814Y-33358421D01*
X183743656Y-33452184D02*
X183559670Y-33402885D01*
X183455353Y-33424232D01*
X183397031Y-33457904D01*
X183268064Y-33571244D01*
X183172769Y-33742905D01*
X183074171Y-34110877D01*
X183095518Y-34215194D01*
X183129190Y-34273516D01*
X183208858Y-34344161D01*
X183392844Y-34393460D01*
X183497162Y-34372113D01*
X183555483Y-34338441D01*
X183626129Y-34258773D01*
X183687752Y-34028791D01*
X183666405Y-33924473D01*
X183632734Y-33866152D01*
X183553065Y-33795506D01*
X183369079Y-33746207D01*
X183264762Y-33767554D01*
X183206441Y-33801226D01*
X183135795Y-33880894D01*
%TO.C,J15*%
X199449439Y-49336325D02*
X198759492Y-49521196D01*
X198609178Y-49512174D01*
X198492535Y-49444830D01*
X198409565Y-49319166D01*
X198384915Y-49227173D01*
X198742332Y-50561070D02*
X198594435Y-50009113D01*
X198668384Y-50285091D02*
X199634309Y-50026272D01*
X199471671Y-49971254D01*
X199355028Y-49903910D01*
X199284382Y-49824242D01*
X199942427Y-51176184D02*
X199819180Y-50716219D01*
X199346891Y-50793470D01*
X199405212Y-50827142D01*
X199475858Y-50906810D01*
X199537481Y-51136792D01*
X199516134Y-51241110D01*
X199482463Y-51299431D01*
X199402794Y-51370077D01*
X199172812Y-51431701D01*
X199068494Y-51410354D01*
X199010173Y-51376682D01*
X198939527Y-51297014D01*
X198877904Y-51067031D01*
X198899251Y-50962714D01*
X198932923Y-50904392D01*
%TO.C,J14*%
X196360354Y-81225194D02*
X196865430Y-81730270D01*
X196932773Y-81864957D01*
X196932773Y-81999644D01*
X196865430Y-82134331D01*
X196798086Y-82201675D01*
X197774567Y-81225194D02*
X197370506Y-81629255D01*
X197572537Y-81427225D02*
X196865430Y-80720118D01*
X196899102Y-80888477D01*
X196899102Y-81023164D01*
X196865430Y-81124179D01*
X197909254Y-80147698D02*
X198380659Y-80619103D01*
X197471521Y-80046683D02*
X197808239Y-80720118D01*
X198245972Y-80282385D01*
%TO.C,J13*%
X187380356Y-89755194D02*
X187885432Y-90260270D01*
X187952775Y-90394957D01*
X187952775Y-90529644D01*
X187885432Y-90664331D01*
X187818088Y-90731675D01*
X188794569Y-89755194D02*
X188390508Y-90159255D01*
X188592539Y-89957225D02*
X187885432Y-89250118D01*
X187919104Y-89418477D01*
X187919104Y-89553164D01*
X187885432Y-89654179D01*
X188323165Y-88812385D02*
X188760897Y-88374652D01*
X188794569Y-88879729D01*
X188895584Y-88778713D01*
X188996600Y-88745042D01*
X189063943Y-88745042D01*
X189164958Y-88778713D01*
X189333317Y-88947072D01*
X189366989Y-89048087D01*
X189366989Y-89115431D01*
X189333317Y-89216446D01*
X189131287Y-89418477D01*
X189030271Y-89452148D01*
X188962928Y-89452148D01*
%TO.C,J12*%
X202619439Y-61546325D02*
X201929492Y-61731196D01*
X201779178Y-61722174D01*
X201662535Y-61654830D01*
X201579565Y-61529166D01*
X201554915Y-61437173D01*
X201912332Y-62771070D02*
X201764435Y-62219113D01*
X201838384Y-62495091D02*
X202804309Y-62236272D01*
X202641671Y-62181254D01*
X202525028Y-62113910D01*
X202454382Y-62034242D01*
X202884863Y-62904872D02*
X202943184Y-62938544D01*
X203013830Y-63018212D01*
X203075453Y-63248195D01*
X203054106Y-63352512D01*
X203020434Y-63410833D01*
X202940766Y-63481479D01*
X202848773Y-63506129D01*
X202698459Y-63497106D01*
X201998605Y-63093045D01*
X202158826Y-63691000D01*
%TO.C,J11*%
X177229794Y-31661520D02*
X177044923Y-32351467D01*
X176961952Y-32477132D01*
X176845310Y-32544475D01*
X176694996Y-32553497D01*
X176603003Y-32528848D01*
X177936901Y-32886265D02*
X177384943Y-32738368D01*
X177660922Y-32812317D02*
X177919741Y-31846391D01*
X177790774Y-31959731D01*
X177674131Y-32027074D01*
X177569814Y-32048421D01*
X178856830Y-33132759D02*
X178304872Y-32984863D01*
X178580851Y-33058811D02*
X178839670Y-32092885D01*
X178710703Y-32206225D01*
X178594061Y-32273568D01*
X178489743Y-32294916D01*
%TO.C,J10*%
X146400355Y-43055194D02*
X146905431Y-43560270D01*
X146972774Y-43694957D01*
X146972774Y-43829644D01*
X146905431Y-43964331D01*
X146838087Y-44031675D01*
X147814568Y-43055194D02*
X147410507Y-43459255D01*
X147612538Y-43257225D02*
X146905431Y-42550118D01*
X146939103Y-42718477D01*
X146939103Y-42853164D01*
X146905431Y-42954179D01*
X147545194Y-41910355D02*
X147612538Y-41843011D01*
X147713553Y-41809339D01*
X147780896Y-41809339D01*
X147881912Y-41843011D01*
X148050270Y-41944026D01*
X148218629Y-42112385D01*
X148319644Y-42280744D01*
X148353316Y-42381759D01*
X148353316Y-42449103D01*
X148319644Y-42550118D01*
X148252301Y-42617461D01*
X148151286Y-42651133D01*
X148083942Y-42651133D01*
X147982927Y-42617461D01*
X147814568Y-42516446D01*
X147646209Y-42348087D01*
X147545194Y-42179729D01*
X147511522Y-42078713D01*
X147511522Y-42011370D01*
X147545194Y-41910355D01*
%TO.C,J7*%
X134149066Y-78880980D02*
X134149066Y-79595266D01*
X134101447Y-79738123D01*
X134006209Y-79833361D01*
X133863352Y-79880980D01*
X133768114Y-79880980D01*
X134530019Y-78880980D02*
X135196685Y-78880980D01*
X134768114Y-79880980D01*
%TD*%
M02*
